<svg id="Layer_1" data-name="Layer 1" xmlns="http://www.w3.org/2000/svg" viewBox="0 0 510.24 425.2"><defs><style>.cls-1{fill:#33669b;}.cls-2{fill:#9fc9eb;}.cls-3{fill:#fdcc9a;}.cls-4{fill:#ffcd34;}.cls-5{fill:#c9992c;}.cls-6{fill:#ca9a2c;}.cls-7{fill:#ffce35;}.cls-10,.cls-8{fill:#fff;}.cls-9{fill:#231f20;}.cls-10,.cls-11{stroke:#231f20;stroke-linecap:round;stroke-miterlimit:10;}.cls-10{stroke-width:1.06px;}.cls-11{fill:none;stroke-width:5.64px;}</style></defs><ellipse class="cls-1" cx="250.1" cy="206.34" rx="225.47" ry="185.56" transform="translate(-55.49 97.98) rotate(-20)"/><ellipse class="cls-2" cx="258.08" cy="372.18" rx="248.74" ry="30.76"/><path class="cls-3" d="M160.87,166.58v-8.8A25.34,25.34,0,0,1,163,147.51a26.45,26.45,0,0,1,13.93-13.93,25.38,25.38,0,0,1,10.27-2.08H216a19.33,19.33,0,0,1,6.48-6.36,16.47,16.47,0,0,1,8.68-2.44v15.64a25.79,25.79,0,0,1,6.48,8.81A25.46,25.46,0,0,1,240,157.78v52.81a4,4,0,0,0,1.35,3,4.29,4.29,0,0,0,3.06,1.28,5.12,5.12,0,0,0,1.89-.36,2.72,2.72,0,0,0,1.41-1.35l21-43.27a21.19,21.19,0,0,1,8-8.81,21.52,21.52,0,0,1,11.55-3.3,20.44,20.44,0,0,1,6.24,1,23.33,23.33,0,0,1,5.68,2.69,22.89,22.89,0,0,1,4.77,4.16A19.27,19.27,0,0,1,308.3,171l7.34,17.36a3.75,3.75,0,0,1,.67,1c.2.41.41.8.61,1.16a3.41,3.41,0,0,0,.73.92,1.93,1.93,0,0,0,1.29.37,2.46,2.46,0,0,0,2.14-1.22,22.38,22.38,0,0,0,1.28-2.2L329.7,171a21.91,21.91,0,0,1,20.05-13.21,20.43,20.43,0,0,1,6.23,1,24.73,24.73,0,0,1,5.75,2.69,21,21,0,0,1,4.76,4.16,20,20,0,0,1,3.3,5.38l17.12,40.95a24.54,24.54,0,0,1,2,6.91,65,65,0,0,1,.36,7.15L405,237.73a4.42,4.42,0,0,1,1.84,3.55,4.39,4.39,0,0,1-4.41,4.4h-13.2V359.86l-8.68,8.8h-26.4a16.84,16.84,0,0,1,1.4-6.84,18.1,18.1,0,0,1,3.79-5.56,17.37,17.37,0,0,1,12.41-5.08v-44l-26.41-43.89a42.36,42.36,0,0,1-15.46,13,43.46,43.46,0,0,1-19.62,4.59H257.45v79l-8.81,8.8H222.36a16.68,16.68,0,0,1,1.41-6.84,17.92,17.92,0,0,1,3.79-5.56,17.37,17.37,0,0,1,12.4-5.08V289.57l-26.28-29.46a35,35,0,0,1-6.6-10.76,34.19,34.19,0,0,1-2.32-12.47V184.19a16.7,16.7,0,0,0-1.41-6.85A18.09,18.09,0,0,0,194,168a16.7,16.7,0,0,0-6.85-1.41H174.44"/><path class="cls-4" d="M231.58,319.54h29.71l-.17,2.41c-.17,2.33-.32,5.23-.44,8.45-.4,11.2-.44,26.28.43,34.61l.25,2.4-38.49,1.25h-.19a5.48,5.48,0,0,1-4.13-1.63c-2.06-2.14-1.93-5.55-1.82-8.29a19.47,19.47,0,0,0,0-2v-.15c-.11-8.19,7.62-9.38,12.73-10.16,1.19-.19,2.32-.36,3.3-.59,1.78-1.05,1.84-1.19,1.84-2.49"/><rect class="cls-5" x="215.4" y="361.56" width="46.33" height="7.1"/><rect class="cls-6" x="230.71" y="318.7" width="31.03" height="7.1"/><path class="cls-7" d="M365.5,320h29.7l-.17,2.41c-.17,2.33-.31,5.23-.43,8.45-.41,11.2-.44,26.28.42,34.6l.25,2.41-38.48,1.25h-.19a5.53,5.53,0,0,1-4.14-1.63c-2.06-2.14-1.92-5.55-1.81-8.29a19.47,19.47,0,0,0,0-2V357c-.11-8.19,7.62-9.38,12.74-10.17,1.18-.18,2.31-.35,3.3-.58,1.77-1,1.83-1.19,1.83-2.49"/><rect class="cls-5" x="349.32" y="361.98" width="46.33" height="7.1"/><polygon class="cls-8" points="185.14 230.41 138.17 230.41 185.14 173.8 185.14 230.41"/><rect class="cls-5" x="364.62" y="319.12" width="31.03" height="7.1"/><rect class="cls-8" x="53.73" y="200.25" width="131.41" height="60.33" rx="18.9"/><path class="cls-9" d="M71,217.09h4.84v25.68H71Zm1.77,0h15.1v4.67H72.72Zm0,10.83H85.87v4.66H72.72Z"/><path class="cls-9" d="M95.66,236.71a1.36,1.36,0,0,0,.38,1,1.5,1.5,0,0,0,1.08.36h.81v4.66H95.46A4.5,4.5,0,0,1,92,241.5a4.94,4.94,0,0,1-1.22-3.59V217.09h4.84Z"/><path class="cls-9" d="M104.39,242.1a6.3,6.3,0,0,1-2.7-2.73,9.25,9.25,0,0,1-.93-4.32v-3a9.12,9.12,0,0,1,.93-4.27,6.23,6.23,0,0,1,2.7-2.7,10.42,10.42,0,0,1,8.56,0,6.18,6.18,0,0,1,2.7,2.7,9.12,9.12,0,0,1,.93,4.27v3a9.14,9.14,0,0,1-.93,4.28,6.25,6.25,0,0,1-2.7,2.71,10.31,10.31,0,0,1-8.56,0Zm6.54-4.58a3.39,3.39,0,0,0,.81-2.41v-3a3.33,3.33,0,0,0-.81-2.39,3,3,0,0,0-2.28-.84,3,3,0,0,0-2.25.84,3.37,3.37,0,0,0-.8,2.39v3a3.43,3.43,0,0,0,.79,2.41,2.94,2.94,0,0,0,2.26.85A3,3,0,0,0,110.93,237.52Z"/><path class="cls-9" d="M124.09,242.1a6.35,6.35,0,0,1-2.7-2.73,9.25,9.25,0,0,1-.92-4.32v-3a9.12,9.12,0,0,1,.92-4.27,6.29,6.29,0,0,1,2.7-2.7,10.44,10.44,0,0,1,8.57,0,6.29,6.29,0,0,1,2.7,2.7,9.12,9.12,0,0,1,.93,4.27v3a9.14,9.14,0,0,1-.93,4.28,6.36,6.36,0,0,1-2.7,2.71,10.34,10.34,0,0,1-8.57,0Zm6.55-4.58a3.39,3.39,0,0,0,.81-2.41v-3a3.33,3.33,0,0,0-.81-2.39,3,3,0,0,0-2.28-.84,3,3,0,0,0-2.25.84,3.33,3.33,0,0,0-.81,2.39v3a3.44,3.44,0,0,0,.8,2.41,2.93,2.93,0,0,0,2.26.85A3,3,0,0,0,130.64,237.52Z"/><path class="cls-9" d="M143,242.1a5.8,5.8,0,0,1-2.11-2.71,11.2,11.2,0,0,1-.73-4.28v-2.94a11.42,11.42,0,0,1,.73-4.32,5.48,5.48,0,0,1,5.43-3.67,4.49,4.49,0,0,1,2.68.87,6.08,6.08,0,0,1,2,2.48l-.37,4.06a3.66,3.66,0,0,0-.32-1.59,2.29,2.29,0,0,0-.92-1,3.08,3.08,0,0,0-1.48-.34,2.55,2.55,0,0,0-2.11.93,4,4,0,0,0-.75,2.6v2.92a3.87,3.87,0,0,0,.75,2.54,2.59,2.59,0,0,0,2.11.9,3,3,0,0,0,1.48-.34,2.16,2.16,0,0,0,.92-1,3.39,3.39,0,0,0,.32-1.53l.25,4.18a4.86,4.86,0,0,1-1.73,2.32,4.68,4.68,0,0,1-2.78.82A5.81,5.81,0,0,1,143,242.1Zm7.58-25h4.84v25.68h-4.84Z"/><path class="cls-9" d="M160.2,217.09H165v18H160.2Zm0,20.84H165v4.84H160.2Z"/><ellipse class="cls-10" cx="207.7" cy="148.95" rx="5.67" ry="7.51"/><circle class="cls-11" cx="206.86" cy="151.79" r="1.37"/></svg>