<svg id="Layer_1" data-name="Layer 1" xmlns="http://www.w3.org/2000/svg" viewBox="0 0 850.39 850.39"><defs><style>.cls-1,.cls-4{fill:#708cc7;}.cls-2,.cls-3{fill:#f0cf9e;}.cls-2,.cls-4{opacity:0.5;}</style></defs><rect class="cls-1" width="850.39" height="850.39" rx="82.36"/><path class="cls-2" d="M581.92,451.38H686.64V555.73L555.73,791H477.56a51.55,51.55,0,0,1,52-52l52.37-130.9ZM156.12,121.94l1.82,44-58.18,24H59.4l46.18-68Z"/><path class="cls-3" d="M791,412.11A13,13,0,0,1,777.9,425.2H738.63V764.81L712.82,791H634.28a49.72,49.72,0,0,1,4.18-20.36,53.85,53.85,0,0,1,11.27-16.54A51.6,51.6,0,0,1,686.64,739V608.1L608.1,477.56a126.61,126.61,0,0,1-46,38.72,129.47,129.47,0,0,1-58.36,13.64H346.66V764.81L320.47,791H242.3a49.72,49.72,0,0,1,4.18-20.36,54,54,0,0,1,11.27-16.54A51.64,51.64,0,0,1,294.66,739V555.73L216.48,468.1a103.55,103.55,0,0,1-19.63-32A101.67,101.67,0,0,1,189.94,399V242.3a49.88,49.88,0,0,0-4.18-20.36,53.79,53.79,0,0,0-27.82-27.82,49.72,49.72,0,0,0-20.36-4.18H99.76l33.45-29.09a12.13,12.13,0,0,0,4.37-9.82,13,13,0,0,0-13.09-13.09,12.17,12.17,0,0,0-8.37,3.27L59.4,189.94V163.76a75.66,75.66,0,0,1,6.18-30.55A78.85,78.85,0,0,1,107,91.76a75.66,75.66,0,0,1,30.55-6.18h85.81a57.53,57.53,0,0,1,19.27-18.91,48.94,48.94,0,0,1,25.82-7.27v46.54a76.74,76.74,0,0,1,19.27,26.18,75.9,75.9,0,0,1,6.91,31.64V320.84a12,12,0,0,0,4,8.91,12.82,12.82,0,0,0,9.09,3.82,15,15,0,0,0,5.64-1.1,7.92,7.92,0,0,0,4.18-4l62.54-128.72a62.71,62.71,0,0,1,23.81-26.18,63.93,63.93,0,0,1,34.37-9.82,60.46,60.46,0,0,1,18.54,2.91,69.61,69.61,0,0,1,16.91,8A68.19,68.19,0,0,1,487.92,187a58.06,58.06,0,0,1,10,16l21.82,51.63a11.48,11.48,0,0,1,2,2.91c.6,1.21,1.21,2.36,1.81,3.45a9.82,9.82,0,0,0,2.19,2.73,5.7,5.7,0,0,0,3.81,1.09,7.27,7.27,0,0,0,6.37-3.63,70.29,70.29,0,0,0,3.82-6.55L561.55,203a65.19,65.19,0,0,1,59.64-39.27,60.46,60.46,0,0,1,18.54,2.91,73,73,0,0,1,17.09,8A62.58,62.58,0,0,1,671,187a60.68,60.68,0,0,1,9.82,16l50.9,121.81a72,72,0,0,1,5.82,20.54,189.63,189.63,0,0,1,1.09,21.28l46.91,34.9Q791,405.93,791,412.11Z"/><path class="cls-4" d="M203,111.76a12.81,12.81,0,0,1,9.09,3.82,12,12,0,0,1,4,8.91v26.18a13.09,13.09,0,1,1-26.18,0V124.49a11.92,11.92,0,0,1,4-8.91A12.78,12.78,0,0,1,203,111.76Z"/></svg>