<svg id="Layer_1" data-name="Layer 1" xmlns="http://www.w3.org/2000/svg" viewBox="0 0 283.46 425.2"><defs><style>.cls-1{fill:#e5e5e5;stroke-width:1.18px;}.cls-1,.cls-2{stroke:#231f20;}.cls-1,.cls-10,.cls-2{stroke-miterlimit:10;}.cls-2,.cls-5{fill:#231f20;}.cls-2{stroke-width:1.27px;}.cls-3{fill:#fff;}.cls-4{fill:#00a651;}.cls-6{fill:#ec2027;}.cls-7{fill:#00a658;}.cls-8{fill:#78797a;}.cls-9{fill:#939598;}.cls-10{fill:none;stroke:#fff;}</style></defs><rect class="cls-1" x="6.55" y="35.37" width="270.15" height="385.19" rx="8.32"/><rect class="cls-2" x="6.55" y="4.46" width="270.15" height="60.72"/><path class="cls-3" d="M111.65,11.26h12.49v3.09H111.65Zm4.64,1.39h3.21V28.3h-3.21Z"/><path class="cls-3" d="M129.11,28.3h-3.33v-17h3.33Z"/><path class="cls-3" d="M131.22,11.26h12.49v3.09H131.22Zm4.64,1.39h3.21V28.3h-3.21Z"/><path class="cls-3" d="M145.59,11.26h3.21v17h-3.21Zm1.43,14h10V28.3H147Z"/><path class="cls-3" d="M159.35,11.26h3.21v17h-3.21Zm1.16,0h10.25v3.09H160.51Zm0,7h9v3.09h-9Zm0,6.92h10.25V28.3H160.51Z"/><rect class="cls-4" x="202.94" y="40.28" width="64.27" height="18.78" rx="4.85"/><path class="cls-3" d="M214.24,54.24a5.64,5.64,0,0,1-1.24-.41,4.47,4.47,0,0,1-1-.64l.84-1.49a4.16,4.16,0,0,0,1.28.7,4.71,4.71,0,0,0,1.49.25,2.67,2.67,0,0,0,1.38-.3,1,1,0,0,0,.49-.85h0a.86.86,0,0,0-.22-.61,1.34,1.34,0,0,0-.57-.33,7.21,7.21,0,0,0-.9-.19h-.07l-.15,0a9.22,9.22,0,0,1-1.6-.38,2.32,2.32,0,0,1-1.07-.8,2.57,2.57,0,0,1-.45-1.63h0a2.9,2.9,0,0,1,.42-1.59,2.58,2.58,0,0,1,1.21-1,5.14,5.14,0,0,1,3-.23,5.59,5.59,0,0,1,1,.34,5.24,5.24,0,0,1,1,.55l-.76,1.53a4.74,4.74,0,0,0-1.16-.6A3.56,3.56,0,0,0,216,46.3a2.42,2.42,0,0,0-1.29.28.85.85,0,0,0-.46.77h0a.89.89,0,0,0,.24.66,1.35,1.35,0,0,0,.59.35,7.38,7.38,0,0,0,1,.24h.11l.07,0,.08,0a7.2,7.2,0,0,1,1.52.43,2.32,2.32,0,0,1,1,.82,2.51,2.51,0,0,1,.41,1.54h0a2.79,2.79,0,0,1-.43,1.58,2.69,2.69,0,0,1-1.25,1,5.32,5.32,0,0,1-2,.34A6.62,6.62,0,0,1,214.24,54.24Z"/><path class="cls-3" d="M222.11,54a2.77,2.77,0,0,1-1.2-1.22,4.28,4.28,0,0,1-.41-1.94V44.67h1.81v6.18a1.77,1.77,0,0,0,.44,1.28,1.94,1.94,0,0,0,2.51,0,1.74,1.74,0,0,0,.45-1.28V44.67h1.81V50.8a4.28,4.28,0,0,1-.41,1.94A2.85,2.85,0,0,1,225.9,54a4,4,0,0,1-1.9.42A3.94,3.94,0,0,1,222.11,54Z"/><path class="cls-3" d="M229.37,44.67h1.81v9.61h-1.81Zm.79,7.86h3.07a1.38,1.38,0,0,0,1-.3,1.05,1.05,0,0,0,.34-.84v0a1.21,1.21,0,0,0-.15-.62,1,1,0,0,0-.45-.39,1.65,1.65,0,0,0-.7-.14h-3.07V48.48h3.07a1.23,1.23,0,0,0,.87-.29,1,1,0,0,0,.31-.8.9.9,0,0,0-.31-.72,1.33,1.33,0,0,0-.87-.26h-3.07V44.67h3.13a3.67,3.67,0,0,1,1.59.31,2.2,2.2,0,0,1,1,.89,2.72,2.72,0,0,1,.34,1.4,2.14,2.14,0,0,1-.22,1,1.89,1.89,0,0,1-.64.71,2.88,2.88,0,0,1-1,.38,2.53,2.53,0,0,1,1.09.38,1.86,1.86,0,0,1,.68.79,2.45,2.45,0,0,1,.24,1.11v0a2.79,2.79,0,0,1-.35,1.42,2.2,2.2,0,0,1-1,.89,3.71,3.71,0,0,1-1.6.31h-3.24Z"/><path class="cls-3" d="M244.16,44.67h2.38v9.61H244.9V46.82l.06.42-1.84,6h-1.6l-1.83-5.84.06-.55v7.46h-1.64V44.67h2.38l1.83,6.48Z"/><path class="cls-3" d="M250.4,54.28h-1.88V44.67h1.88Z"/><path class="cls-3" d="M251.59,44.67h7v1.74h-7Zm2.62.79H256v8.82h-1.81Z"/><rect class="cls-3" x="14.59" y="71.05" width="255.1" height="164.59" rx="11.95"/><path class="cls-5" d="M104,93.63a8.16,8.16,0,0,1-1.73-.57,6.65,6.65,0,0,1-1.46-.9l1.18-2.1a5.62,5.62,0,0,0,1.8,1,6.52,6.52,0,0,0,2.1.35,3.61,3.61,0,0,0,1.93-.43,1.3,1.3,0,0,0,.68-1.19h0a1.18,1.18,0,0,0-.3-.85,1.76,1.76,0,0,0-.8-.46,9.58,9.58,0,0,0-1.26-.27h-.1l-.21,0a12.58,12.58,0,0,1-2.24-.53,3.27,3.27,0,0,1-1.51-1.13,3.59,3.59,0,0,1-.63-2.27h0a4.11,4.11,0,0,1,.59-2.24,3.61,3.61,0,0,1,1.7-1.41,6.56,6.56,0,0,1,2.69-.49,6.41,6.41,0,0,1,1.48.17,8.23,8.23,0,0,1,1.48.48,8,8,0,0,1,1.37.76l-1.08,2.15a6.43,6.43,0,0,0-1.63-.83,4.81,4.81,0,0,0-1.62-.3,3.48,3.48,0,0,0-1.81.39A1.18,1.18,0,0,0,104,84h0a1.29,1.29,0,0,0,.33.93,2,2,0,0,0,.83.49,12,12,0,0,0,1.38.34h.07l.08,0,.1,0,.11,0a11.4,11.4,0,0,1,2.14.61,3.32,3.32,0,0,1,1.43,1.15,3.58,3.58,0,0,1,.58,2.17v0a3.91,3.91,0,0,1-.6,2.2,3.76,3.76,0,0,1-1.76,1.4,7.05,7.05,0,0,1-2.78.49A9.12,9.12,0,0,1,104,93.63Z"/><path class="cls-5" d="M115.06,93.24a3.93,3.93,0,0,1-1.68-1.72,5.8,5.8,0,0,1-.58-2.71V80.2h2.54v8.67a2.47,2.47,0,0,0,.62,1.8,2.74,2.74,0,0,0,3.52,0,2.44,2.44,0,0,0,.63-1.8V80.2h2.54v8.61a5.8,5.8,0,0,1-.58,2.71,4,4,0,0,1-1.69,1.72,6.29,6.29,0,0,1-5.32,0Z"/><path class="cls-5" d="M125.25,80.2h2.54V93.69h-2.54Zm1.11,11h4.31a2,2,0,0,0,1.35-.42,1.52,1.52,0,0,0,.48-1.19v0a1.64,1.64,0,0,0-.22-.88,1.39,1.39,0,0,0-.62-.55,2.33,2.33,0,0,0-1-.19h-4.31V85.54h4.31a1.73,1.73,0,0,0,1.22-.4,1.43,1.43,0,0,0,.43-1.12,1.24,1.24,0,0,0-.43-1,1.87,1.87,0,0,0-1.22-.36h-4.31V80.2h4.39a5.27,5.27,0,0,1,2.24.43,3.08,3.08,0,0,1,1.41,1.25,3.86,3.86,0,0,1,.48,2,3,3,0,0,1-.31,1.4,2.7,2.7,0,0,1-.9,1,3.87,3.87,0,0,1-1.43.53,3.57,3.57,0,0,1,1.52.54,2.71,2.71,0,0,1,1,1.1,3.52,3.52,0,0,1,.33,1.57v0a3.89,3.89,0,0,1-.49,2,3.18,3.18,0,0,1-1.42,1.26,5.42,5.42,0,0,1-2.24.43h-4.55Z"/><path class="cls-5" d="M135.66,80.2h9.89v2.45h-9.89Zm3.67,1.1h2.55V93.69h-2.55Z"/><path class="cls-5" d="M149.48,93.69h-2.63V80.2h2.63Z"/><path class="cls-5" d="M151.15,80.2H161v2.45h-9.89Zm3.68,1.1h2.54V93.69h-2.54Z"/><path class="cls-5" d="M162.53,80.2h2.54V93.69h-2.54Zm1.13,11h7.9v2.45h-7.9Z"/><path class="cls-5" d="M173.42,80.2H176V93.69h-2.54Zm.92,0h8.11v2.45h-8.11Zm0,5.56h7.09v2.45h-7.09Zm0,5.48h8.11v2.45h-8.11Z"/><path class="cls-5" d="M73.93,113.24a5.16,5.16,0,0,1-1.15-.37,5,5,0,0,1-1-.6l.78-1.39a3.86,3.86,0,0,0,1.2.65,4.36,4.36,0,0,0,1.39.23,2.43,2.43,0,0,0,1.28-.28.89.89,0,0,0,.45-.79h0a.76.76,0,0,0-.2-.57,1.26,1.26,0,0,0-.53-.31c-.22-.06-.49-.12-.84-.18h-.06l-.14,0a8.22,8.22,0,0,1-1.49-.35,2.15,2.15,0,0,1-1-.75,2.36,2.36,0,0,1-.41-1.51h0a2.84,2.84,0,0,1,.38-1.49,2.43,2.43,0,0,1,1.13-.93,4.35,4.35,0,0,1,1.78-.33,4.92,4.92,0,0,1,1,.11,5.9,5.9,0,0,1,1,.32,5.43,5.43,0,0,1,.91.51l-.72,1.43a4.27,4.27,0,0,0-1.08-.56,3.24,3.24,0,0,0-1.08-.19,2.32,2.32,0,0,0-1.19.25.79.79,0,0,0-.43.72h0a.84.84,0,0,0,.22.62,1.22,1.22,0,0,0,.55.32,8.66,8.66,0,0,0,.92.23h.09l.08,0,.07,0a7.13,7.13,0,0,1,1.41.4,2.19,2.19,0,0,1,1,.76,2.37,2.37,0,0,1,.39,1.44h0a2.63,2.63,0,0,1-.4,1.46,2.49,2.49,0,0,1-1.17.93,4.63,4.63,0,0,1-1.84.32A5.7,5.7,0,0,1,73.93,113.24Z"/><path class="cls-5" d="M81.25,113a2.55,2.55,0,0,1-1.11-1.14,3.8,3.8,0,0,1-.38-1.8v-5.7h1.68v5.75a1.65,1.65,0,0,0,.41,1.19,1.81,1.81,0,0,0,2.34,0,1.61,1.61,0,0,0,.41-1.19v-5.75h1.69V110a3.8,3.8,0,0,1-.39,1.8A2.57,2.57,0,0,1,84.78,113a3.66,3.66,0,0,1-1.76.39A3.73,3.73,0,0,1,81.25,113Z"/><path class="cls-5" d="M88,104.34H89.7v8.94H88Zm.74,7.32H91.6a1.35,1.35,0,0,0,.9-.28,1,1,0,0,0,.32-.79v0a1.15,1.15,0,0,0-.14-.57,1,1,0,0,0-.42-.37,1.62,1.62,0,0,0-.66-.13H88.75v-1.62H91.6a1.13,1.13,0,0,0,.81-.27,1,1,0,0,0,.29-.74.83.83,0,0,0-.29-.67,1.22,1.22,0,0,0-.81-.24H88.75v-1.62h2.91a3.49,3.49,0,0,1,1.48.28,2.12,2.12,0,0,1,.94.83,2.59,2.59,0,0,1,.32,1.31,2,2,0,0,1-.21.93,1.89,1.89,0,0,1-.6.66,2.45,2.45,0,0,1-.94.35,2.3,2.3,0,0,1,1,.36,1.81,1.81,0,0,1,.64.73,2.41,2.41,0,0,1,.22,1h0a2.49,2.49,0,0,1-.33,1.32,2.09,2.09,0,0,1-.94.84,3.52,3.52,0,0,1-1.48.28h-3Z"/><path class="cls-5" d="M94.91,104.34h6.56V106H94.91Zm2.44.73H99v8.21H97.35Z"/><path class="cls-5" d="M104.08,113.28h-1.75v-8.94h1.75Z"/><path class="cls-5" d="M105.19,104.34h6.56V106h-6.56Zm2.44.73h1.68v8.21h-1.68Z"/><path class="cls-5" d="M112.73,104.34h1.69v8.94h-1.69Zm.75,7.32h5.24v1.62h-5.24Z"/><path class="cls-5" d="M120,104.34h1.69v8.94H120Zm.61,0H126V106h-5.39Zm0,3.69h4.71v1.62h-4.71Zm0,3.63H126v1.62h-5.39Z"/><path class="cls-5" d="M134.25,113.28v2.32h-7.66v-2.32Z"/><path class="cls-5" d="M135.32,104.34H137v8.94h-1.69Zm.85,7.32h2.15a2,2,0,0,0,1.29-.4,1.45,1.45,0,0,0,.45-1.14v-2.63a1.43,1.43,0,0,0-.45-1.13,1.9,1.9,0,0,0-1.29-.4h-2.15v-1.62h2.11a4.4,4.4,0,0,1,1.91.37,2.7,2.7,0,0,1,1.21,1.1,3.46,3.46,0,0,1,.41,1.73v2.54a3.37,3.37,0,0,1-.4,1.68,2.7,2.7,0,0,1-1.19,1.12,4.22,4.22,0,0,1-1.94.4h-2.11Z"/><path class="cls-5" d="M143.47,104.34h1.69v8.94h-1.69Zm.61,0h5.38V106h-5.38Zm0,3.69h4.71v1.62h-4.71Zm0,3.63h5.38v1.62h-5.38Z"/><path class="cls-5" d="M152.56,113.24a5.33,5.33,0,0,1-1.15-.37,4.59,4.59,0,0,1-1-.6l.78-1.39a3.7,3.7,0,0,0,1.19.65,4.4,4.4,0,0,0,1.39.23,2.41,2.41,0,0,0,1.28-.28.88.88,0,0,0,.46-.79h0a.81.81,0,0,0-.2-.57,1.33,1.33,0,0,0-.53-.31q-.33-.09-.84-.18h-.07l-.13,0a8,8,0,0,1-1.49-.35,2.17,2.17,0,0,1-1-.75,2.42,2.42,0,0,1-.41-1.51h0a2.76,2.76,0,0,1,.39-1.49,2.38,2.38,0,0,1,1.13-.93,4.32,4.32,0,0,1,1.78-.33,4.75,4.75,0,0,1,1,.11,5.9,5.9,0,0,1,1,.32,5.06,5.06,0,0,1,.91.51l-.71,1.43a4.63,4.63,0,0,0-1.08-.56,3.33,3.33,0,0,0-1.08-.19,2.33,2.33,0,0,0-1.2.25.8.8,0,0,0-.42.72h0a.84.84,0,0,0,.22.62,1.18,1.18,0,0,0,.54.32,9.35,9.35,0,0,0,.92.23h.1l.07,0,.07,0a7.25,7.25,0,0,1,1.42.4,2.19,2.19,0,0,1,1,.76,2.44,2.44,0,0,1,.38,1.44h0a2.55,2.55,0,0,1-.4,1.46,2.46,2.46,0,0,1-1.16.93,4.68,4.68,0,0,1-1.85.32A5.83,5.83,0,0,1,152.56,113.24Z"/><path class="cls-5" d="M159.82,113a2.55,2.55,0,0,1-1.11-1.14,4,4,0,0,1-.38-1.8v-2.46a4,4,0,0,1,.38-1.8,2.55,2.55,0,0,1,1.11-1.14,3.61,3.61,0,0,1,1.74-.4,3,3,0,0,1,1.51.37,2.91,2.91,0,0,1,1.1,1,4.53,4.53,0,0,1,.6,1.67H163a2,2,0,0,0-.3-.75,1.52,1.52,0,0,0-.5-.48,1.23,1.23,0,0,0-.66-.17,1.55,1.55,0,0,0-.8.19,1.29,1.29,0,0,0-.51.57,2.05,2.05,0,0,0-.17.89V110a2,2,0,0,0,.17.89,1.26,1.26,0,0,0,.51.56,1.56,1.56,0,0,0,.8.2,1.36,1.36,0,0,0,.67-.17,1.32,1.32,0,0,0,.5-.47,2.36,2.36,0,0,0,.29-.76h1.75a4.6,4.6,0,0,1-.61,1.67,2.88,2.88,0,0,1-1.09,1.05,3.09,3.09,0,0,1-1.51.36A3.61,3.61,0,0,1,159.82,113Z"/><path class="cls-5" d="M166.19,104.33h1.68v9h-1.68Zm.67,3.73H170a.85.85,0,0,0,.45-.13.81.81,0,0,0,.31-.37,1.38,1.38,0,0,0,.11-.55,1.25,1.25,0,0,0-.11-.56.79.79,0,0,0-.76-.5h-3.11v-1.62h3.24a2.49,2.49,0,0,1,1.3.33,2.26,2.26,0,0,1,.87.94,3.34,3.34,0,0,1,0,2.81,2.26,2.26,0,0,1-.87.94,2.54,2.54,0,0,1-1.3.33h-3.24Zm1.88,1.35,1.8-.29,2.41,4.16h-2Z"/><path class="cls-5" d="M176,113.28h-1.75v-8.94H176Z"/><path class="cls-5" d="M177.87,104.34h1.68v8.94h-1.68Zm.77,3.85h2.86a1,1,0,0,0,.53-.14,1,1,0,0,0,.36-.39,1.21,1.21,0,0,0,.13-.58,1.25,1.25,0,0,0-.13-.59.89.89,0,0,0-.35-.39,1.09,1.09,0,0,0-.54-.14h-2.86v-1.62h2.82a3.07,3.07,0,0,1,1.47.34,2.47,2.47,0,0,1,1,1,2.9,2.9,0,0,1,.35,1.44,3,3,0,0,1-.35,1.44,2.45,2.45,0,0,1-1,1,3.07,3.07,0,0,1-1.47.34h-2.82Z"/><path class="cls-5" d="M185.22,104.34h6.56V106h-6.56Zm2.44.73h1.68v8.21h-1.68Z"/><path class="cls-5" d="M194.39,113.28h-1.75v-8.94h1.75Z"/><path class="cls-5" d="M197.6,113a2.89,2.89,0,0,1-1.15-1.15,3.59,3.59,0,0,1-.4-1.73v-2.54a3.56,3.56,0,0,1,.4-1.73,3,3,0,0,1,1.15-1.16,3.79,3.79,0,0,1,3.43,0,2.92,2.92,0,0,1,1.15,1.16,3.56,3.56,0,0,1,.4,1.73v2.54a3.59,3.59,0,0,1-.4,1.73A2.83,2.83,0,0,1,201,113a3.79,3.79,0,0,1-3.43,0Zm2.51-1.47a1.36,1.36,0,0,0,.54-.55,1.77,1.77,0,0,0,.18-.82V107.5a1.84,1.84,0,0,0-.18-.83,1.43,1.43,0,0,0-.54-.55,1.76,1.76,0,0,0-1.59,0,1.43,1.43,0,0,0-.54.55,1.84,1.84,0,0,0-.18.83v2.62a1.77,1.77,0,0,0,.18.82,1.36,1.36,0,0,0,.54.55,1.68,1.68,0,0,0,1.59,0Z"/><path class="cls-5" d="M204.24,104.34h2.06l3.33,6.85-.14.16v-7h1.61v8.93H209l-3.31-6.74.15-.16v6.9h-1.62Z"/><rect class="cls-6" x="72.69" y="125.57" width="42.39" height="16.51" rx="3.69"/><path class="cls-3" d="M82.16,135.47a.47.47,0,0,0,.14.38.53.53,0,0,0,.39.13H83v1.7h-.9a1.65,1.65,0,0,1-1.25-.47,1.83,1.83,0,0,1-.44-1.3v-7.57h1.76Z"/><path class="cls-3" d="M84.35,137.26a2.08,2.08,0,0,1-.53-1.55,1.8,1.8,0,0,1,.6-1.48,2.72,2.72,0,0,1,1.78-.5h1.67l.09,1.34H86.2a1,1,0,0,0-.59.16.6.6,0,0,0-.2.48.54.54,0,0,0,.25.49,1.52,1.52,0,0,0,.76.15,2.56,2.56,0,0,0,1-.16.52.52,0,0,0,.34-.5l.14,1a.92.92,0,0,1-.34.61,1.87,1.87,0,0,1-.73.38,3.48,3.48,0,0,1-.93.12A2.24,2.24,0,0,1,84.35,137.26Zm3.46-3.81a.84.84,0,0,0-.31-.71,1.31,1.31,0,0,0-.87-.25,2.34,2.34,0,0,0-.74.12,2.12,2.12,0,0,0-.65.34l-1.09-1.07a2.54,2.54,0,0,1,1-.71,4,4,0,0,1,1.45-.26,3.58,3.58,0,0,1,1.5.29,2.16,2.16,0,0,1,.94.85,2.68,2.68,0,0,1,.32,1.34v4.29h-1.6Z"/><path class="cls-3" d="M91.15,128.34H92.9v9.34H91.15Zm2.29,9.13a1.8,1.8,0,0,1-.63-.84l.09-1.52a1.25,1.25,0,0,0,.12.56.82.82,0,0,0,.34.35,1.09,1.09,0,0,0,.53.12.94.94,0,0,0,.77-.33,1.4,1.4,0,0,0,.27-.92v-1.06a1.49,1.49,0,0,0-.27-1,1,1,0,0,0-.77-.34,1.09,1.09,0,0,0-.53.13A.79.79,0,0,0,93,133a1.28,1.28,0,0,0-.12.58l-.13-1.48a2.25,2.25,0,0,1,.71-.9,1.63,1.63,0,0,1,1-.32,2.15,2.15,0,0,1,1.21.34,2.07,2.07,0,0,1,.77,1,4.13,4.13,0,0,1,.26,1.57v1.07a4,4,0,0,1-.26,1.56,2,2,0,0,1-2,1.32A1.72,1.72,0,0,1,93.44,137.47Z"/><path class="cls-3" d="M99.51,137.42a2.38,2.38,0,0,1-1-1,3.39,3.39,0,0,1-.36-1.61V134a3.8,3.8,0,0,1,.34-1.69,2.39,2.39,0,0,1,1-1.06,3.17,3.17,0,0,1,1.59-.37,2.56,2.56,0,0,1,1.5.44,2.72,2.72,0,0,1,.95,1.27,5.63,5.63,0,0,1,.32,2v.44H99.25v-1.19h3l0-.15a1.52,1.52,0,0,0-.37-.89,1,1,0,0,0-.78-.32,1.27,1.27,0,0,0-1,.38,1.49,1.49,0,0,0-.35,1.07v.85a1.35,1.35,0,0,0,.38,1.05,1.46,1.46,0,0,0,1.07.38,1.93,1.93,0,0,0,.7-.13,2.16,2.16,0,0,0,.63-.35l1.15,1a4,4,0,0,1-1.17.73,3.36,3.36,0,0,1-1.31.26A3.53,3.53,0,0,1,99.51,137.42Z"/><path class="cls-3" d="M107.11,135.47a.51.51,0,0,0,.14.38.55.55,0,0,0,.4.13h.29v1.7H107a1.63,1.63,0,0,1-1.24-.47,1.79,1.79,0,0,1-.45-1.3v-7.57h1.76Z"/><rect class="cls-7" x="120.6" y="125.57" width="42.39" height="16.51" rx="3.69"/><path class="cls-3" d="M130.07,135.47a.51.51,0,0,0,.14.38.53.53,0,0,0,.39.13h.3v1.7H130a1.65,1.65,0,0,1-1.25-.47,1.83,1.83,0,0,1-.44-1.3v-7.57h1.76Z"/><path class="cls-3" d="M132.26,137.26a2.08,2.08,0,0,1-.53-1.55,1.8,1.8,0,0,1,.6-1.48,2.72,2.72,0,0,1,1.78-.5h1.67l.09,1.34h-1.75a1,1,0,0,0-.6.16.6.6,0,0,0-.2.48.54.54,0,0,0,.25.49,1.52,1.52,0,0,0,.76.15,2.56,2.56,0,0,0,1-.16.52.52,0,0,0,.34-.5l.14,1a1,1,0,0,1-.33.61,2,2,0,0,1-.74.38,3.46,3.46,0,0,1-.92.12A2.25,2.25,0,0,1,132.26,137.26Zm3.46-3.81a.84.84,0,0,0-.31-.71,1.31,1.31,0,0,0-.87-.25,2.39,2.39,0,0,0-.74.12,2.12,2.12,0,0,0-.65.34l-1.09-1.07a2.54,2.54,0,0,1,1.05-.71,4,4,0,0,1,1.46-.26,3.53,3.53,0,0,1,1.49.29,2.16,2.16,0,0,1,.94.85,2.68,2.68,0,0,1,.32,1.34v4.29h-1.6Z"/><path class="cls-3" d="M139.06,128.34h1.76v9.34h-1.76Zm2.3,9.13a1.68,1.68,0,0,1-.63-.84l.09-1.52a1.25,1.25,0,0,0,.11.56.82.82,0,0,0,.34.35,1.13,1.13,0,0,0,.54.12.92.92,0,0,0,.76-.33,1.35,1.35,0,0,0,.28-.92v-1.06a1.44,1.44,0,0,0-.28-1,.93.93,0,0,0-.76-.34,1.13,1.13,0,0,0-.54.13.79.79,0,0,0-.34.36,1.28,1.28,0,0,0-.11.58l-.14-1.48a2.25,2.25,0,0,1,.71-.9,1.66,1.66,0,0,1,1-.32,2.19,2.19,0,0,1,1.22.34,2.11,2.11,0,0,1,.76,1,4.12,4.12,0,0,1,.27,1.57v1.07a4,4,0,0,1-.27,1.56,2,2,0,0,1-2,1.32A1.69,1.69,0,0,1,141.36,137.47Z"/><path class="cls-3" d="M147.42,137.42a2.38,2.38,0,0,1-1-1,3.39,3.39,0,0,1-.36-1.61V134a3.8,3.8,0,0,1,.34-1.69,2.41,2.41,0,0,1,1-1.06,3.12,3.12,0,0,1,1.59-.37,2.52,2.52,0,0,1,1.49.44,2.66,2.66,0,0,1,1,1.27,5.41,5.41,0,0,1,.32,2v.44h-4.56v-1.19h3l0-.15a1.58,1.58,0,0,0-.36-.89,1,1,0,0,0-.78-.32,1.28,1.28,0,0,0-1,.38,1.53,1.53,0,0,0-.35,1.07v.85a1.39,1.39,0,0,0,.38,1.05,1.47,1.47,0,0,0,1.07.38,1.89,1.89,0,0,0,.7-.13,2.16,2.16,0,0,0,.63-.35l1.15,1a4,4,0,0,1-1.17.73,3.36,3.36,0,0,1-1.31.26A3.53,3.53,0,0,1,147.42,137.42Z"/><path class="cls-3" d="M155,135.47a.51.51,0,0,0,.14.38.57.57,0,0,0,.4.13h.29v1.7H155a1.63,1.63,0,0,1-1.24-.47,1.78,1.78,0,0,1-.44-1.3v-7.57H155Z"/><rect class="cls-8" x="168.39" y="125.57" width="42.39" height="16.51" rx="3.69"/><path class="cls-3" d="M177.86,135.47a.47.47,0,0,0,.14.38.53.53,0,0,0,.39.13h.3v1.7h-.9a1.65,1.65,0,0,1-1.25-.47,1.83,1.83,0,0,1-.44-1.3v-7.57h1.76Z"/><path class="cls-3" d="M180.05,137.26a2.08,2.08,0,0,1-.53-1.55,1.8,1.8,0,0,1,.6-1.48,2.72,2.72,0,0,1,1.78-.5h1.67l.09,1.34H181.9a1,1,0,0,0-.59.16.6.6,0,0,0-.2.48.54.54,0,0,0,.25.49,1.52,1.52,0,0,0,.76.15,2.56,2.56,0,0,0,1-.16.52.52,0,0,0,.34-.5l.14,1a.92.92,0,0,1-.34.61,1.87,1.87,0,0,1-.73.38,3.48,3.48,0,0,1-.93.12A2.24,2.24,0,0,1,180.05,137.26Zm3.46-3.81a.84.84,0,0,0-.31-.71,1.31,1.31,0,0,0-.87-.25,2.34,2.34,0,0,0-.74.12,2.12,2.12,0,0,0-.65.34l-1.09-1.07a2.54,2.54,0,0,1,1.05-.71,4,4,0,0,1,1.45-.26,3.58,3.58,0,0,1,1.5.29,2.16,2.16,0,0,1,.94.85,2.68,2.68,0,0,1,.32,1.34v4.29h-1.6Z"/><path class="cls-3" d="M186.85,128.34h1.75v9.34h-1.75Zm2.3,9.13a1.68,1.68,0,0,1-.63-.84l.08-1.52a1.25,1.25,0,0,0,.12.56.82.82,0,0,0,.34.35,1.09,1.09,0,0,0,.53.12.94.94,0,0,0,.77-.33,1.4,1.4,0,0,0,.28-.92v-1.06a1.49,1.49,0,0,0-.28-1,1,1,0,0,0-.77-.34,1.09,1.09,0,0,0-.53.13.79.79,0,0,0-.34.36,1.28,1.28,0,0,0-.12.58l-.13-1.48a2.25,2.25,0,0,1,.71-.9,1.63,1.63,0,0,1,1-.32,2.15,2.15,0,0,1,1.21.34,2.07,2.07,0,0,1,.77,1,4.12,4.12,0,0,1,.27,1.57v1.07a4,4,0,0,1-.27,1.56,2,2,0,0,1-2,1.32A1.67,1.67,0,0,1,189.15,137.47Z"/><path class="cls-3" d="M195.21,137.42a2.38,2.38,0,0,1-1-1,3.39,3.39,0,0,1-.36-1.61V134a3.8,3.8,0,0,1,.34-1.69,2.39,2.39,0,0,1,1-1.06,3.17,3.17,0,0,1,1.59-.37,2.56,2.56,0,0,1,1.5.44,2.72,2.72,0,0,1,.95,1.27,5.63,5.63,0,0,1,.32,2v.44H195v-1.19h3l0-.15a1.52,1.52,0,0,0-.37-.89,1,1,0,0,0-.78-.32,1.27,1.27,0,0,0-1,.38,1.49,1.49,0,0,0-.35,1.07v.85a1.35,1.35,0,0,0,.38,1.05,1.46,1.46,0,0,0,1.07.38,1.93,1.93,0,0,0,.7-.13,2.16,2.16,0,0,0,.63-.35l1.15,1a4,4,0,0,1-1.17.73,3.36,3.36,0,0,1-1.31.26A3.53,3.53,0,0,1,195.21,137.42Z"/><path class="cls-3" d="M202.81,135.47a.51.51,0,0,0,.14.38.55.55,0,0,0,.4.13h.29v1.7h-.9a1.63,1.63,0,0,1-1.24-.47,1.79,1.79,0,0,1-.45-1.3v-7.57h1.76Z"/><path class="cls-5" d="M85.31,176.07h2.53v13.42H85.31Zm1.28,11h3.22a2.8,2.8,0,0,0,1.92-.6,2.12,2.12,0,0,0,.69-1.7V180.8a2.12,2.12,0,0,0-.69-1.69,2.8,2.8,0,0,0-1.92-.6H86.59v-2.44h3.16a6.74,6.74,0,0,1,2.87.56,4,4,0,0,1,1.8,1.65,5.16,5.16,0,0,1,.62,2.6v3.8a5.12,5.12,0,0,1-.6,2.53,4,4,0,0,1-1.78,1.68,6.47,6.47,0,0,1-2.92.6H86.59Z"/><path class="cls-5" d="M97.53,176.07h2.53v13.42H97.53Zm.91,0h8.08v2.44H98.44Zm0,5.54h7.06V184H98.44Zm0,5.44h8.08v2.44H98.44Z"/><path class="cls-5" d="M111.17,189.43a8,8,0,0,1-1.73-.56A6.5,6.5,0,0,1,108,188l1.17-2.09a5.55,5.55,0,0,0,1.79,1,6.44,6.44,0,0,0,2.08.35,3.65,3.65,0,0,0,1.92-.42,1.32,1.32,0,0,0,.69-1.19h0a1.12,1.12,0,0,0-.31-.84,1.83,1.83,0,0,0-.79-.47,11.84,11.84,0,0,0-1.26-.26h-.1l-.2,0a12.45,12.45,0,0,1-2.23-.53,3.25,3.25,0,0,1-1.51-1.12,3.62,3.62,0,0,1-.62-2.26h0a4.18,4.18,0,0,1,.58-2.23,3.68,3.68,0,0,1,1.69-1.4,6.55,6.55,0,0,1,2.68-.49,6.84,6.84,0,0,1,1.47.17,7.89,7.89,0,0,1,1.47.48,8.65,8.65,0,0,1,1.37.75l-1.07,2.15a6.54,6.54,0,0,0-1.62-.83,4.81,4.81,0,0,0-1.62-.3,3.55,3.55,0,0,0-1.8.38,1.2,1.2,0,0,0-.64,1.08h0a1.23,1.23,0,0,0,.34.92,2,2,0,0,0,.82.49c.32.1.78.21,1.37.33l.08,0h.07l.11,0,.1,0a10.63,10.63,0,0,1,2.13.6,3.34,3.34,0,0,1,1.42,1.14,3.57,3.57,0,0,1,.58,2.16v0a3.9,3.9,0,0,1-.6,2.19,3.79,3.79,0,0,1-1.75,1.4,7.19,7.19,0,0,1-2.77.48A8.93,8.93,0,0,1,111.17,189.43Z"/><path class="cls-5" d="M122.05,189a3.87,3.87,0,0,1-1.66-1.71,5.88,5.88,0,0,1-.57-2.7v-3.69a6,6,0,0,1,.57-2.71,4,4,0,0,1,1.66-1.71,5.48,5.48,0,0,1,2.62-.59,4.56,4.56,0,0,1,2.26.55,4.38,4.38,0,0,1,1.65,1.58,7,7,0,0,1,.9,2.5h-2.62a3.31,3.31,0,0,0-.46-1.13,2.15,2.15,0,0,0-.75-.72,1.91,1.91,0,0,0-1-.25,2.41,2.41,0,0,0-1.21.29,2,2,0,0,0-.76.85,3.2,3.2,0,0,0-.26,1.34v3.69a3.15,3.15,0,0,0,.26,1.33,2,2,0,0,0,.76.85,2.41,2.41,0,0,0,1.21.29,2,2,0,0,0,1-.25,2.2,2.2,0,0,0,.75-.71,3.33,3.33,0,0,0,.44-1.15h2.62a7,7,0,0,1-.91,2.51,4.42,4.42,0,0,1-1.64,1.58,4.56,4.56,0,0,1-2.26.55A5.48,5.48,0,0,1,122.05,189Z"/><path class="cls-5" d="M131.6,176.06h2.53v13.43H131.6Zm1,5.59h4.67a1.2,1.2,0,0,0,.68-.19,1.25,1.25,0,0,0,.46-.55,2.36,2.36,0,0,0,.17-.83,2.08,2.08,0,0,0-.16-.83,1.28,1.28,0,0,0-.46-.56,1.23,1.23,0,0,0-.69-.19h-4.67v-2.44h4.87a3.77,3.77,0,0,1,2,.5,3.35,3.35,0,0,1,1.3,1.41,5,5,0,0,1,0,4.21,3.31,3.31,0,0,1-1.31,1.41,3.76,3.76,0,0,1-1.94.5h-4.87Zm2.82,2,2.71-.42,3.61,6.24h-3.06Z"/><path class="cls-5" d="M146.36,189.49h-2.62V176.07h2.62Z"/><path class="cls-5" d="M149.13,176.07h2.53v13.42h-2.53Zm1.15,5.78h4.29a1.52,1.52,0,0,0,.8-.21,1.41,1.41,0,0,0,.54-.59,1.84,1.84,0,0,0,.19-.86,1.87,1.87,0,0,0-.19-.88,1.35,1.35,0,0,0-.53-.6,1.62,1.62,0,0,0-.81-.2h-4.29v-2.44h4.23a4.65,4.65,0,0,1,2.21.51A3.69,3.69,0,0,1,158.2,178a4.65,4.65,0,0,1,0,4.31,3.66,3.66,0,0,1-1.48,1.44,4.77,4.77,0,0,1-2.21.5h-4.23Z"/><path class="cls-5" d="M160.15,176.07H170v2.44h-9.84Zm3.66,1.1h2.53v12.32h-2.53Z"/><path class="cls-5" d="M173.91,189.49h-2.63V176.07h2.63Z"/><path class="cls-5" d="M178.73,189a4.22,4.22,0,0,1-1.72-1.73,5.31,5.31,0,0,1-.61-2.6v-3.8a5.31,5.31,0,0,1,.61-2.6,4.22,4.22,0,0,1,1.72-1.73,5.64,5.64,0,0,1,5.14,0,4.28,4.28,0,0,1,1.72,1.73,5.43,5.43,0,0,1,.61,2.6v3.8a5.43,5.43,0,0,1-.61,2.6,4.28,4.28,0,0,1-1.72,1.73,5.64,5.64,0,0,1-5.14,0Zm3.77-2.2a2.06,2.06,0,0,0,.8-.83,2.72,2.72,0,0,0,.28-1.23v-3.94a2.69,2.69,0,0,0-.28-1.23,2.06,2.06,0,0,0-.8-.83,2.48,2.48,0,0,0-1.2-.29,2.42,2.42,0,0,0-1.2.29,2,2,0,0,0-.8.83,2.57,2.57,0,0,0-.28,1.23v3.94a2.59,2.59,0,0,0,.28,1.23,2,2,0,0,0,.8.83,2.42,2.42,0,0,0,1.2.29A2.48,2.48,0,0,0,182.5,186.81Z"/><path class="cls-5" d="M188.69,176.07h3.09l5,10.28-.22.24V176.07H199v13.41h-3.11l-5-10.12.22-.24v10.36h-2.42Z"/><path class="cls-3" d="M27.05,240H257.23a12.46,12.46,0,0,1,12.46,12.46V419a0,0,0,0,1,0,0H14.59a0,0,0,0,1,0,0V252.45A12.46,12.46,0,0,1,27.05,240Z"/><path class="cls-5" d="M125.28,267.86a10.51,10.51,0,0,1-2.28-.75,8.93,8.93,0,0,1-1.91-1.19l1.55-2.76a7.55,7.55,0,0,0,2.37,1.3,8.58,8.58,0,0,0,2.76.45,4.82,4.82,0,0,0,2.53-.55,1.73,1.73,0,0,0,.91-1.57h0a1.56,1.56,0,0,0-.4-1.12,2.39,2.39,0,0,0-1.05-.62,16.61,16.61,0,0,0-1.66-.35H128l-.27,0a16.7,16.7,0,0,1-3-.7,4.36,4.36,0,0,1-2-1.48,4.76,4.76,0,0,1-.82-3h0a5.41,5.41,0,0,1,.77-2.94,4.9,4.9,0,0,1,2.23-1.86,9.59,9.59,0,0,1,5.49-.42,10.8,10.8,0,0,1,2,.63,11.3,11.3,0,0,1,1.8,1l-1.41,2.83a9.2,9.2,0,0,0-2.14-1.09,6.53,6.53,0,0,0-2.15-.39,4.63,4.63,0,0,0-2.38.5,1.58,1.58,0,0,0-.84,1.42v0a1.66,1.66,0,0,0,.44,1.21,2.51,2.51,0,0,0,1.09.65,15.31,15.31,0,0,0,1.82.44l.09,0,.1,0,.14,0,.14,0a15.43,15.43,0,0,1,2.82.8,4.36,4.36,0,0,1,1.88,1.51,4.76,4.76,0,0,1,.76,2.86v0a5.14,5.14,0,0,1-.8,2.9,4.9,4.9,0,0,1-2.31,1.85,9.5,9.5,0,0,1-3.65.63A12.09,12.09,0,0,1,125.28,267.86Z"/><path class="cls-5" d="M137.15,250.18h3.35v3.35h-3.35Zm0,5.08h3.35v12.67h-3.35Z"/><path class="cls-5" d="M142.63,255.26h6.21v2.86h-6.21Zm2.09,11.88a3.58,3.58,0,0,1-.78-2.51V251.57h3.34V263.8a1.23,1.23,0,0,0,.19.72.64.64,0,0,0,.54.25h.83V268h-1.69A3.11,3.11,0,0,1,144.72,267.14Z"/><path class="cls-5" d="M154.07,267.45a4.6,4.6,0,0,1-2-1.94,6.5,6.5,0,0,1-.68-3.07V261a7.26,7.26,0,0,1,.65-3.21,4.58,4.58,0,0,1,1.91-2,6.16,6.16,0,0,1,3-.69,4.78,4.78,0,0,1,2.84.83,5.05,5.05,0,0,1,1.8,2.41,10.49,10.49,0,0,1,.62,3.81V263h-8.67V260.7h5.62l0-.29a3,3,0,0,0-.69-1.7,1.91,1.91,0,0,0-1.48-.59,2.47,2.47,0,0,0-1.88.71,2.94,2.94,0,0,0-.66,2v1.62a2.68,2.68,0,0,0,.72,2,2.83,2.83,0,0,0,2,.71,3.85,3.85,0,0,0,1.33-.24,4,4,0,0,0,1.19-.68l2.19,1.94a7.38,7.38,0,0,1-2.22,1.4,6.61,6.61,0,0,1-2.49.49A6.83,6.83,0,0,1,154.07,267.45Z"/><path class="cls-9" d="M28.13,276.66H255.56a4.38,4.38,0,0,1,4.38,4.38V419a0,0,0,0,1,0,0H23.75a0,0,0,0,1,0,0V281A4.38,4.38,0,0,1,28.13,276.66Z"/><path class="cls-3" d="M58.28,336.65h6v32h-6ZM61,350.41H71.25a3.73,3.73,0,0,0,1.9-.49,3.47,3.47,0,0,0,1.28-1.4,4.44,4.44,0,0,0,.46-2.07,4.63,4.63,0,0,0-.45-2.09A3.29,3.29,0,0,0,73.17,343a3.66,3.66,0,0,0-1.92-.49H61v-5.81H71.09a11,11,0,0,1,5.26,1.22,8.67,8.67,0,0,1,3.53,3.44,11.17,11.17,0,0,1,0,10.27A8.5,8.5,0,0,1,76.35,355a11,11,0,0,1-5.26,1.21H61Z"/><path class="cls-3" d="M91.66,368.6H85.42v-32h6.24Z"/><path class="cls-3" d="M102.91,367.54a9.33,9.33,0,0,1-4-4.07A14.16,14.16,0,0,1,97.59,357v-8.76A14.16,14.16,0,0,1,99,341.81a9.4,9.4,0,0,1,4-4.08,12.9,12.9,0,0,1,6.24-1.4,11.06,11.06,0,0,1,5.38,1.29,10.62,10.62,0,0,1,3.92,3.77,16.25,16.25,0,0,1,2.15,6h-6.24a8.26,8.26,0,0,0-1.09-2.7,5.17,5.17,0,0,0-1.78-1.71,4.63,4.63,0,0,0-2.34-.6,5.64,5.64,0,0,0-2.88.7,4.46,4.46,0,0,0-1.81,2,7.42,7.42,0,0,0-.63,3.2V357a7.35,7.35,0,0,0,.63,3.19,4.49,4.49,0,0,0,1.81,2,5.63,5.63,0,0,0,2.88.69,4.78,4.78,0,0,0,2.37-.58,5,5,0,0,0,1.78-1.7,7.83,7.83,0,0,0,1.06-2.73h6.24a16.43,16.43,0,0,1-2.17,6,10.6,10.6,0,0,1-3.91,3.77,11,11,0,0,1-5.37,1.29A13,13,0,0,1,102.91,367.54Z"/><path class="cls-3" d="M121.7,336.65h23.42v5.81H121.7Zm8.7,2.62h6V368.6h-6Z"/><path class="cls-3" d="M152.66,367.54a9.26,9.26,0,0,1-4-4.07,14,14,0,0,1-1.36-6.43V336.65h6V357.2a5.86,5.86,0,0,0,1.47,4.26A5.51,5.51,0,0,0,159,363a5.61,5.61,0,0,0,4.19-1.52,5.83,5.83,0,0,0,1.48-4.26V336.65h6V357a14,14,0,0,1-1.37,6.43,9.36,9.36,0,0,1-4,4.07,15,15,0,0,1-12.62,0Z"/><path class="cls-3" d="M176.8,336.63h6v32h-6ZM179.2,350h11.12a3,3,0,0,0,1.62-.46,3,3,0,0,0,1.09-1.32,5.06,5.06,0,0,0,.41-2,4.73,4.73,0,0,0-.39-2,2.86,2.86,0,0,0-2.73-1.78H179.2v-5.8h11.6a9,9,0,0,1,4.64,1.19,8,8,0,0,1,3.09,3.35,12,12,0,0,1,0,10,8,8,0,0,1-3.1,3.35,9,9,0,0,1-4.63,1.19H179.2Zm6.72,4.81,6.44-1L201,368.6h-7.29Z"/><path class="cls-3" d="M206.14,336.65h6v32h-6Zm2.17,0h19.23v5.81H208.31Zm0,13.19h16.81v5.8H208.31Zm0,13h19.23v5.8H208.31Z"/><rect class="cls-8" x="168.5" y="251.6" width="42.39" height="16.51" rx="3.69"/><path class="cls-3" d="M178,261.5a.48.48,0,0,0,.14.37.54.54,0,0,0,.4.14h.29v1.69h-.9a1.62,1.62,0,0,1-1.24-.46,1.8,1.8,0,0,1-.45-1.31v-7.57H178Z"/><path class="cls-3" d="M180.17,263.29a2,2,0,0,1-.53-1.55,1.82,1.82,0,0,1,.59-1.49,2.74,2.74,0,0,1,1.78-.49h1.67l.09,1.34H182a.93.93,0,0,0-.6.16.57.57,0,0,0-.2.48.54.54,0,0,0,.25.48,1.41,1.41,0,0,0,.76.16,2.74,2.74,0,0,0,1.05-.16.54.54,0,0,0,.35-.5l.13,1a1,1,0,0,1-.33.61,2,2,0,0,1-.73.37,3.22,3.22,0,0,1-.93.13A2.21,2.21,0,0,1,180.17,263.29Zm3.46-3.82a.89.89,0,0,0-.31-.71,1.36,1.36,0,0,0-.88-.25,2.39,2.39,0,0,0-.74.12,2.17,2.17,0,0,0-.64.34L180,257.9a2.71,2.71,0,0,1,1.06-.71,3.94,3.94,0,0,1,1.45-.25,3.53,3.53,0,0,1,1.49.29,2.1,2.1,0,0,1,.94.85,2.56,2.56,0,0,1,.33,1.34v4.28h-1.6Z"/><path class="cls-3" d="M187,254.36h1.76v9.34H187Zm2.3,9.14a1.78,1.78,0,0,1-.63-.85l.09-1.52a1.33,1.33,0,0,0,.11.56.82.82,0,0,0,.34.35,1.13,1.13,0,0,0,.54.13,1,1,0,0,0,.77-.33,1.43,1.43,0,0,0,.27-.93v-1.06a1.46,1.46,0,0,0-.27-.94.93.93,0,0,0-.77-.34,1.13,1.13,0,0,0-.54.12.87.87,0,0,0-.34.37,1.41,1.41,0,0,0-.11.57l-.14-1.47a2.25,2.25,0,0,1,.71-.9,1.6,1.6,0,0,1,1-.32,2.1,2.1,0,0,1,1.21.34,2.16,2.16,0,0,1,.77,1,4.35,4.35,0,0,1,.26,1.58v1.06a4.24,4.24,0,0,1-.26,1.56,2.22,2.22,0,0,1-.77,1,2.18,2.18,0,0,1-1.21.34A1.7,1.7,0,0,1,189.26,263.5Z"/><path class="cls-3" d="M195.33,263.45a2.46,2.46,0,0,1-1.05-1,3.4,3.4,0,0,1-.36-1.62v-.75a3.8,3.8,0,0,1,.35-1.69,2.36,2.36,0,0,1,1-1.07,3.28,3.28,0,0,1,1.59-.36,2.52,2.52,0,0,1,1.49.43,2.69,2.69,0,0,1,1,1.27,5.5,5.5,0,0,1,.33,2v.44h-4.57V259.9h3l0-.16a1.61,1.61,0,0,0-.36-.89,1,1,0,0,0-.78-.31,1.25,1.25,0,0,0-1,.38,1.53,1.53,0,0,0-.35,1.07v.85a1.42,1.42,0,0,0,.38,1.05,1.48,1.48,0,0,0,1.07.37,2.1,2.1,0,0,0,.7-.12,2.45,2.45,0,0,0,.63-.36l1.15,1a3.75,3.75,0,0,1-1.17.74,3.73,3.73,0,0,1-2.95-.09Z"/><path class="cls-3" d="M202.93,261.5a.48.48,0,0,0,.13.37.57.57,0,0,0,.4.14h.3v1.69h-.9a1.65,1.65,0,0,1-1.25-.46,1.79,1.79,0,0,1-.44-1.31v-7.57h1.76Z"/><line class="cls-10" x1="14.62" y1="48.84" x2="30.43" y2="48.84"/><line class="cls-10" x1="14.62" y1="54.28" x2="30.43" y2="54.28"/><line class="cls-10" x1="14.62" y1="59.72" x2="30.43" y2="59.72"/></svg>