<svg id="Layer_1" data-name="Layer 1" xmlns="http://www.w3.org/2000/svg" viewBox="0 0 510.24 425.2"><defs><style>.cls-1{fill:#e5e5e5;stroke-width:1.42px;}.cls-1,.cls-3,.cls-4,.cls-7{stroke:#231f20;stroke-miterlimit:10;}.cls-2{fill:#465055;}.cls-3,.cls-7{fill:none;}.cls-3{stroke-width:1.39px;}.cls-4,.cls-8{fill:#231f20;}.cls-4{stroke-width:1.35px;}.cls-5{fill:#fff;}.cls-6{fill:#00a651;}.cls-7{stroke-width:1.43px;}.cls-9{fill:#939598;}.cls-10{fill:#3c8dbc;}.cls-11{fill:#ec2027;}.cls-12{fill:#00a658;}.cls-13{fill:#78797a;}</style></defs><rect class="cls-1" x="117.52" y="35.86" width="388.05" height="385.19" rx="9.98"/><rect class="cls-2" x="38.56" y="367.4" width="86.46" height="53.65"/><rect class="cls-2" x="5.94" y="29.41" width="119.09" height="391.64" rx="9.68"/><rect class="cls-3" x="5.94" y="4.95" width="499.63" height="416.1" rx="9.77"/><rect class="cls-4" x="5.94" y="4.95" width="499.63" height="37.2"/><path class="cls-5" d="M23.74,14.56H39.36v3.87H23.74Zm5.8,1.75h4V35.86h-4Z"/><path class="cls-5" d="M45.57,35.86H41.41V14.56h4.16Z"/><path class="cls-5" d="M48.21,14.56H63.82v3.87H48.21ZM54,16.31h4V35.86H54Z"/><path class="cls-5" d="M66.17,14.56h4v21.3h-4ZM68,32H80.43v3.87H68Z"/><path class="cls-5" d="M83.36,14.56h4v21.3h-4Zm1.45,0H97.63v3.87H84.81Zm0,8.79H96v3.87H84.81Zm0,8.64H97.63v3.87H84.81Z"/><rect class="cls-6" x="410.09" y="10.01" width="88.48" height="25.85" rx="6.67"/><path class="cls-5" d="M425.64,29.22a7.88,7.88,0,0,1-1.7-.56,6.2,6.2,0,0,1-1.42-.89l1.15-2.05a5.62,5.62,0,0,0,1.77,1,6.53,6.53,0,0,0,2.05.34,3.59,3.59,0,0,0,1.9-.42,1.28,1.28,0,0,0,.67-1.17h0a1.15,1.15,0,0,0-.3-.84,1.78,1.78,0,0,0-.78-.46,11.34,11.34,0,0,0-1.24-.26h-.1l-.2,0a12.13,12.13,0,0,1-2.2-.52,3.33,3.33,0,0,1-1.49-1.1,3.61,3.61,0,0,1-.61-2.23h0a4.07,4.07,0,0,1,.58-2.2,3.61,3.61,0,0,1,1.66-1.38,7.18,7.18,0,0,1,4.09-.32,7.47,7.47,0,0,1,1.45.48,7.35,7.35,0,0,1,1.35.74l-1,2.11a7.13,7.13,0,0,0-1.6-.82,5,5,0,0,0-1.6-.29,3.47,3.47,0,0,0-1.77.38,1.18,1.18,0,0,0-.63,1.06h0a1.26,1.26,0,0,0,.33.91,1.94,1.94,0,0,0,.81.48q.48.15,1.35.33h.08l.07,0,.1,0,.11,0a11.19,11.19,0,0,1,2.1.6,3.25,3.25,0,0,1,1.4,1.13,3.49,3.49,0,0,1,.57,2.12v0a3.8,3.8,0,0,1-.6,2.16,3.67,3.67,0,0,1-1.72,1.38,7.18,7.18,0,0,1-2.73.47A8.8,8.8,0,0,1,425.64,29.22Z"/><path class="cls-5" d="M436.48,28.83a3.73,3.73,0,0,1-1.65-1.68,5.74,5.74,0,0,1-.57-2.66V16h2.5v8.51a2.43,2.43,0,0,0,.61,1.77,2.27,2.27,0,0,0,1.72.63,2.31,2.31,0,0,0,1.73-.63,2.43,2.43,0,0,0,.61-1.77V16h2.5v8.45a5.74,5.74,0,0,1-.57,2.66,3.8,3.8,0,0,1-1.66,1.68,6.16,6.16,0,0,1-5.22,0Z"/><path class="cls-5" d="M446.48,16H449V29.28h-2.49Zm1.09,10.83h4.22a1.9,1.9,0,0,0,1.32-.41,1.45,1.45,0,0,0,.47-1.16v0a1.62,1.62,0,0,0-.21-.85,1.29,1.29,0,0,0-.61-.54,2.21,2.21,0,0,0-1-.19h-4.22v-2.4h4.22a1.7,1.7,0,0,0,1.2-.39,1.45,1.45,0,0,0,.42-1.11,1.23,1.23,0,0,0-.42-1,1.85,1.85,0,0,0-1.2-.35h-4.22V16h4.3a5.23,5.23,0,0,1,2.2.43,3.07,3.07,0,0,1,1.38,1.23,3.78,3.78,0,0,1,.47,1.93,3,3,0,0,1-.3,1.37,2.61,2.61,0,0,1-.89,1,3.71,3.71,0,0,1-1.4.52,3.53,3.53,0,0,1,1.5.53,2.65,2.65,0,0,1,.94,1.08,3.39,3.39,0,0,1,.32,1.54v0a3.76,3.76,0,0,1-.47,1.95,3.06,3.06,0,0,1-1.4,1.23,5.18,5.18,0,0,1-2.19.43h-4.46Z"/><path class="cls-5" d="M466.83,16h3.29V29.28h-2.27V19l.09.58-2.53,8.22h-2.2l-2.53-8,.09-.77V29.28h-2.26V16h3.28L464.31,25Z"/><path class="cls-5" d="M475.43,29.28h-2.58V16h2.58Z"/><path class="cls-5" d="M477.07,16h9.7v2.41h-9.7Zm3.6,1.09h2.5V29.28h-2.5Z"/><line class="cls-7" x1="125.03" y1="42.15" x2="125.03" y2="421.05"/><path class="cls-5" d="M26.57,63.48a2.73,2.73,0,0,1-1.15-1.18A4.1,4.1,0,0,1,25,60.43V57.89A4.13,4.13,0,0,1,25.42,56a2.79,2.79,0,0,1,1.15-1.18,3.78,3.78,0,0,1,1.81-.41,3.22,3.22,0,0,1,1.56.38,3,3,0,0,1,1.14,1.09,4.85,4.85,0,0,1,.62,1.73H29.89a2.21,2.21,0,0,0-.32-.78,1.52,1.52,0,0,0-.51-.5,1.4,1.4,0,0,0-.68-.17,1.62,1.62,0,0,0-.83.2A1.27,1.27,0,0,0,27,57a2.13,2.13,0,0,0-.18.92v2.54a2.2,2.2,0,0,0,.18.93,1.3,1.3,0,0,0,.53.58,1.62,1.62,0,0,0,.83.2,1.44,1.44,0,0,0,.69-.17,1.49,1.49,0,0,0,.51-.49,2.25,2.25,0,0,0,.31-.79H31.7a4.86,4.86,0,0,1-.63,1.73,3.1,3.1,0,0,1-1.13,1.09,3.22,3.22,0,0,1-1.56.38A3.78,3.78,0,0,1,26.57,63.48Z"/><path class="cls-5" d="M35.56,54.53h1.11l3.54,9.26H38.33l-2.22-6.32L33.9,63.79H32Zm-1.84,6.09h4.87v1.69H33.72Z"/><path class="cls-5" d="M47.18,54.53h2.3v9.26H47.9V56.6L48,57l-1.77,5.75H44.65l-1.77-5.63.06-.53v7.19H41.36V54.53h2.3l1.76,6.24Z"/><path class="cls-5" d="M51.52,54.53h1.75v9.26H51.52Zm.63,0h5.58v1.68H52.15Zm0,3.82H57V60H52.15Zm0,3.76h5.58v1.68H52.15Z"/><path class="cls-5" d="M59.32,54.52h1.74v9.27H59.32ZM60,58.38h3.23a.85.85,0,0,0,.47-.13.9.9,0,0,0,.31-.38,1.34,1.34,0,0,0,.12-.58,1.48,1.48,0,0,0-.11-.57.86.86,0,0,0-.32-.38.82.82,0,0,0-.47-.14H60V54.52h3.37a2.57,2.57,0,0,1,1.34.35,2.28,2.28,0,0,1,.9,1,3.47,3.47,0,0,1,0,2.91,2.35,2.35,0,0,1-.9,1,2.59,2.59,0,0,1-1.34.34H60Zm2,1.4,1.87-.3,2.49,4.31H64.21Z"/><path class="cls-5" d="M70.15,54.53h1.11l3.54,9.26H72.92l-2.21-6.32-2.22,6.32H66.61Zm-1.84,6.09h4.88v1.69H68.31Z"/><path class="cls-5" d="M77.05,63.75a5.92,5.92,0,0,1-1.19-.39,4.49,4.49,0,0,1-1-.62l.81-1.44a3.86,3.86,0,0,0,1.23.68,4.44,4.44,0,0,0,1.44.24,2.6,2.6,0,0,0,1.33-.29.93.93,0,0,0,.47-.82h0a.79.79,0,0,0-.21-.58,1.25,1.25,0,0,0-.55-.32,7,7,0,0,0-.87-.19h-.07l-.14,0a9.54,9.54,0,0,1-1.54-.36,2.32,2.32,0,0,1-1-.78,2.5,2.5,0,0,1-.42-1.56h0a2.79,2.79,0,0,1,.4-1.53,2.48,2.48,0,0,1,1.16-1,4.5,4.5,0,0,1,1.85-.34,4.57,4.57,0,0,1,1,.12,4.77,4.77,0,0,1,1,.33,5.84,5.84,0,0,1,1,.52L81,56.88a4.39,4.39,0,0,0-1.12-.57,3.3,3.3,0,0,0-1.12-.21,2.38,2.38,0,0,0-1.24.27.82.82,0,0,0-.44.74h0a.89.89,0,0,0,.23.63,1.39,1.39,0,0,0,.56.34c.23.07.55.15,1,.23H79l.07,0a6.89,6.89,0,0,1,1.47.42,2.2,2.2,0,0,1,1,.79,2.43,2.43,0,0,1,.4,1.48v0a2.73,2.73,0,0,1-.41,1.51,2.6,2.6,0,0,1-1.21,1,4.8,4.8,0,0,1-1.91.34A6.31,6.31,0,0,1,77.05,63.75Z"/><path class="cls-5" d="M27.87,83.21H29l3.54,9.26H30.64l-2.22-6.33-2.21,6.33H24.33ZM26,89.3H30.9V91H26Z"/><path class="cls-5" d="M33.67,83.21h1.74v9.26H33.67Zm.76,7.58h3a1.33,1.33,0,0,0,.92-.29,1,1,0,0,0,.33-.82v0a1.2,1.2,0,0,0-.14-.59.93.93,0,0,0-.43-.38,1.59,1.59,0,0,0-.68-.13h-3V86.87h3a1.17,1.17,0,0,0,.83-.27,1,1,0,0,0,.3-.77.83.83,0,0,0-.3-.69,1.21,1.21,0,0,0-.83-.25h-3V83.21h3A3.62,3.62,0,0,1,39,83.5a2.2,2.2,0,0,1,1,.86,2.66,2.66,0,0,1,.33,1.36,2,2,0,0,1-.21,1,1.81,1.81,0,0,1-.63.69,2.38,2.38,0,0,1-1,.36,2.57,2.57,0,0,1,1,.37,1.93,1.93,0,0,1,.66.76,2.45,2.45,0,0,1,.23,1.08h0a2.67,2.67,0,0,1-.33,1.37,2.17,2.17,0,0,1-1,.86,3.62,3.62,0,0,1-1.54.3H34.43Z"/><path class="cls-5" d="M43.31,92.14a2.9,2.9,0,0,1-1.18-1.2,3.67,3.67,0,0,1-.42-1.79V86.52a3.7,3.7,0,0,1,.42-1.79,3,3,0,0,1,1.18-1.2,3.69,3.69,0,0,1,1.78-.42,3.62,3.62,0,0,1,1.77.42,3.05,3.05,0,0,1,1.19,1.2,3.7,3.7,0,0,1,.42,1.79v2.63a3.67,3.67,0,0,1-.42,1.79,2.93,2.93,0,0,1-1.19,1.2,3.62,3.62,0,0,1-1.77.42A3.69,3.69,0,0,1,43.31,92.14Zm2.61-1.52a1.51,1.51,0,0,0,.55-.57,1.82,1.82,0,0,0,.19-.86V86.48a1.78,1.78,0,0,0-.19-.85,1.38,1.38,0,0,0-.55-.57,1.62,1.62,0,0,0-.83-.2,1.6,1.6,0,0,0-.83.2,1.32,1.32,0,0,0-.55.57,1.78,1.78,0,0,0-.19.85v2.71a1.82,1.82,0,0,0,.19.86,1.44,1.44,0,0,0,.55.57,1.7,1.7,0,0,0,.83.2A1.73,1.73,0,0,0,45.92,90.62Z"/><path class="cls-5" d="M51.48,92.16A2.68,2.68,0,0,1,50.33,91a4.12,4.12,0,0,1-.39-1.86V83.21h1.74v6a1.7,1.7,0,0,0,.43,1.24,1.59,1.59,0,0,0,1.2.44,1.62,1.62,0,0,0,1.21-.44A1.71,1.71,0,0,0,55,89.16v-6H56.7v5.91A4,4,0,0,1,56.3,91a2.65,2.65,0,0,1-1.16,1.18,4.39,4.39,0,0,1-3.66,0Z"/><path class="cls-5" d="M57.34,83.21h6.79v1.68H57.34Zm2.52.75H61.6v8.51H59.86Z"/><path class="cls-5" d="M31.05,111.88h2.3v9.26H31.76V114l.07.41-1.77,5.75H28.51l-1.77-5.62.07-.54v7.19H25.22v-9.26h2.3l1.76,6.24Z"/><path class="cls-5" d="M36.8,120.82a3,3,0,0,1-1.18-1.2,3.73,3.73,0,0,1-.42-1.79V115.2a3.67,3.67,0,0,1,.42-1.79,2.9,2.9,0,0,1,1.18-1.2,3.69,3.69,0,0,1,1.78-.42,3.62,3.62,0,0,1,1.77.42,2.93,2.93,0,0,1,1.19,1.2A3.67,3.67,0,0,1,42,115.2v2.63a3.73,3.73,0,0,1-.42,1.79,3.05,3.05,0,0,1-1.19,1.2,3.62,3.62,0,0,1-1.77.42A3.69,3.69,0,0,1,36.8,120.82Zm2.61-1.53a1.38,1.38,0,0,0,.55-.57,1.78,1.78,0,0,0,.19-.85v-2.71a1.82,1.82,0,0,0-.19-.86,1.51,1.51,0,0,0-.55-.57,1.73,1.73,0,0,0-.83-.2,1.7,1.7,0,0,0-.83.2,1.44,1.44,0,0,0-.55.57,1.82,1.82,0,0,0-.2.86v2.71a1.78,1.78,0,0,0,.2.85,1.32,1.32,0,0,0,.55.57,1.6,1.6,0,0,0,.83.2A1.62,1.62,0,0,0,39.41,119.29Z"/><path class="cls-5" d="M43.68,111.88h1.75v9.26H43.68Zm.88,7.58h2.22a2,2,0,0,0,1.33-.41,1.47,1.47,0,0,0,.47-1.17v-2.73a1.45,1.45,0,0,0-.47-1.17,1.91,1.91,0,0,0-1.33-.42H44.56v-1.68h2.18a4.54,4.54,0,0,1,2,.39A2.81,2.81,0,0,1,50,113.4a3.63,3.63,0,0,1,.42,1.8v2.63a3.5,3.5,0,0,1-.41,1.74,2.77,2.77,0,0,1-1.23,1.16,4.39,4.39,0,0,1-2,.41H44.56Z"/><path class="cls-5" d="M52.11,111.88h1.75v9.26H52.11Zm.63,0h5.58v1.68H52.74Zm0,3.82h4.88v1.69H52.74Zm0,3.76h5.58v1.68H52.74Z"/><path class="cls-5" d="M59.91,111.88h1.75v9.26H59.91Zm.78,7.58h5.42v1.68H60.69Z"/><path class="cls-5" d="M26.57,149.51a2.73,2.73,0,0,1-1.15-1.18,4.1,4.1,0,0,1-.39-1.87v-2.54a4.13,4.13,0,0,1,.39-1.87,2.79,2.79,0,0,1,1.15-1.18,3.78,3.78,0,0,1,1.81-.41,3.22,3.22,0,0,1,1.56.38,3,3,0,0,1,1.14,1.09,4.85,4.85,0,0,1,.62,1.73H29.89a2.21,2.21,0,0,0-.32-.78,1.52,1.52,0,0,0-.51-.5,1.4,1.4,0,0,0-.68-.17,1.62,1.62,0,0,0-.83.2A1.27,1.27,0,0,0,27,143a2.13,2.13,0,0,0-.18.92v2.54a2.2,2.2,0,0,0,.18.93,1.3,1.3,0,0,0,.53.58,1.62,1.62,0,0,0,.83.2,1.44,1.44,0,0,0,.69-.17,1.4,1.4,0,0,0,.51-.49,2.25,2.25,0,0,0,.31-.79H31.7a4.86,4.86,0,0,1-.63,1.73,3.1,3.1,0,0,1-1.13,1.09,3.22,3.22,0,0,1-1.56.38A3.78,3.78,0,0,1,26.57,149.51Z"/><path class="cls-5" d="M34.45,149.49a2.94,2.94,0,0,1-1.18-1.19,3.74,3.74,0,0,1-.42-1.8v-2.62a3.74,3.74,0,0,1,.42-1.8,2.94,2.94,0,0,1,1.18-1.19,3.58,3.58,0,0,1,1.78-.43,3.52,3.52,0,0,1,1.77.43,3,3,0,0,1,1.19,1.19,3.74,3.74,0,0,1,.42,1.8v2.62a3.74,3.74,0,0,1-.42,1.8A3,3,0,0,1,38,149.49a3.52,3.52,0,0,1-1.77.43A3.58,3.58,0,0,1,34.45,149.49ZM37.06,148a1.38,1.38,0,0,0,.55-.57,1.8,1.8,0,0,0,.19-.85v-2.72a1.8,1.8,0,0,0-.19-.85,1.38,1.38,0,0,0-.55-.57,1.73,1.73,0,0,0-.83-.2,1.7,1.7,0,0,0-.83.2,1.32,1.32,0,0,0-.55.57,1.81,1.81,0,0,0-.2.85v2.72a1.81,1.81,0,0,0,.2.85,1.32,1.32,0,0,0,.55.57,1.7,1.7,0,0,0,.83.2A1.73,1.73,0,0,0,37.06,148Z"/><path class="cls-5" d="M41.33,140.56h2.13l3.45,7.1-.15.16v-7.26h1.67v9.25H46.28l-3.43-7,.15-.17v7.15H41.33Z"/><path class="cls-5" d="M49.7,140.56h6.79v1.68H49.7Zm2.52.76H54v8.5H52.22Z"/><path class="cls-5" d="M59.59,140.56h1.1l3.55,9.26H62.36l-2.22-6.32-2.22,6.32H56Zm-1.85,6.09h4.88v1.69H57.74Z"/><path class="cls-5" d="M66.22,149.51a2.66,2.66,0,0,1-1.14-1.18,4,4,0,0,1-.4-1.87v-2.54a4,4,0,0,1,.4-1.87,2.71,2.71,0,0,1,1.14-1.18,3.78,3.78,0,0,1,1.81-.41,3.22,3.22,0,0,1,1.56.38,3,3,0,0,1,1.14,1.09,4.67,4.67,0,0,1,.62,1.73H69.54a2.4,2.4,0,0,0-.31-.78,1.64,1.64,0,0,0-.52-.5,1.4,1.4,0,0,0-.68-.17,1.67,1.67,0,0,0-.83.2,1.27,1.27,0,0,0-.53.59,2.13,2.13,0,0,0-.18.92v2.54a2.2,2.2,0,0,0,.18.93,1.3,1.3,0,0,0,.53.58,1.67,1.67,0,0,0,.83.2,1.41,1.41,0,0,0,.69-.17,1.43,1.43,0,0,0,.52-.49,2.24,2.24,0,0,0,.3-.79h1.81a4.86,4.86,0,0,1-.63,1.73,3,3,0,0,1-1.13,1.09,3.22,3.22,0,0,1-1.56.38A3.78,3.78,0,0,1,66.22,149.51Z"/><path class="cls-5" d="M71.67,140.56h6.79v1.68H71.67Zm2.52.76h1.75v8.5H74.19Z"/><rect class="cls-5" x="131.27" y="46" width="367.29" height="90.45" rx="10.63"/><path class="cls-8" d="M157.65,70.52a8.07,8.07,0,0,1-1.74-.57,6.81,6.81,0,0,1-1.45-.9l1.18-2.1a5.62,5.62,0,0,0,1.8,1,6.52,6.52,0,0,0,2.1.35,3.63,3.63,0,0,0,1.93-.43,1.32,1.32,0,0,0,.68-1.19h0a1.18,1.18,0,0,0-.3-.85,1.76,1.76,0,0,0-.8-.46,9.58,9.58,0,0,0-1.26-.27h-.11l-.2,0a12.58,12.58,0,0,1-2.24-.53,3.35,3.35,0,0,1-1.52-1.13,3.65,3.65,0,0,1-.62-2.27h0a4.11,4.11,0,0,1,.59-2.24,3.64,3.64,0,0,1,1.69-1.41,6.63,6.63,0,0,1,2.69-.49,6.29,6.29,0,0,1,1.48.17,7.75,7.75,0,0,1,1.48.48,8.06,8.06,0,0,1,1.38.76l-1.08,2.15a6.78,6.78,0,0,0-1.63-.83,4.86,4.86,0,0,0-1.63-.3,3.44,3.44,0,0,0-1.8.39,1.19,1.19,0,0,0-.65,1.08h0a1.29,1.29,0,0,0,.34.93,2,2,0,0,0,.82.49,12.31,12.31,0,0,0,1.39.34h.07l.08,0,.1,0,.11,0a11.4,11.4,0,0,1,2.14.61,3.32,3.32,0,0,1,1.43,1.15,3.65,3.65,0,0,1,.58,2.17v0a3.92,3.92,0,0,1-.61,2.2,3.71,3.71,0,0,1-1.76,1.4,7,7,0,0,1-2.77.49A9,9,0,0,1,157.65,70.52Z"/><path class="cls-8" d="M168.69,70.13A4,4,0,0,1,167,68.41a5.93,5.93,0,0,1-.57-2.71V57.09H169v8.67a2.47,2.47,0,0,0,.62,1.8,2.74,2.74,0,0,0,3.52,0,2.44,2.44,0,0,0,.63-1.8V57.09h2.54V65.7a5.8,5.8,0,0,1-.58,2.71A4,4,0,0,1,174,70.13a6.31,6.31,0,0,1-5.33,0Z"/><path class="cls-8" d="M178.89,57.09h2.54V70.58h-2.54Zm1.11,11h4.31a2,2,0,0,0,1.35-.42,1.51,1.51,0,0,0,.47-1.19v0a1.74,1.74,0,0,0-.21-.88,1.36,1.36,0,0,0-.63-.55,2.26,2.26,0,0,0-1-.19H180V62.43h4.31a1.73,1.73,0,0,0,1.22-.4,1.47,1.47,0,0,0,.43-1.12,1.27,1.27,0,0,0-.43-1,1.87,1.87,0,0,0-1.22-.36H180V57.09h4.39a5.27,5.27,0,0,1,2.24.43A3.24,3.24,0,0,1,188,58.77a3.86,3.86,0,0,1,.48,2,3,3,0,0,1-.31,1.4,2.64,2.64,0,0,1-.91,1,3.74,3.74,0,0,1-1.43.53,3.57,3.57,0,0,1,1.53.54,2.78,2.78,0,0,1,1,1.1,3.67,3.67,0,0,1,.32,1.57v0a3.88,3.88,0,0,1-.48,2,3.18,3.18,0,0,1-1.42,1.26,5.42,5.42,0,0,1-2.24.43H180Z"/><path class="cls-8" d="M189.3,57.09h9.89v2.45H189.3Zm3.67,1.1h2.54V70.58H193Z"/><path class="cls-8" d="M203.12,70.58h-2.63V57.09h2.63Z"/><path class="cls-8" d="M204.79,57.09h9.89v2.45h-9.89Zm3.67,1.1H211V70.58h-2.55Z"/><path class="cls-8" d="M216.17,57.09h2.54V70.58h-2.54Zm1.13,11h7.9v2.45h-7.9Z"/><path class="cls-8" d="M227.06,57.09h2.54V70.58h-2.54Zm.92,0h8.11v2.45H228Zm0,5.56h7.09V65.1H228Zm0,5.48h8.11v2.45H228Z"/><path class="cls-8" d="M156.36,92.57a5.75,5.75,0,0,1-1.15-.38,5,5,0,0,1-1-.6L155,90.2a3.86,3.86,0,0,0,1.2.65,4.1,4.1,0,0,0,1.39.23,2.43,2.43,0,0,0,1.28-.28.87.87,0,0,0,.45-.79h0a.76.76,0,0,0-.2-.57,1.26,1.26,0,0,0-.53-.31,7.22,7.22,0,0,0-.84-.17h-.06l-.14,0a8.22,8.22,0,0,1-1.49-.35,2.19,2.19,0,0,1-1-.74,2.4,2.4,0,0,1-.41-1.51h0a2.78,2.78,0,0,1,.38-1.48,2.45,2.45,0,0,1,1.13-.94,4.36,4.36,0,0,1,1.78-.32,4.29,4.29,0,0,1,1,.11,5.1,5.1,0,0,1,1,.32,5.37,5.37,0,0,1,.91.5l-.72,1.43a4.24,4.24,0,0,0-1.08-.55,3,3,0,0,0-1.08-.2,2.32,2.32,0,0,0-1.19.25.79.79,0,0,0-.43.72h0a.83.83,0,0,0,.22.61,1.33,1.33,0,0,0,.55.33,9.1,9.1,0,0,0,.92.22h.17l.07,0a7.13,7.13,0,0,1,1.41.4,2.19,2.19,0,0,1,.95.76A2.37,2.37,0,0,1,161,90h0a2.69,2.69,0,0,1-.4,1.47,2.62,2.62,0,0,1-1.17.93,4.81,4.81,0,0,1-1.84.32A6.38,6.38,0,0,1,156.36,92.57Z"/><path class="cls-8" d="M163.68,92.31a2.55,2.55,0,0,1-1.11-1.14,3.86,3.86,0,0,1-.38-1.8V83.66h1.68v5.75a1.65,1.65,0,0,0,.41,1.19,1.81,1.81,0,0,0,2.34,0,1.61,1.61,0,0,0,.41-1.19V83.66h1.69v5.71a3.86,3.86,0,0,1-.39,1.8,2.52,2.52,0,0,1-1.12,1.14,3.66,3.66,0,0,1-1.76.39A3.73,3.73,0,0,1,163.68,92.31Z"/><path class="cls-8" d="M170.44,83.66h1.69V92.6h-1.69Zm.74,7.32H174a1.29,1.29,0,0,0,.9-.28,1,1,0,0,0,.32-.78v0a1.16,1.16,0,0,0-.14-.58,1,1,0,0,0-.42-.37,1.62,1.62,0,0,0-.66-.12h-2.85V87.2H174a1.18,1.18,0,0,0,.81-.26,1,1,0,0,0,.29-.75.84.84,0,0,0-.29-.67,1.22,1.22,0,0,0-.81-.24h-2.85V83.66h2.91a3.49,3.49,0,0,1,1.48.28,2.14,2.14,0,0,1,.94.84,2.53,2.53,0,0,1,.32,1.3,2,2,0,0,1-.21.93,1.73,1.73,0,0,1-.6.66,2.44,2.44,0,0,1-1,.35,2.3,2.3,0,0,1,1,.36,1.88,1.88,0,0,1,.64.73,2.44,2.44,0,0,1,.21,1v0a2.47,2.47,0,0,1-.32,1.31,2,2,0,0,1-.94.84,3.54,3.54,0,0,1-1.49.28h-3Z"/><path class="cls-8" d="M177.34,83.66h6.56v1.62h-6.56Zm2.44.73h1.69V92.6h-1.69Z"/><path class="cls-8" d="M186.51,92.6h-1.75V83.66h1.75Z"/><path class="cls-8" d="M187.62,83.66h6.56v1.62h-6.56Zm2.44.73h1.68V92.6h-1.68Z"/><path class="cls-8" d="M195.16,83.66h1.69V92.6h-1.69Zm.75,7.32h5.24V92.6h-5.24Z"/><path class="cls-8" d="M202.38,83.66h1.69V92.6h-1.69Zm.61,0h5.39v1.62H203Zm0,3.69h4.71V89H203ZM203,91h5.39V92.6H203Z"/><path class="cls-8" d="M216.68,92.6v2.32H209V92.6Z"/><path class="cls-8" d="M217.75,83.66h1.69V92.6h-1.69ZM218.6,91h2.15a1.9,1.9,0,0,0,1.29-.4,1.43,1.43,0,0,0,.45-1.13V86.81a1.45,1.45,0,0,0-.45-1.13,2,2,0,0,0-1.29-.4H218.6V83.66h2.11a4.4,4.4,0,0,1,1.91.37,2.7,2.7,0,0,1,1.21,1.1,3.49,3.49,0,0,1,.41,1.73V89.4a3.37,3.37,0,0,1-.4,1.68,2.64,2.64,0,0,1-1.19,1.12,4.22,4.22,0,0,1-1.94.4H218.6Z"/><path class="cls-8" d="M225.9,83.66h1.69V92.6H225.9Zm.61,0h5.38v1.62h-5.38Zm0,3.69h4.71V89h-4.71Zm0,3.63h5.38V92.6h-5.38Z"/><path class="cls-8" d="M235,92.57a6,6,0,0,1-1.15-.38,4.59,4.59,0,0,1-1-.6l.78-1.39a3.7,3.7,0,0,0,1.19.65,4.14,4.14,0,0,0,1.39.23,2.41,2.41,0,0,0,1.28-.28A.86.86,0,0,0,238,90h0a.77.77,0,0,0-.21-.57,1.23,1.23,0,0,0-.52-.31,7.22,7.22,0,0,0-.84-.17h-.07l-.13,0a8,8,0,0,1-1.49-.35,2.22,2.22,0,0,1-1-.74,2.46,2.46,0,0,1-.41-1.51h0a2.7,2.7,0,0,1,.39-1.48,2.4,2.4,0,0,1,1.13-.94,4.32,4.32,0,0,1,1.78-.32,4.15,4.15,0,0,1,1,.11,4.88,4.88,0,0,1,1,.32,5,5,0,0,1,.91.5l-.71,1.43a4.59,4.59,0,0,0-1.08-.55,3.1,3.1,0,0,0-1.08-.2,2.33,2.33,0,0,0-1.2.25.8.8,0,0,0-.42.72h0a.83.83,0,0,0,.22.61,1.29,1.29,0,0,0,.54.33c.22.07.53.14.92.22h.17l.07,0a7.25,7.25,0,0,1,1.42.4,2.19,2.19,0,0,1,1,.76,2.44,2.44,0,0,1,.38,1.44h0a2.43,2.43,0,0,1-1.56,2.4,4.9,4.9,0,0,1-1.85.32A6.55,6.55,0,0,1,235,92.57Z"/><path class="cls-8" d="M242.25,92.31a2.55,2.55,0,0,1-1.11-1.14,4,4,0,0,1-.38-1.81V86.91a4,4,0,0,1,.38-1.81A2.55,2.55,0,0,1,242.25,84a3.62,3.62,0,0,1,1.75-.39,3.08,3.08,0,0,1,1.5.36,2.91,2.91,0,0,1,1.1,1,4.59,4.59,0,0,1,.6,1.67h-1.75a2.11,2.11,0,0,0-.3-.75,1.52,1.52,0,0,0-.5-.48,1.29,1.29,0,0,0-.65-.17,1.57,1.57,0,0,0-.81.2,1.26,1.26,0,0,0-.51.56,2.07,2.07,0,0,0-.17.9v2.45a2,2,0,0,0,.17.89,1.29,1.29,0,0,0,.51.57A1.57,1.57,0,0,0,244,91a1.34,1.34,0,0,0,.66-.16,1.43,1.43,0,0,0,.5-.48,2.27,2.27,0,0,0,.29-.76h1.75a4.53,4.53,0,0,1-.61,1.67,2.88,2.88,0,0,1-1.09,1,3,3,0,0,1-1.5.37A3.62,3.62,0,0,1,242.25,92.31Z"/><path class="cls-8" d="M248.62,83.65h1.68V92.6h-1.68Zm.67,3.73h3.11a.77.77,0,0,0,.45-.13.76.76,0,0,0,.31-.37,1.35,1.35,0,0,0,.11-.55,1.43,1.43,0,0,0-.1-.56.85.85,0,0,0-.31-.36.78.78,0,0,0-.46-.13h-3.11V83.65h3.24a2.49,2.49,0,0,1,1.3.33,2.32,2.32,0,0,1,.87.94,3.18,3.18,0,0,1,.31,1.41,3.1,3.1,0,0,1-.31,1.4,2.26,2.26,0,0,1-.87.94,2.54,2.54,0,0,1-1.3.33h-3.24Zm1.88,1.35,1.8-.29,2.41,4.16h-2Z"/><path class="cls-8" d="M258.45,92.6h-1.74V83.66h1.74Z"/><path class="cls-8" d="M260.3,83.66H262V92.6H260.3Zm.77,3.85h2.86a1,1,0,0,0,.53-.14,1,1,0,0,0,.36-.39,1.21,1.21,0,0,0,.13-.58,1.28,1.28,0,0,0-.13-.59.89.89,0,0,0-.35-.39,1.09,1.09,0,0,0-.54-.14h-2.86V83.66h2.82a3.07,3.07,0,0,1,1.47.34,2.54,2.54,0,0,1,1,1,3,3,0,0,1,.35,1.44,2.9,2.9,0,0,1-.35,1.44,2.54,2.54,0,0,1-1,1,3.18,3.18,0,0,1-1.47.33h-2.82Z"/><path class="cls-8" d="M267.65,83.66h6.56v1.62h-6.56Zm2.44.73h1.68V92.6h-1.68Z"/><path class="cls-8" d="M276.82,92.6h-1.75V83.66h1.75Z"/><path class="cls-8" d="M280,92.29a3,3,0,0,1-1.15-1.16,3.59,3.59,0,0,1-.4-1.73V86.86a3.59,3.59,0,0,1,.4-1.73A2.89,2.89,0,0,1,280,84a3.79,3.79,0,0,1,3.43,0,2.83,2.83,0,0,1,1.15,1.15,3.59,3.59,0,0,1,.4,1.73V89.4a3.59,3.59,0,0,1-.4,1.73,2.92,2.92,0,0,1-1.15,1.16,3.79,3.79,0,0,1-3.43,0Zm2.51-1.47a1.43,1.43,0,0,0,.54-.55,1.84,1.84,0,0,0,.18-.83V86.82a1.77,1.77,0,0,0-.18-.82,1.36,1.36,0,0,0-.54-.55,1.68,1.68,0,0,0-1.59,0,1.36,1.36,0,0,0-.54.55,1.77,1.77,0,0,0-.18.82v2.62a1.84,1.84,0,0,0,.18.83,1.43,1.43,0,0,0,.54.55,1.76,1.76,0,0,0,1.59,0Z"/><path class="cls-8" d="M286.67,83.66h2.06l3.33,6.85-.14.16v-7h1.61V92.6h-2.08l-3.31-6.75.15-.16V92.6h-1.62Z"/><path class="cls-8" d="M354.15,79.19h2.53V92.6h-2.53Zm1.27,11h3.22a2.82,2.82,0,0,0,1.93-.6,2.13,2.13,0,0,0,.68-1.7v-4a2.13,2.13,0,0,0-.68-1.7,2.82,2.82,0,0,0-1.93-.6h-3.22V79.19h3.17a6.54,6.54,0,0,1,2.86.56,4,4,0,0,1,1.81,1.64,5.18,5.18,0,0,1,.61,2.6V87.8a5.1,5.1,0,0,1-.59,2.52A4.05,4.05,0,0,1,361.49,92a6.39,6.39,0,0,1-2.91.6h-3.16Z"/><path class="cls-8" d="M366.37,79.19h2.52V92.6h-2.52Zm.91,0h8.07v2.43h-8.07Zm0,5.53h7.06v2.44h-7.06Zm0,5.45h8.07V92.6h-8.07Z"/><path class="cls-8" d="M380,92.55a7.89,7.89,0,0,1-1.72-.57,6.81,6.81,0,0,1-1.45-.9L378,89a5.86,5.86,0,0,0,1.79,1,6.49,6.49,0,0,0,2.09.34,3.7,3.7,0,0,0,1.92-.42,1.32,1.32,0,0,0,.68-1.18h0a1.18,1.18,0,0,0-.3-.85,1.86,1.86,0,0,0-.8-.46,9,9,0,0,0-1.25-.27H382l-.21,0a12.58,12.58,0,0,1-2.23-.54,3.25,3.25,0,0,1-1.5-1.11,3.59,3.59,0,0,1-.62-2.27h0a4.06,4.06,0,0,1,.58-2.22,3.64,3.64,0,0,1,1.69-1.41,6.72,6.72,0,0,1,2.68-.48,7,7,0,0,1,1.47.16,8,8,0,0,1,2.83,1.24l-1.07,2.14a6.54,6.54,0,0,0-1.62-.83,4.77,4.77,0,0,0-1.61-.29,3.44,3.44,0,0,0-1.8.38,1.18,1.18,0,0,0-.64,1.07h0a1.25,1.25,0,0,0,.33.92,1.9,1.9,0,0,0,.82.49,12.61,12.61,0,0,0,1.38.34h.14l.11,0,.11,0a12,12,0,0,1,2.12.6,3.32,3.32,0,0,1,1.43,1.15,3.61,3.61,0,0,1,.57,2.15v0a3.91,3.91,0,0,1-.6,2.2,3.72,3.72,0,0,1-1.75,1.39,7.1,7.1,0,0,1-2.76.48A9,9,0,0,1,380,92.55Z"/><path class="cls-8" d="M390.89,92.16a3.94,3.94,0,0,1-1.67-1.71,5.93,5.93,0,0,1-.57-2.71V84.06a5.93,5.93,0,0,1,.57-2.71,3.94,3.94,0,0,1,1.67-1.71,5.34,5.34,0,0,1,2.62-.59,4.69,4.69,0,0,1,2.26.54,4.61,4.61,0,0,1,1.65,1.58,7,7,0,0,1,.9,2.51h-2.63a3.44,3.44,0,0,0-.45-1.14,2.2,2.2,0,0,0-.75-.71,1.91,1.91,0,0,0-1-.25,2.28,2.28,0,0,0-1.21.29,1.81,1.81,0,0,0-.76.85,3,3,0,0,0-.27,1.34v3.68a3,3,0,0,0,.27,1.34,1.83,1.83,0,0,0,.76.84,2.28,2.28,0,0,0,1.21.29,2,2,0,0,0,1-.24,2,2,0,0,0,.75-.72,3.27,3.27,0,0,0,.44-1.14h2.63a7.23,7.23,0,0,1-.91,2.51,4.4,4.4,0,0,1-3.9,2.12A5.45,5.45,0,0,1,390.89,92.16Z"/><path class="cls-8" d="M400.44,79.18H403V92.6h-2.53Zm1,5.59h4.67a1.32,1.32,0,0,0,.69-.19,1.26,1.26,0,0,0,.45-.56,2.17,2.17,0,0,0,0-1.66,1.25,1.25,0,0,0-.46-.55,1.19,1.19,0,0,0-.69-.2h-4.67V79.18h4.88a3.76,3.76,0,0,1,1.94.49,3.41,3.41,0,0,1,1.3,1.41,5,5,0,0,1,0,4.22,3.35,3.35,0,0,1-1.3,1.41,3.76,3.76,0,0,1-1.94.5h-4.88Zm2.83,2,2.7-.42,3.62,6.23h-3.06Z"/><path class="cls-8" d="M415.19,92.6h-2.62V79.19h2.62Z"/><path class="cls-8" d="M418,79.19h2.53V92.6H418ZM419.12,85h4.29a1.61,1.61,0,0,0,.8-.2,1.47,1.47,0,0,0,.54-.59,1.86,1.86,0,0,0,.19-.87,1.93,1.93,0,0,0-.19-.88,1.4,1.4,0,0,0-.54-.59,1.52,1.52,0,0,0-.8-.21h-4.29V79.19h4.22a4.59,4.59,0,0,1,2.21.51A3.6,3.6,0,0,1,427,81.14a4.67,4.67,0,0,1,0,4.32,3.64,3.64,0,0,1-1.48,1.43,4.59,4.59,0,0,1-2.21.51h-4.22Z"/><path class="cls-8" d="M429,79.19h9.84v2.43H429Zm3.65,1.09h2.53V92.6h-2.53Z"/><path class="cls-8" d="M442.74,92.6h-2.62V79.19h2.62Z"/><path class="cls-8" d="M447.56,92.13a4.3,4.3,0,0,1-1.72-1.74,5.39,5.39,0,0,1-.61-2.59V84a5.39,5.39,0,0,1,.61-2.59,4.3,4.3,0,0,1,1.72-1.74,5.72,5.72,0,0,1,5.14,0,4.24,4.24,0,0,1,1.72,1.74A5.27,5.27,0,0,1,455,84V87.8a5.27,5.27,0,0,1-.61,2.59,4.24,4.24,0,0,1-1.72,1.74,5.72,5.72,0,0,1-5.14,0Zm3.77-2.21a2,2,0,0,0,.8-.82,2.61,2.61,0,0,0,.28-1.24V83.93a2.61,2.61,0,0,0-.28-1.24,2,2,0,0,0-.8-.82,2.32,2.32,0,0,0-1.2-.29,2.37,2.37,0,0,0-1.2.29,2,2,0,0,0-.79.82,2.61,2.61,0,0,0-.29,1.24v3.93a2.61,2.61,0,0,0,.29,1.24,2,2,0,0,0,.79.82,2.37,2.37,0,0,0,1.2.29A2.32,2.32,0,0,0,451.33,89.92Z"/><path class="cls-8" d="M457.53,79.19h3.09l5,10.28-.22.24V79.19h2.42v13.4H464.7l-5-10.12.22-.24V92.59h-2.41Z"/><rect class="cls-5" x="131.27" y="145.03" width="367.29" height="268.94" rx="18.33"/><path class="cls-8" d="M297.93,168.23a10.51,10.51,0,0,1-2.28-.75,8.93,8.93,0,0,1-1.91-1.19l1.55-2.76a7.36,7.36,0,0,0,2.37,1.3,8.31,8.31,0,0,0,2.75.46,4.86,4.86,0,0,0,2.54-.56,1.73,1.73,0,0,0,.91-1.56v0a1.54,1.54,0,0,0-.41-1.12,2.27,2.27,0,0,0-1.05-.61,11.74,11.74,0,0,0-1.66-.35l-.06,0h-.07l-.27,0a16.62,16.62,0,0,1-2.95-.71,4.34,4.34,0,0,1-2-1.47,4.8,4.8,0,0,1-.82-3h0a5.41,5.41,0,0,1,.77-2.94,4.86,4.86,0,0,1,2.23-1.87,9,9,0,0,1,3.54-.64,9.4,9.4,0,0,1,1.95.22,10.84,10.84,0,0,1,1.95.64,10.57,10.57,0,0,1,1.8,1l-1.41,2.83a9.11,9.11,0,0,0-2.15-1.1,6.43,6.43,0,0,0-2.14-.39,4.63,4.63,0,0,0-2.38.51,1.58,1.58,0,0,0-.84,1.42h0a1.69,1.69,0,0,0,.44,1.22,2.65,2.65,0,0,0,1.09.65,15.57,15.57,0,0,0,1.81.44l.1,0,.1,0a.32.32,0,0,1,.14,0l.14,0a14.34,14.34,0,0,1,2.81.8,4.26,4.26,0,0,1,1.89,1.51,4.82,4.82,0,0,1,.76,2.85v0a5.18,5.18,0,0,1-.8,2.91,4.92,4.92,0,0,1-2.31,1.84,9.33,9.33,0,0,1-3.66.64A12.07,12.07,0,0,1,297.93,168.23Z"/><path class="cls-8" d="M309.8,150.56h3.35v3.34H309.8Zm0,5.07h3.35v12.68H309.8Z"/><path class="cls-8" d="M315.28,155.63h6.2v2.86h-6.2Zm2.08,11.89a3.64,3.64,0,0,1-.77-2.51V152h3.34v12.23a1.18,1.18,0,0,0,.19.71.61.61,0,0,0,.53.25h.83v3.23H319.8A3.18,3.18,0,0,1,317.36,167.52Z"/><path class="cls-8" d="M326.71,167.82a4.58,4.58,0,0,1-2-1.94,6.47,6.47,0,0,1-.68-3.07v-1.43a7.32,7.32,0,0,1,.65-3.21,4.56,4.56,0,0,1,1.91-2,6,6,0,0,1,3-.7,4.86,4.86,0,0,1,2.84.83,5.1,5.1,0,0,1,1.8,2.41,10.58,10.58,0,0,1,.62,3.82v.83h-8.67v-2.26h5.62l0-.29a3,3,0,0,0-.69-1.7,1.91,1.91,0,0,0-1.48-.6,2.44,2.44,0,0,0-1.88.72,2.91,2.91,0,0,0-.66,2v1.61a2.68,2.68,0,0,0,.72,2,2.83,2.83,0,0,0,2,.71,3.9,3.9,0,0,0,1.33-.24,4.1,4.1,0,0,0,1.19-.67l2.19,1.94a7.35,7.35,0,0,1-2.22,1.39,7.09,7.09,0,0,1-5.63-.17Z"/><rect class="cls-9" x="144.47" y="174.4" width="340.06" height="199.42" rx="6.21"/><path class="cls-5" d="M231.06,247.56h6v31.95h-6Zm2.75,13.75H244a3.59,3.59,0,0,0,1.9-.49,3.43,3.43,0,0,0,1.29-1.4,4.43,4.43,0,0,0,.46-2.06,4.7,4.7,0,0,0-.45-2.1,3.29,3.29,0,0,0-1.27-1.41,3.67,3.67,0,0,0-1.93-.49H233.81v-5.8h10.06a10.87,10.87,0,0,1,5.26,1.22,8.66,8.66,0,0,1,3.53,3.44,11.17,11.17,0,0,1,0,10.27,8.59,8.59,0,0,1-3.53,3.41,11,11,0,0,1-5.26,1.21H233.81Z"/><path class="cls-5" d="M264.44,279.51H258.2V247.56h6.24Z"/><path class="cls-5" d="M275.69,278.44a9.3,9.3,0,0,1-4-4.06,14,14,0,0,1-1.36-6.45v-8.77a14,14,0,0,1,1.36-6.45,9.4,9.4,0,0,1,4-4.08,13,13,0,0,1,6.24-1.4,11.09,11.09,0,0,1,5.38,1.29,10.62,10.62,0,0,1,3.92,3.77,16.23,16.23,0,0,1,2.14,6h-6.24a7.87,7.87,0,0,0-1.08-2.7,5.39,5.39,0,0,0-1.78-1.72,4.73,4.73,0,0,0-2.34-.59,5.63,5.63,0,0,0-2.88.69,4.53,4.53,0,0,0-1.82,2,7.58,7.58,0,0,0-.62,3.2v8.77a7.48,7.48,0,0,0,.62,3.18,4.51,4.51,0,0,0,1.82,2,5.63,5.63,0,0,0,2.88.69,4.81,4.81,0,0,0,2.37-.58,5,5,0,0,0,1.78-1.7,7.94,7.94,0,0,0,1.05-2.73h6.24a16.61,16.61,0,0,1-2.16,6,10.67,10.67,0,0,1-3.91,3.77,11.05,11.05,0,0,1-5.37,1.3A13,13,0,0,1,275.69,278.44Z"/><path class="cls-5" d="M294.47,247.56H317.9v5.8H294.47Zm8.7,2.61h6v29.34h-6Z"/><path class="cls-5" d="M325.43,278.44a9.22,9.22,0,0,1-4-4.06,14,14,0,0,1-1.37-6.43V247.56h6V268.1a5.91,5.91,0,0,0,1.47,4.27,6.51,6.51,0,0,0,8.34,0,5.87,5.87,0,0,0,1.49-4.27V247.56h6V268a13.87,13.87,0,0,1-1.38,6.43,9.26,9.26,0,0,1-4,4.06,14.94,14.94,0,0,1-12.63,0Z"/><path class="cls-5" d="M349.58,247.54h6v32h-6ZM352,260.85h11.12a2.88,2.88,0,0,0,1.63-.46,3,3,0,0,0,1.09-1.32,5.06,5.06,0,0,0,.4-2,4.87,4.87,0,0,0-.38-2,3,3,0,0,0-1.09-1.32,2.92,2.92,0,0,0-1.65-.46H352v-5.8h11.61a8.91,8.91,0,0,1,4.63,1.18,8,8,0,0,1,3.1,3.35,12,12,0,0,1,0,10,7.94,7.94,0,0,1-3.11,3.35,8.83,8.83,0,0,1-4.62,1.19H352Zm6.73,4.81,6.44-1,8.61,14.86h-7.29Z"/><path class="cls-5" d="M378.91,247.56h6v31.95h-6Zm2.18,0h19.23v5.8H381.09Zm0,13.18H397.9v5.8H381.09Zm0,13h19.23v5.8H381.09Z"/><rect class="cls-9" x="144.47" y="379.22" width="77.69" height="21.75" rx="6.21"/><path class="cls-5" d="M160.47,384.64h1.74v9.26h-1.74Zm.76,7.58h3a1.33,1.33,0,0,0,.92-.29,1,1,0,0,0,.33-.81v0a1.27,1.27,0,0,0-.14-.6,1,1,0,0,0-.43-.38,1.75,1.75,0,0,0-.68-.13h-3v-1.68h3A1.21,1.21,0,0,0,165,388a1,1,0,0,0,.29-.77.89.89,0,0,0-.29-.7,1.31,1.31,0,0,0-.84-.25h-3v-1.68h3a3.57,3.57,0,0,1,1.53.3,2.09,2.09,0,0,1,1,.86,2.6,2.6,0,0,1,.33,1.35,2.12,2.12,0,0,1-.21,1,1.76,1.76,0,0,1-.62.68,2.65,2.65,0,0,1-1,.37,2.43,2.43,0,0,1,1.05.37,1.87,1.87,0,0,1,.66.76,2.28,2.28,0,0,1,.23,1.07v0a2.63,2.63,0,0,1-.33,1.36,2.19,2.19,0,0,1-1,.87,3.78,3.78,0,0,1-1.54.29h-3.12Z"/><path class="cls-5" d="M170.12,393.59a2.6,2.6,0,0,1-1.15-1.17,4,4,0,0,1-.4-1.87v-5.91h1.75v6a1.7,1.7,0,0,0,.42,1.23,1.88,1.88,0,0,0,2.42,0,1.66,1.66,0,0,0,.43-1.23v-6h1.74v5.91a4.13,4.13,0,0,1-.39,1.87,2.68,2.68,0,0,1-1.16,1.17A3.86,3.86,0,0,1,172,394,3.81,3.81,0,0,1,170.12,393.59Z"/><path class="cls-5" d="M176,384.64h6.79v1.68H176Zm2.52.76h1.75v8.5h-1.75Z"/><path class="cls-5" d="M183.21,384.64H190v1.68h-6.79Zm2.52.76h1.75v8.5h-1.75Z"/><path class="cls-5" d="M192.18,393.58a3.05,3.05,0,0,1-1.19-1.2,3.74,3.74,0,0,1-.42-1.8V388a3.67,3.67,0,0,1,.42-1.79,2.93,2.93,0,0,1,1.19-1.2,3.62,3.62,0,0,1,1.77-.42,3.66,3.66,0,0,1,1.78.42,2.93,2.93,0,0,1,1.19,1.2,3.67,3.67,0,0,1,.42,1.79v2.62a3.74,3.74,0,0,1-.42,1.8,3.05,3.05,0,0,1-1.19,1.2A3.66,3.66,0,0,1,194,394,3.62,3.62,0,0,1,192.18,393.58Zm2.6-1.53a1.32,1.32,0,0,0,.55-.57,1.78,1.78,0,0,0,.2-.85v-2.71a1.82,1.82,0,0,0-.2-.86,1.44,1.44,0,0,0-.55-.57,1.7,1.7,0,0,0-.83-.2,1.66,1.66,0,0,0-.82.2,1.46,1.46,0,0,0-.56.57,1.82,1.82,0,0,0-.19.86v2.71a1.78,1.78,0,0,0,.19.85,1.34,1.34,0,0,0,.56.57,1.56,1.56,0,0,0,.82.2A1.6,1.6,0,0,0,194.78,392.05Z"/><path class="cls-5" d="M199.06,384.64h2.13l3.45,7.1-.16.16v-7.26h1.67v9.26H204l-3.43-7,.15-.17v7.16h-1.66Z"/><rect class="cls-9" x="231.92" y="379.22" width="77.69" height="21.75" rx="6.21"/><path class="cls-5" d="M247.92,384.64h1.75v9.26h-1.75Zm.77,7.58h2.95a1.38,1.38,0,0,0,.93-.29,1,1,0,0,0,.33-.81v0a1.16,1.16,0,0,0-.15-.6,1,1,0,0,0-.43-.38,1.72,1.72,0,0,0-.68-.13h-2.95v-1.68h2.95a1.21,1.21,0,0,0,.84-.27,1,1,0,0,0,.3-.77.87.87,0,0,0-.3-.7,1.31,1.31,0,0,0-.84-.25h-2.95v-1.68h3a3.62,3.62,0,0,1,1.54.3,2.12,2.12,0,0,1,1,.86,2.6,2.6,0,0,1,.34,1.35,2.12,2.12,0,0,1-.22,1,1.69,1.69,0,0,1-.62.68,2.6,2.6,0,0,1-1,.37,2.43,2.43,0,0,1,1.05.37,1.87,1.87,0,0,1,.66.76,2.41,2.41,0,0,1,.23,1.07v0a2.64,2.64,0,0,1-.34,1.36,2.16,2.16,0,0,1-1,.87,3.78,3.78,0,0,1-1.54.29h-3.12Z"/><path class="cls-5" d="M257.57,393.59a2.65,2.65,0,0,1-1.15-1.17,4.13,4.13,0,0,1-.39-1.87v-5.91h1.74v6a1.66,1.66,0,0,0,.43,1.23,1.56,1.56,0,0,0,1.2.44,1.62,1.62,0,0,0,1.22-.44,1.7,1.7,0,0,0,.42-1.23v-6h1.75v5.91a4,4,0,0,1-.4,1.87,2.63,2.63,0,0,1-1.16,1.17,3.81,3.81,0,0,1-1.83.41A3.86,3.86,0,0,1,257.57,393.59Z"/><path class="cls-5" d="M263.43,384.64h6.79v1.68h-6.79Zm2.52.76h1.75v8.5H266Z"/><path class="cls-5" d="M270.66,384.64h6.79v1.68h-6.79Zm2.53.76h1.74v8.5h-1.74Z"/><path class="cls-5" d="M279.64,393.58a3,3,0,0,1-1.19-1.2,3.74,3.74,0,0,1-.42-1.8V388a3.67,3.67,0,0,1,.42-1.79,2.87,2.87,0,0,1,1.19-1.2,3.94,3.94,0,0,1,3.54,0,2.87,2.87,0,0,1,1.19,1.2,3.67,3.67,0,0,1,.42,1.79v2.62a3.74,3.74,0,0,1-.42,1.8,3,3,0,0,1-1.19,1.2,3.94,3.94,0,0,1-3.54,0Zm2.6-1.53a1.32,1.32,0,0,0,.55-.57,1.78,1.78,0,0,0,.19-.85v-2.71a1.82,1.82,0,0,0-.19-.86,1.44,1.44,0,0,0-.55-.57,1.82,1.82,0,0,0-1.66,0,1.44,1.44,0,0,0-.55.57,1.82,1.82,0,0,0-.19.86v2.71a1.78,1.78,0,0,0,.19.85,1.32,1.32,0,0,0,.55.57,1.82,1.82,0,0,0,1.66,0Z"/><path class="cls-5" d="M286.51,384.64h2.14l3.44,7.1-.15.16v-7.26h1.67v9.26h-2.15l-3.43-7,.15-.17v7.16h-1.67Z"/><rect class="cls-9" x="319.38" y="379.22" width="77.69" height="21.75" rx="6.21"/><path class="cls-5" d="M335.38,384.64h1.75v9.26h-1.75Zm.76,7.58h3a1.38,1.38,0,0,0,.93-.29,1,1,0,0,0,.33-.81v0a1.16,1.16,0,0,0-.15-.6,1,1,0,0,0-.43-.38,1.75,1.75,0,0,0-.68-.13h-3v-1.68h3a1.21,1.21,0,0,0,.84-.27,1,1,0,0,0,.29-.77.86.86,0,0,0-.29-.7,1.31,1.31,0,0,0-.84-.25h-3v-1.68h3a3.54,3.54,0,0,1,1.53.3,2.09,2.09,0,0,1,1,.86,2.6,2.6,0,0,1,.33,1.35,2.12,2.12,0,0,1-.21,1,1.69,1.69,0,0,1-.62.68,2.6,2.6,0,0,1-1,.37,2.43,2.43,0,0,1,1,.37,1.82,1.82,0,0,1,.67.76,2.41,2.41,0,0,1,.22,1.07v0a2.63,2.63,0,0,1-.33,1.36,2.14,2.14,0,0,1-1,.87,3.7,3.7,0,0,1-1.53.29h-3.13Z"/><path class="cls-5" d="M345,393.59a2.65,2.65,0,0,1-1.15-1.17,4,4,0,0,1-.4-1.87v-5.91h1.75v6a1.7,1.7,0,0,0,.42,1.23,1.88,1.88,0,0,0,2.42,0,1.66,1.66,0,0,0,.43-1.23v-6h1.75v5.91a4.13,4.13,0,0,1-.4,1.87,2.68,2.68,0,0,1-1.16,1.17,4.29,4.29,0,0,1-3.66,0Z"/><path class="cls-5" d="M350.88,384.64h6.79v1.68h-6.79Zm2.53.76h1.74v8.5h-1.74Z"/><path class="cls-5" d="M358.12,384.64h6.79v1.68h-6.79Zm2.52.76h1.75v8.5h-1.75Z"/><path class="cls-5" d="M367.09,393.58a3.05,3.05,0,0,1-1.19-1.2,3.74,3.74,0,0,1-.42-1.8V388a3.67,3.67,0,0,1,.42-1.79,2.93,2.93,0,0,1,1.19-1.2,3.66,3.66,0,0,1,1.78-.42,3.62,3.62,0,0,1,1.77.42,2.93,2.93,0,0,1,1.19,1.2,3.67,3.67,0,0,1,.42,1.79v2.62a3.74,3.74,0,0,1-.42,1.8,3.05,3.05,0,0,1-1.19,1.2,3.62,3.62,0,0,1-1.77.42A3.66,3.66,0,0,1,367.09,393.58Zm2.6-1.53a1.34,1.34,0,0,0,.56-.57,1.78,1.78,0,0,0,.19-.85v-2.71a1.82,1.82,0,0,0-.19-.86,1.46,1.46,0,0,0-.56-.57,1.66,1.66,0,0,0-.82-.2,1.7,1.7,0,0,0-.83.2,1.44,1.44,0,0,0-.55.57,1.82,1.82,0,0,0-.2.86v2.71a1.78,1.78,0,0,0,.2.85,1.32,1.32,0,0,0,.55.57,1.6,1.6,0,0,0,.83.2A1.56,1.56,0,0,0,369.69,392.05Z"/><path class="cls-5" d="M374,384.64h2.13l3.45,7.1-.15.16v-7.26h1.66v9.26h-2.14l-3.44-7,.16-.17v7.16H374Z"/><rect class="cls-10" x="406.84" y="379.22" width="77.69" height="21.75" rx="6.21"/><path class="cls-5" d="M428,393.59a2.6,2.6,0,0,1-1.15-1.17,4.13,4.13,0,0,1-.4-1.87V388a4.06,4.06,0,0,1,.4-1.86A2.7,2.7,0,0,1,428,385a3.75,3.75,0,0,1,1.81-.4,3.21,3.21,0,0,1,1.56.37,3.18,3.18,0,0,1,1.13,1.09,4.67,4.67,0,0,1,.62,1.73h-1.8A2.5,2.5,0,0,0,431,387a1.46,1.46,0,0,0-.52-.5,1.36,1.36,0,0,0-.67-.17,1.68,1.68,0,0,0-.84.2,1.3,1.3,0,0,0-.52.59,2,2,0,0,0-.19.92v2.55a2,2,0,0,0,.19.92,1.28,1.28,0,0,0,.52.58,1.58,1.58,0,0,0,.84.2,1.3,1.3,0,0,0,.68-.17,1.35,1.35,0,0,0,.52-.49,2.37,2.37,0,0,0,.31-.79h1.8a4.78,4.78,0,0,1-.62,1.73,3,3,0,0,1-1.14,1.09,3.15,3.15,0,0,1-1.55.38A3.75,3.75,0,0,1,428,393.59Z"/><path class="cls-5" d="M434.56,384.64h1.74v9.26h-1.74Zm.78,7.58h5.42v1.68h-5.42Z"/><path class="cls-5" d="M442,384.64h1.74v9.26H442Zm.63,0h5.57v1.68h-5.57Zm0,3.82h4.87v1.69h-4.87Zm0,3.76h5.57v1.68h-5.57Z"/><path class="cls-5" d="M452.48,384.64h1.11l3.54,9.26h-1.88L453,387.58l-2.22,6.32h-1.88Zm-1.84,6.1h4.88v1.68h-4.88Z"/><path class="cls-5" d="M458.28,384.64H460v9.26h-1.75Zm.69,3.86h3.23A.83.83,0,0,0,463,388a1.32,1.32,0,0,0,.12-.57,1.5,1.5,0,0,0-.11-.58.85.85,0,0,0-.32-.38.81.81,0,0,0-.47-.13H459v-1.68h3.37a2.57,2.57,0,0,1,1.34.34,2.28,2.28,0,0,1,.9,1,3.47,3.47,0,0,1,0,2.91,2.28,2.28,0,0,1-.9,1,2.6,2.6,0,0,1-1.34.35H459Zm1.95,1.39,1.87-.29,2.5,4.3h-2.12Z"/><rect class="cls-5" x="2.54" y="42.79" width="9.41" height="30.58"/><rect class="cls-11" x="140.05" y="107.96" width="42.39" height="16.51" rx="3.69"/><path class="cls-5" d="M149.52,117.86a.48.48,0,0,0,.14.37.54.54,0,0,0,.4.14h.29v1.69h-.9a1.62,1.62,0,0,1-1.24-.46,1.79,1.79,0,0,1-.45-1.3v-7.58h1.76Z"/><path class="cls-5" d="M151.72,119.65a2,2,0,0,1-.53-1.55,1.82,1.82,0,0,1,.59-1.49,2.74,2.74,0,0,1,1.78-.49h1.67l.09,1.34h-1.75a.92.92,0,0,0-.6.16.57.57,0,0,0-.2.48.54.54,0,0,0,.25.48,1.41,1.41,0,0,0,.76.16,2.56,2.56,0,0,0,1.05-.16.54.54,0,0,0,.35-.5l.13,1a1,1,0,0,1-.33.61,2,2,0,0,1-.73.37,3.22,3.22,0,0,1-.93.13A2.21,2.21,0,0,1,151.72,119.65Zm3.46-3.81a.9.9,0,0,0-.31-.72,1.42,1.42,0,0,0-.88-.25,2.26,2.26,0,0,0-1.38.46l-1.1-1.07a2.71,2.71,0,0,1,1.06-.71,3.94,3.94,0,0,1,1.45-.25,3.53,3.53,0,0,1,1.49.29,2.16,2.16,0,0,1,.94.85,2.58,2.58,0,0,1,.32,1.34v4.28h-1.59Z"/><path class="cls-5" d="M158.51,110.72h1.76v9.34h-1.76Zm2.3,9.14a1.8,1.8,0,0,1-.63-.84l.09-1.53a1.33,1.33,0,0,0,.11.56.77.77,0,0,0,.34.35,1,1,0,0,0,.54.13,1,1,0,0,0,.77-.33,1.43,1.43,0,0,0,.27-.93v-1.06a1.46,1.46,0,0,0-.27-.94.93.93,0,0,0-.77-.34,1,1,0,0,0-.54.13.79.79,0,0,0-.34.36,1.43,1.43,0,0,0-.11.58l-.14-1.48a2.25,2.25,0,0,1,.71-.9,1.6,1.6,0,0,1,1-.32,2.1,2.1,0,0,1,1.21.34,2.22,2.22,0,0,1,.77,1,4.39,4.39,0,0,1,.26,1.58v1.06a4.24,4.24,0,0,1-.26,1.56,2.22,2.22,0,0,1-.77,1,2.18,2.18,0,0,1-1.21.34A1.7,1.7,0,0,1,160.81,119.86Z"/><path class="cls-5" d="M166.88,119.81a2.46,2.46,0,0,1-1-1,3.4,3.4,0,0,1-.36-1.62v-.75a3.8,3.8,0,0,1,.35-1.69,2.36,2.36,0,0,1,1-1.07,3.28,3.28,0,0,1,1.59-.36,2.52,2.52,0,0,1,1.49.43,2.69,2.69,0,0,1,.95,1.27,5.5,5.5,0,0,1,.33,2v.44h-4.56v-1.19h2.95l0-.15a1.62,1.62,0,0,0-.36-.9,1,1,0,0,0-.78-.31,1.25,1.25,0,0,0-1,.38,1.53,1.53,0,0,0-.35,1.07v.85a1.42,1.42,0,0,0,.38,1,1.47,1.47,0,0,0,1.07.37,2.1,2.1,0,0,0,.7-.12,2.19,2.19,0,0,0,.63-.36l1.15,1a3.75,3.75,0,0,1-1.17.74,3.73,3.73,0,0,1-3-.09Z"/><path class="cls-5" d="M174.48,117.86a.45.45,0,0,0,.14.37.53.53,0,0,0,.39.14h.3v1.69h-.9a1.65,1.65,0,0,1-1.25-.46,1.83,1.83,0,0,1-.44-1.3v-7.58h1.76Z"/><rect class="cls-12" x="187.96" y="107.96" width="42.39" height="16.51" rx="3.69"/><path class="cls-5" d="M197.44,117.86a.48.48,0,0,0,.13.37.57.57,0,0,0,.4.14h.29v1.69h-.9a1.62,1.62,0,0,1-1.24-.46,1.78,1.78,0,0,1-.44-1.3v-7.58h1.76Z"/><path class="cls-5" d="M199.63,119.65a2.08,2.08,0,0,1-.53-1.55,1.85,1.85,0,0,1,.59-1.49,2.75,2.75,0,0,1,1.79-.49h1.67l.09,1.34h-1.76a1,1,0,0,0-.6.16.57.57,0,0,0-.19.48.52.52,0,0,0,.25.48,1.37,1.37,0,0,0,.75.16,2.56,2.56,0,0,0,1.05-.16.54.54,0,0,0,.35-.5l.13,1a.87.87,0,0,1-.33.61,1.93,1.93,0,0,1-.73.37,3.12,3.12,0,0,1-.93.13A2.23,2.23,0,0,1,199.63,119.65Zm3.46-3.81a.9.9,0,0,0-.31-.72,1.41,1.41,0,0,0-.87-.25,2.34,2.34,0,0,0-.74.12,2.5,2.5,0,0,0-.65.34l-1.09-1.07a2.6,2.6,0,0,1,1-.71,4,4,0,0,1,1.45-.25,3.53,3.53,0,0,1,1.49.29,2.11,2.11,0,0,1,.94.85,2.59,2.59,0,0,1,.33,1.34v4.28h-1.6Z"/><path class="cls-5" d="M206.42,110.72h1.76v9.34h-1.76Zm2.3,9.14a1.8,1.8,0,0,1-.63-.84l.09-1.53a1.19,1.19,0,0,0,.12.56.75.75,0,0,0,.33.35,1,1,0,0,0,.54.13.94.94,0,0,0,.77-.33,1.43,1.43,0,0,0,.27-.93v-1.06a1.46,1.46,0,0,0-.27-.94.92.92,0,0,0-.77-.34,1,1,0,0,0-.54.13.77.77,0,0,0-.33.36,1.28,1.28,0,0,0-.12.58l-.13-1.48a2.16,2.16,0,0,1,.71-.9,1.55,1.55,0,0,1,1-.32,2.1,2.1,0,0,1,1.21.34,2.15,2.15,0,0,1,.77,1,4.39,4.39,0,0,1,.26,1.58v1.06a4.24,4.24,0,0,1-.26,1.56,2.15,2.15,0,0,1-.77,1,2.18,2.18,0,0,1-1.21.34A1.7,1.7,0,0,1,208.72,119.86Z"/><path class="cls-5" d="M214.79,119.81a2.46,2.46,0,0,1-1-1,3.4,3.4,0,0,1-.36-1.62v-.75a3.8,3.8,0,0,1,.35-1.69,2.41,2.41,0,0,1,1-1.07,3.28,3.28,0,0,1,1.59-.36,2.57,2.57,0,0,1,1.5.43,2.74,2.74,0,0,1,.94,1.27,5.5,5.5,0,0,1,.33,2v.44h-4.56v-1.19h2.95l0-.15a1.55,1.55,0,0,0-.36-.9,1,1,0,0,0-.78-.31,1.27,1.27,0,0,0-1,.38,1.53,1.53,0,0,0-.35,1.07v.85a1.39,1.39,0,0,0,.39,1,1.45,1.45,0,0,0,1.07.37,2.07,2.07,0,0,0,1.33-.48l1.14,1a3.82,3.82,0,0,1-1.16.74,3.76,3.76,0,0,1-3-.09Z"/><path class="cls-5" d="M222.39,117.86a.48.48,0,0,0,.14.37.53.53,0,0,0,.39.14h.3v1.69h-.9a1.65,1.65,0,0,1-1.25-.46,1.83,1.83,0,0,1-.44-1.3v-7.58h1.76Z"/><rect class="cls-13" x="235.75" y="107.96" width="42.39" height="16.51" rx="3.69"/><path class="cls-5" d="M245.22,117.86a.48.48,0,0,0,.14.37.54.54,0,0,0,.4.14h.29v1.69h-.9a1.62,1.62,0,0,1-1.24-.46,1.79,1.79,0,0,1-.45-1.3v-7.58h1.76Z"/><path class="cls-5" d="M247.42,119.65a2,2,0,0,1-.53-1.55,1.82,1.82,0,0,1,.59-1.49,2.74,2.74,0,0,1,1.78-.49h1.67l.09,1.34h-1.75a.93.93,0,0,0-.6.16.57.57,0,0,0-.2.48.54.54,0,0,0,.25.48,1.41,1.41,0,0,0,.76.16,2.56,2.56,0,0,0,1.05-.16.54.54,0,0,0,.35-.5l.13,1a1,1,0,0,1-.33.61,2,2,0,0,1-.73.37,3.22,3.22,0,0,1-.93.13A2.21,2.21,0,0,1,247.42,119.65Zm3.46-3.81a.9.9,0,0,0-.31-.72,1.42,1.42,0,0,0-.88-.25,2.32,2.32,0,0,0-1.38.46l-1.1-1.07a2.71,2.71,0,0,1,1.06-.71,3.94,3.94,0,0,1,1.45-.25,3.53,3.53,0,0,1,1.49.29,2.16,2.16,0,0,1,.94.85,2.59,2.59,0,0,1,.33,1.34v4.28h-1.6Z"/><path class="cls-5" d="M254.21,110.72H256v9.34h-1.76Zm2.3,9.14a1.8,1.8,0,0,1-.63-.84l.09-1.53a1.33,1.33,0,0,0,.11.56.77.77,0,0,0,.34.35,1,1,0,0,0,.54.13,1,1,0,0,0,.77-.33,1.43,1.43,0,0,0,.27-.93v-1.06a1.46,1.46,0,0,0-.27-.94.93.93,0,0,0-.77-.34,1,1,0,0,0-.54.13.79.79,0,0,0-.34.36,1.43,1.43,0,0,0-.11.58l-.14-1.48a2.25,2.25,0,0,1,.71-.9,1.6,1.6,0,0,1,1-.32,2.1,2.1,0,0,1,1.21.34,2.22,2.22,0,0,1,.77,1,4.39,4.39,0,0,1,.26,1.58v1.06a4.24,4.24,0,0,1-.26,1.56,2.22,2.22,0,0,1-.77,1,2.18,2.18,0,0,1-1.21.34A1.7,1.7,0,0,1,256.51,119.86Z"/><path class="cls-5" d="M262.58,119.81a2.46,2.46,0,0,1-1.05-1,3.4,3.4,0,0,1-.36-1.62v-.75a3.8,3.8,0,0,1,.35-1.69,2.41,2.41,0,0,1,1-1.07,3.28,3.28,0,0,1,1.59-.36,2.52,2.52,0,0,1,1.49.43,2.69,2.69,0,0,1,.95,1.27,5.5,5.5,0,0,1,.33,2v.44h-4.56v-1.19h2.95l0-.15a1.62,1.62,0,0,0-.36-.9,1,1,0,0,0-.78-.31,1.26,1.26,0,0,0-1,.38,1.53,1.53,0,0,0-.35,1.07v.85a1.42,1.42,0,0,0,.38,1,1.48,1.48,0,0,0,1.07.37,2.1,2.1,0,0,0,.7-.12,2.07,2.07,0,0,0,.63-.36l1.15,1a3.75,3.75,0,0,1-1.17.74,3.73,3.73,0,0,1-2.95-.09Z"/><path class="cls-5" d="M270.18,117.86a.45.45,0,0,0,.14.37.53.53,0,0,0,.39.14h.3v1.69h-.9a1.65,1.65,0,0,1-1.25-.46,1.83,1.83,0,0,1-.44-1.3v-7.58h1.76Z"/><rect class="cls-13" x="341.4" y="152.06" width="42.39" height="16.51" rx="3.69"/><path class="cls-5" d="M350.87,162a.52.52,0,0,0,.14.38.6.6,0,0,0,.4.13h.29v1.69h-.9a1.62,1.62,0,0,1-1.24-.46,1.79,1.79,0,0,1-.45-1.3v-7.58h1.76Z"/><path class="cls-5" d="M353.07,163.75a2,2,0,0,1-.53-1.55,1.82,1.82,0,0,1,.59-1.49,2.74,2.74,0,0,1,1.78-.49h1.67l.09,1.34h-1.75a.93.93,0,0,0-.6.16.57.57,0,0,0-.2.48.53.53,0,0,0,.25.48,1.41,1.41,0,0,0,.76.16,2.56,2.56,0,0,0,1.05-.16.53.53,0,0,0,.35-.5l.13,1a.91.91,0,0,1-.33.61,1.8,1.8,0,0,1-.73.37,3.17,3.17,0,0,1-.93.13A2.21,2.21,0,0,1,353.07,163.75Zm3.46-3.81a.9.9,0,0,0-.31-.72,1.42,1.42,0,0,0-.88-.25,2.08,2.08,0,0,0-.73.13,1.91,1.91,0,0,0-.65.34l-1.1-1.08a2.71,2.71,0,0,1,1.06-.71,3.94,3.94,0,0,1,1.45-.25,3.53,3.53,0,0,1,1.49.29,2.16,2.16,0,0,1,.94.85,2.58,2.58,0,0,1,.32,1.34v4.28h-1.59Z"/><path class="cls-5" d="M359.86,154.82h1.76v9.34h-1.76Zm2.3,9.14a1.8,1.8,0,0,1-.63-.84l.09-1.53a1.19,1.19,0,0,0,.12.56.72.72,0,0,0,.33.36,1.13,1.13,0,0,0,.54.12.94.94,0,0,0,.77-.33,1.42,1.42,0,0,0,.27-.92v-1.06a1.47,1.47,0,0,0-.27-.95.92.92,0,0,0-.77-.34,1,1,0,0,0-.54.13.72.72,0,0,0-.33.36,1.28,1.28,0,0,0-.12.58l-.13-1.48a2.16,2.16,0,0,1,.71-.9,1.61,1.61,0,0,1,1-.32,2.1,2.1,0,0,1,1.21.34,2.19,2.19,0,0,1,.77,1,4.3,4.3,0,0,1,.26,1.57v1.07a4.22,4.22,0,0,1-.26,1.55,2.22,2.22,0,0,1-.77,1,2.1,2.1,0,0,1-1.21.34A1.7,1.7,0,0,1,362.16,164Z"/><path class="cls-5" d="M368.23,163.91a2.35,2.35,0,0,1-1.05-1,3.4,3.4,0,0,1-.36-1.62v-.75a3.8,3.8,0,0,1,.35-1.69,2.39,2.39,0,0,1,1-1.06,3.17,3.17,0,0,1,1.59-.37,2.52,2.52,0,0,1,1.49.44,2.6,2.6,0,0,1,.95,1.27,5.4,5.4,0,0,1,.33,2v.44H368v-1.19h2.95l0-.15a1.62,1.62,0,0,0-.36-.9,1,1,0,0,0-.78-.31,1.3,1.3,0,0,0-1,.38,1.53,1.53,0,0,0-.35,1.07v.85a1.42,1.42,0,0,0,.38,1,1.48,1.48,0,0,0,1.07.37,2.1,2.1,0,0,0,.7-.12,1.88,1.88,0,0,0,.63-.36l1.15,1a3.73,3.73,0,0,1-4.12.65Z"/><path class="cls-5" d="M375.83,162a.48.48,0,0,0,.14.38.57.57,0,0,0,.39.13h.3v1.69h-.9a1.65,1.65,0,0,1-1.25-.46,1.83,1.83,0,0,1-.44-1.3v-7.58h1.76Z"/></svg>