<svg id="Layer_1" data-name="Layer 1" xmlns="http://www.w3.org/2000/svg" viewBox="0 0 510.24 425.2"><defs><style>.cls-1{fill:#fff;}.cls-2{fill:#e5e5e5;stroke-width:1.29px;}.cls-2,.cls-4,.cls-5,.cls-7{stroke:#231f20;stroke-miterlimit:10;}.cls-3{fill:#465055;}.cls-4,.cls-7{fill:none;}.cls-4{stroke-width:1.27px;}.cls-5,.cls-8{fill:#231f20;}.cls-5{stroke-width:1.23px;}.cls-6{fill:#00a651;}.cls-7{stroke-width:1.3px;}.cls-9{fill:#ec2027;}.cls-10{fill:#00a658;}.cls-11{fill:#78797a;}.cls-12{fill:#939598;}.cls-13{fill:#3c8dbc;}</style></defs><rect class="cls-1" x="51.16" y="-29.46" width="407.91" height="484.12" rx="23.09" transform="translate(467.72 -42.52) rotate(90)"/><rect class="cls-2" x="129.02" y="51.01" width="353.98" height="351.37" rx="9.1"/><rect class="cls-3" x="57" y="353.44" width="78.87" height="48.94"/><rect class="cls-3" x="27.23" y="45.13" width="108.64" height="357.25" rx="8.83"/><rect class="cls-4" x="27.23" y="22.81" width="455.77" height="379.57" rx="8.91"/><rect class="cls-5" x="27.23" y="22.81" width="455.77" height="33.94"/><path class="cls-1" d="M43.9,29.43H58v3.48H43.9ZM49.12,31h3.61V48.6H49.12Z"/><path class="cls-1" d="M63.54,48.6H59.79V29.43h3.75Z"/><path class="cls-1" d="M65.91,29.43H80v3.48H65.91ZM71.13,31h3.62V48.6H71.13Z"/><path class="cls-1" d="M82.08,29.43h3.61V48.6H82.08Zm1.6,15.69H94.92V48.6H83.68Z"/><path class="cls-1" d="M97.55,29.43h3.62V48.6H97.55Zm1.31,0h11.53v3.48H98.86Zm0,7.91h10.08v3.48H98.86Zm0,7.78h11.53V48.6H98.86Z"/><rect class="cls-6" x="395.9" y="27.43" width="80.71" height="23.58" rx="6.09"/><path class="cls-1" d="M410.09,45a6.71,6.71,0,0,1-1.55-.51,5.7,5.7,0,0,1-1.3-.81l1.06-1.87a5.11,5.11,0,0,0,1.61.88,5.69,5.69,0,0,0,1.87.31,3.34,3.34,0,0,0,1.73-.37,1.2,1.2,0,0,0,.61-1.07h0a1,1,0,0,0-.27-.76,1.62,1.62,0,0,0-.71-.42,8.35,8.35,0,0,0-1.13-.24h-.09l-.19,0a11.46,11.46,0,0,1-2-.48,2.93,2.93,0,0,1-1.35-1,3.28,3.28,0,0,1-.55-2h0a3.66,3.66,0,0,1,.52-2,3.29,3.29,0,0,1,1.52-1.26,5.78,5.78,0,0,1,2.4-.44,6.1,6.1,0,0,1,1.33.15,7,7,0,0,1,1.32.43,8.18,8.18,0,0,1,1.23.68l-1,1.93a6.31,6.31,0,0,0-1.46-.75,4.36,4.36,0,0,0-1.46-.27,3.13,3.13,0,0,0-1.61.35,1.07,1.07,0,0,0-.58,1h0a1.13,1.13,0,0,0,.3.83,1.78,1.78,0,0,0,.74.44,9.44,9.44,0,0,0,1.24.3l.06,0h.07l.1,0,.09,0a10.39,10.39,0,0,1,1.91.54,3.07,3.07,0,0,1,1.29,1,3.28,3.28,0,0,1,.51,1.94v0a3.48,3.48,0,0,1-.54,2,3.37,3.37,0,0,1-1.57,1.26,6.61,6.61,0,0,1-2.49.43A8,8,0,0,1,410.09,45Z"/><path class="cls-1" d="M420,44.6a3.51,3.51,0,0,1-1.51-1.54,5.3,5.3,0,0,1-.51-2.42V32.93h2.27V40.7a2.24,2.24,0,0,0,.56,1.61,2.09,2.09,0,0,0,1.57.57,2.11,2.11,0,0,0,1.58-.57,2.24,2.24,0,0,0,.56-1.61V32.93h2.27v7.71a5.18,5.18,0,0,1-.52,2.42,3.41,3.41,0,0,1-1.51,1.54,5.61,5.61,0,0,1-4.76,0Z"/><path class="cls-1" d="M429.1,32.93h2.27V45H429.1Zm1,9.88H434a1.7,1.7,0,0,0,1.2-.38,1.31,1.31,0,0,0,.43-1v0a1.5,1.5,0,0,0-.19-.78,1.17,1.17,0,0,0-.56-.49,2,2,0,0,0-.88-.17h-3.86V37.72H434a1.54,1.54,0,0,0,1.09-.36,1.33,1.33,0,0,0,.38-1,1.14,1.14,0,0,0-.38-.9,1.63,1.63,0,0,0-1.09-.32h-3.86v-2.2H434a4.66,4.66,0,0,1,2,.39,2.71,2.71,0,0,1,1.26,1.12,3.4,3.4,0,0,1,.43,1.76,2.77,2.77,0,0,1-.27,1.25,2.41,2.41,0,0,1-.81.9,3.31,3.31,0,0,1-1.28.47,3,3,0,0,1,1.36.49,2.42,2.42,0,0,1,.87,1,3.24,3.24,0,0,1,.29,1.4v0a3.41,3.41,0,0,1-.43,1.77,2.8,2.8,0,0,1-1.27,1.13,4.9,4.9,0,0,1-2,.38h-4.07Z"/><path class="cls-1" d="M447.67,32.93h3V45H448.6V35.63l.08.53-2.31,7.5h-2l-2.3-7.33.08-.7V45h-2.07V32.93h3l2.3,8.14Z"/><path class="cls-1" d="M455.51,45h-2.36V32.93h2.36Z"/><path class="cls-1" d="M457,32.93h8.85v2.2H457Zm3.29,1h2.28V45h-2.28Z"/><line class="cls-7" x1="135.87" y1="56.75" x2="135.87" y2="402.38"/><path class="cls-1" d="M46.06,76.21A2.49,2.49,0,0,1,45,75.13a3.71,3.71,0,0,1-.36-1.7V71.11A3.72,3.72,0,0,1,45,69.4a2.49,2.49,0,0,1,1.05-1.08A3.47,3.47,0,0,1,47.71,68a2.9,2.9,0,0,1,1.42.35,2.74,2.74,0,0,1,1,1,4.28,4.28,0,0,1,.56,1.58H49.08a2,2,0,0,0-.28-.71,1.47,1.47,0,0,0-.47-.46,1.29,1.29,0,0,0-.62-.15,1.5,1.5,0,0,0-.76.18,1.18,1.18,0,0,0-.48.53,2,2,0,0,0-.17.85v2.32a1.93,1.93,0,0,0,.17.84,1.18,1.18,0,0,0,.48.53,1.5,1.5,0,0,0,.76.18,1.26,1.26,0,0,0,.62-.15,1.29,1.29,0,0,0,.48-.45,2.12,2.12,0,0,0,.27-.72h1.65a4.18,4.18,0,0,1-.57,1.58,2.86,2.86,0,0,1-1,1,2.9,2.9,0,0,1-1.42.35A3.47,3.47,0,0,1,46.06,76.21Z"/><path class="cls-1" d="M54.26,68h1l3.23,8.45H56.78l-2-5.77-2,5.77H51ZM52.58,73.6H57v1.53H52.58Z"/><path class="cls-1" d="M64.86,68H67v8.45H65.51V69.93l.06.37L64,75.55h-1.4l-1.62-5.13.06-.49v6.56H59.54V68h2.1l1.61,5.69Z"/><path class="cls-1" d="M68.82,68h1.59v8.45H68.82Zm.57,0h5.09v1.53H69.39Zm0,3.49h4.45v1.53H69.39Zm0,3.42h5.09v1.54H69.39Z"/><path class="cls-1" d="M75.93,68h1.59v8.46H75.93Zm.63,3.53H79.5a.69.69,0,0,0,.43-.13.73.73,0,0,0,.29-.35,1.34,1.34,0,0,0,0-1,.84.84,0,0,0-.29-.35.81.81,0,0,0-.44-.12H76.56V68h3.07a2.37,2.37,0,0,1,1.23.32,2.18,2.18,0,0,1,.82.88A3,3,0,0,1,82,70.56a2.93,2.93,0,0,1-.29,1.33,2.16,2.16,0,0,1-.83.89,2.43,2.43,0,0,1-1.22.31H76.56Zm1.78,1.27,1.7-.27,2.28,3.93H80.39Z"/><path class="cls-1" d="M85.81,68h1l3.23,8.45H88.34l-2-5.77-2,5.77H82.58ZM84.13,73.6h4.45v1.53H84.13Z"/><path class="cls-1" d="M92.11,76.45A5.35,5.35,0,0,1,91,76.1a4.38,4.38,0,0,1-.91-.57l.74-1.31a3.86,3.86,0,0,0,1.13.62,4.13,4.13,0,0,0,1.31.21,2.29,2.29,0,0,0,1.21-.26.84.84,0,0,0,.43-.75h0a.73.73,0,0,0-.19-.54,1.18,1.18,0,0,0-.5-.29,6.56,6.56,0,0,0-.79-.17h-.07l-.12,0a8.21,8.21,0,0,1-1.41-.33,2.09,2.09,0,0,1-.95-.7,2.3,2.3,0,0,1-.39-1.43h0a2.63,2.63,0,0,1,.37-1.4,2.32,2.32,0,0,1,1.06-.88A4.11,4.11,0,0,1,93.63,68a4.36,4.36,0,0,1,.93.11,5.2,5.2,0,0,1,.92.3,4.84,4.84,0,0,1,.86.48l-.67,1.34a4.91,4.91,0,0,0-1-.52,3.23,3.23,0,0,0-1-.18,2.18,2.18,0,0,0-1.13.24.75.75,0,0,0-.41.67h0a.79.79,0,0,0,.21.58,1.36,1.36,0,0,0,.52.31c.21.06.49.13.87.21h.22a8.24,8.24,0,0,1,1.34.38,2,2,0,0,1,.9.73A2.25,2.25,0,0,1,96.51,74h0a2.51,2.51,0,0,1-.38,1.39,2.36,2.36,0,0,1-1.1.87,4.33,4.33,0,0,1-1.74.31A5.14,5.14,0,0,1,92.11,76.45Z"/><path class="cls-1" d="M47.24,94.2h1l3.23,8.45H49.77l-2-5.77-2,5.77H44Zm-1.68,5.56H50v1.53H45.56Z"/><path class="cls-1" d="M52.53,94.2h1.59v8.45H52.53Zm.7,6.91h2.69a1.22,1.22,0,0,0,.85-.26.94.94,0,0,0,.3-.74v0a1.1,1.1,0,0,0-.14-.55.82.82,0,0,0-.39-.34,1.46,1.46,0,0,0-.62-.12H53.23V97.55h2.69a1.13,1.13,0,0,0,.77-.25.92.92,0,0,0,.27-.71.77.77,0,0,0-.27-.63,1.18,1.18,0,0,0-.77-.23H53.23V94.2H56a3.33,3.33,0,0,1,1.4.27,2,2,0,0,1,.88.78,2.45,2.45,0,0,1,.3,1.24,1.86,1.86,0,0,1-.19.87,1.64,1.64,0,0,1-.57.63,2.42,2.42,0,0,1-.89.33,2.15,2.15,0,0,1,1,.34,1.63,1.63,0,0,1,.61.69,2.32,2.32,0,0,1,.2,1v0a2.42,2.42,0,0,1-.3,1.24,2,2,0,0,1-.89.79,3.35,3.35,0,0,1-1.41.27H53.23Z"/><path class="cls-1" d="M61.33,102.35a2.64,2.64,0,0,1-1.08-1.09,3.34,3.34,0,0,1-.39-1.64V97.23a3.34,3.34,0,0,1,.39-1.64,2.64,2.64,0,0,1,1.08-1.09,3.56,3.56,0,0,1,3.24,0,2.76,2.76,0,0,1,1.08,1.09A3.34,3.34,0,0,1,66,97.23v2.39a3.34,3.34,0,0,1-.38,1.64,2.76,2.76,0,0,1-1.08,1.09,3.64,3.64,0,0,1-3.24,0ZM63.7,101a1.28,1.28,0,0,0,.51-.52,1.76,1.76,0,0,0,.17-.78V97.19a1.73,1.73,0,0,0-.17-.78,1.22,1.22,0,0,0-.51-.52A1.42,1.42,0,0,0,63,95.7a1.45,1.45,0,0,0-.76.19,1.26,1.26,0,0,0-.5.52,1.61,1.61,0,0,0-.18.78v2.47a1.63,1.63,0,0,0,.18.78,1.32,1.32,0,0,0,.5.52,1.55,1.55,0,0,0,.76.18A1.51,1.51,0,0,0,63.7,101Z"/><path class="cls-1" d="M68.78,102.37a2.49,2.49,0,0,1-1-1.08,3.71,3.71,0,0,1-.36-1.7V94.2H69v5.43a1.55,1.55,0,0,0,.39,1.13,1.46,1.46,0,0,0,1.1.4,1.48,1.48,0,0,0,1.11-.4A1.55,1.55,0,0,0,72,99.63V94.2h1.59v5.39a3.71,3.71,0,0,1-.36,1.7,2.51,2.51,0,0,1-1.06,1.08,4.05,4.05,0,0,1-3.34,0Z"/><path class="cls-1" d="M74.12,94.2h6.2v1.53h-6.2Zm2.3.69H78v7.76h-1.6Z"/><path class="cls-1" d="M50.14,120.36h2.1v8.45H50.79v-6.56l.06.37-1.61,5.25H47.83l-1.62-5.14.06-.48v6.56H44.83v-8.45h2.09l1.61,5.69Z"/><path class="cls-1" d="M55.39,128.51a2.64,2.64,0,0,1-1.08-1.09,3.37,3.37,0,0,1-.39-1.64v-2.39a3.34,3.34,0,0,1,.39-1.64,2.64,2.64,0,0,1,1.08-1.09,3.56,3.56,0,0,1,3.24,0,2.7,2.7,0,0,1,1.08,1.09,3.34,3.34,0,0,1,.39,1.64v2.39a3.37,3.37,0,0,1-.39,1.64,2.7,2.7,0,0,1-1.08,1.09,3.64,3.64,0,0,1-3.24,0Zm2.38-1.39a1.32,1.32,0,0,0,.5-.52,1.66,1.66,0,0,0,.17-.78v-2.47a1.6,1.6,0,0,0-.17-.78,1.26,1.26,0,0,0-.5-.52,1.62,1.62,0,0,0-1.52,0,1.26,1.26,0,0,0-.5.52,1.61,1.61,0,0,0-.18.78v2.47a1.66,1.66,0,0,0,.18.78,1.32,1.32,0,0,0,.5.52,1.69,1.69,0,0,0,1.52,0Z"/><path class="cls-1" d="M61.66,120.36h1.6v8.45h-1.6Zm.81,6.91h2a1.8,1.8,0,0,0,1.22-.37,1.38,1.38,0,0,0,.43-1.07v-2.49a1.37,1.37,0,0,0-.43-1.07,1.8,1.8,0,0,0-1.22-.38h-2v-1.53h2a4.25,4.25,0,0,1,1.8.35,2.51,2.51,0,0,1,1.14,1,3.24,3.24,0,0,1,.39,1.64v2.39a3.22,3.22,0,0,1-.38,1.59,2.5,2.5,0,0,1-1.12,1.06,4.07,4.07,0,0,1-1.84.38h-2Z"/><path class="cls-1" d="M69.36,120.36H71v8.45H69.36Zm.57,0H75v1.53H69.93Zm0,3.48h4.45v1.54H69.93Zm0,3.43H75v1.54H69.93Z"/><path class="cls-1" d="M76.47,120.36h1.59v8.45H76.47Zm.71,6.91h4.95v1.54H77.18Z"/><path class="cls-1" d="M46.06,154.68A2.41,2.41,0,0,1,45,153.61a3.72,3.72,0,0,1-.36-1.71v-2.31a3.72,3.72,0,0,1,.36-1.71,2.49,2.49,0,0,1,1.05-1.08,3.35,3.35,0,0,1,1.65-.37,2.9,2.9,0,0,1,1.42.34,2.76,2.76,0,0,1,1,1,4.28,4.28,0,0,1,.56,1.58H49.08a2.12,2.12,0,0,0-.28-.72,1.34,1.34,0,0,0-.47-.45,1.19,1.19,0,0,0-.62-.16,1.41,1.41,0,0,0-.76.19,1.18,1.18,0,0,0-.48.53,2,2,0,0,0-.17.85v2.31a2,2,0,0,0,.17.85,1.18,1.18,0,0,0,.48.53,1.5,1.5,0,0,0,.76.18,1.26,1.26,0,0,0,.62-.15,1.47,1.47,0,0,0,.48-.45,2.12,2.12,0,0,0,.27-.72h1.65a4.07,4.07,0,0,1-.57,1.57,2.81,2.81,0,0,1-1,1,2.9,2.9,0,0,1-1.42.34A3.35,3.35,0,0,1,46.06,154.68Z"/><path class="cls-1" d="M53.25,154.67a2.75,2.75,0,0,1-1.09-1.1,3.41,3.41,0,0,1-.38-1.63v-2.4a3.41,3.41,0,0,1,.38-1.63,2.66,2.66,0,0,1,1.09-1.09,3.54,3.54,0,0,1,3.23,0,2.66,2.66,0,0,1,1.09,1.09,3.41,3.41,0,0,1,.38,1.63v2.4a3.41,3.41,0,0,1-.38,1.63,2.75,2.75,0,0,1-1.09,1.1,3.62,3.62,0,0,1-3.23,0Zm2.37-1.39a1.2,1.2,0,0,0,.5-.52,1.66,1.66,0,0,0,.18-.78V149.5a1.59,1.59,0,0,0-.18-.77,1.14,1.14,0,0,0-.5-.52,1.6,1.6,0,0,0-1.51,0,1.2,1.2,0,0,0-.5.52,1.59,1.59,0,0,0-.18.77V152a1.66,1.66,0,0,0,.18.78,1.25,1.25,0,0,0,.5.52,1.67,1.67,0,0,0,1.51,0Z"/><path class="cls-1" d="M59.52,146.52h1.95L64.61,153l-.14.15v-6.62H66V155H64l-3.13-6.37.14-.16V155H59.52Z"/><path class="cls-1" d="M67.16,146.52h6.19v1.53H67.16Zm2.3.69h1.59V155H69.46Z"/><path class="cls-1" d="M76.17,146.52h1L80.41,155H78.7l-2-5.77-2,5.77H72.94Zm-1.68,5.56h4.45v1.53H74.49Z"/><path class="cls-1" d="M82.23,154.68a2.41,2.41,0,0,1-1-1.07,3.72,3.72,0,0,1-.36-1.71v-2.31a3.72,3.72,0,0,1,.36-1.71,2.49,2.49,0,0,1,1-1.08,3.35,3.35,0,0,1,1.65-.37,2.9,2.9,0,0,1,1.42.34,2.76,2.76,0,0,1,1,1,4.28,4.28,0,0,1,.56,1.58H85.25a2.12,2.12,0,0,0-.28-.72,1.34,1.34,0,0,0-.47-.45,1.19,1.19,0,0,0-.62-.16,1.41,1.41,0,0,0-.76.19,1.18,1.18,0,0,0-.48.53,2,2,0,0,0-.17.85v2.31a2,2,0,0,0,.17.85,1.18,1.18,0,0,0,.48.53,1.5,1.5,0,0,0,.76.18,1.33,1.33,0,0,0,.63-.15,1.54,1.54,0,0,0,.47-.45,2.12,2.12,0,0,0,.27-.72H86.9a4.07,4.07,0,0,1-.57,1.57,2.81,2.81,0,0,1-1,1,2.9,2.9,0,0,1-1.42.34A3.35,3.35,0,0,1,82.23,154.68Z"/><path class="cls-1" d="M87.2,146.52h6.19v1.53H87.2Zm2.3.69h1.59V155H89.5Z"/><rect class="cls-1" x="141.57" y="60.26" width="335.05" height="82.51" rx="9.7"/><path class="cls-8" d="M165.56,82.63a7.61,7.61,0,0,1-1.55-.51,5.49,5.49,0,0,1-1.3-.81l1-1.88a5,5,0,0,0,1.61.89,5.75,5.75,0,0,0,1.88.31,3.34,3.34,0,0,0,1.73-.38,1.18,1.18,0,0,0,.61-1.06h0a1.08,1.08,0,0,0-.27-.77,1.75,1.75,0,0,0-.72-.41,8,8,0,0,0-1.13-.24h-.09l-.18,0a11.46,11.46,0,0,1-2-.48,3,3,0,0,1-1.35-1,3.23,3.23,0,0,1-.56-2h0a3.74,3.74,0,0,1,.52-2,3.3,3.3,0,0,1,1.52-1.27,6.55,6.55,0,0,1,3.73-.28,6.26,6.26,0,0,1,1.33.43,6.73,6.73,0,0,1,1.23.68l-1,1.92a5.85,5.85,0,0,0-1.45-.74,4.36,4.36,0,0,0-1.46-.27,3.26,3.26,0,0,0-1.62.34,1.09,1.09,0,0,0-.57,1h0a1.14,1.14,0,0,0,.3.83,1.72,1.72,0,0,0,.74.44q.43.14,1.23.3H168l.09,0,.1,0a10.39,10.39,0,0,1,1.91.54,3,3,0,0,1,1.28,1,3.19,3.19,0,0,1,.52,1.94h0a3.53,3.53,0,0,1-.54,2,3.38,3.38,0,0,1-1.58,1.25,6.33,6.33,0,0,1-2.48.43A7.88,7.88,0,0,1,165.56,82.63Z"/><path class="cls-8" d="M175.44,82.28a3.49,3.49,0,0,1-1.5-1.54,5.32,5.32,0,0,1-.52-2.43v-7.7h2.28v7.76a2.18,2.18,0,0,0,.56,1.61,2.08,2.08,0,0,0,1.56.57,2.15,2.15,0,0,0,1.59-.57,2.22,2.22,0,0,0,.56-1.61V70.61h2.27v7.7a5.19,5.19,0,0,1-.52,2.43,3.51,3.51,0,0,1-1.51,1.54,5.73,5.73,0,0,1-4.77,0Z"/><path class="cls-8" d="M184.56,70.61h2.28V82.68h-2.28Zm1,9.88h3.85a1.79,1.79,0,0,0,1.21-.38,1.35,1.35,0,0,0,.43-1.06v0a1.55,1.55,0,0,0-.19-.78,1.3,1.3,0,0,0-.56-.5,2.17,2.17,0,0,0-.89-.17h-3.85V75.39h3.85A1.52,1.52,0,0,0,190.5,75a1.27,1.27,0,0,0,.39-1,1.09,1.09,0,0,0-.39-.9,1.61,1.61,0,0,0-1.09-.33h-3.85V70.61h3.93a4.69,4.69,0,0,1,2,.39,2.76,2.76,0,0,1,1.26,1.12,3.38,3.38,0,0,1,.43,1.76,2.65,2.65,0,0,1-.28,1.25,2.23,2.23,0,0,1-.81.89,3.42,3.42,0,0,1-1.28.48,3.19,3.19,0,0,1,1.37.48,2.39,2.39,0,0,1,.86,1,3.18,3.18,0,0,1,.3,1.41v0a3.45,3.45,0,0,1-.44,1.78,2.73,2.73,0,0,1-1.27,1.12,4.66,4.66,0,0,1-2,.39h-4.07Z"/><path class="cls-8" d="M193.88,70.61h8.85V72.8h-8.85Zm3.29,1h2.27V82.68h-2.27Z"/><path class="cls-8" d="M206.25,82.68h-2.36V70.61h2.36Z"/><path class="cls-8" d="M207.74,70.61h8.85V72.8h-8.85Zm3.29,1h2.27V82.68H211Z"/><path class="cls-8" d="M217.92,70.61h2.27V82.68h-2.27Zm1,9.88H226v2.19h-7.07Z"/><path class="cls-8" d="M227.66,70.61h2.28V82.68h-2.28Zm.82,0h7.27V72.8h-7.27Zm0,5h6.35v2.19h-6.35Zm0,4.9h7.27v2.19h-7.27Z"/><path class="cls-8" d="M163.82,102.75a3.35,3.35,0,0,1-1.41-.65l.53-.93a2.64,2.64,0,0,0,.79.44,2.92,2.92,0,0,0,.93.15,1.58,1.58,0,0,0,.85-.19.58.58,0,0,0,.3-.52h0a.53.53,0,0,0-.13-.38.81.81,0,0,0-.35-.2l-.56-.12h-.14a4.79,4.79,0,0,1-1-.24,1.52,1.52,0,0,1-.67-.49,1.64,1.64,0,0,1-.27-1h0a1.74,1.74,0,0,1,.26-1,1.62,1.62,0,0,1,.75-.63,3,3,0,0,1,1.19-.21,2.94,2.94,0,0,1,.65.07,3.79,3.79,0,0,1,.65.21,4,4,0,0,1,.61.34l-.47.95a3.07,3.07,0,0,0-.72-.37,2.38,2.38,0,0,0-.72-.13,1.56,1.56,0,0,0-.8.17.54.54,0,0,0-.29.48h0a.54.54,0,0,0,.15.41.81.81,0,0,0,.37.22,4.15,4.15,0,0,0,.61.15h.16a6.06,6.06,0,0,1,.94.27,1.52,1.52,0,0,1,.64.51,1.59,1.59,0,0,1,.25,1h0a1.7,1.7,0,0,1-.27,1,1.6,1.6,0,0,1-.77.62,3.23,3.23,0,0,1-1.23.21A3.92,3.92,0,0,1,163.82,102.75Z"/><path class="cls-8" d="M168.71,102.57a1.67,1.67,0,0,1-.75-.76,2.58,2.58,0,0,1-.25-1.19V96.81h1.12v3.83a1.07,1.07,0,0,0,.28.8,1.21,1.21,0,0,0,1.55,0,1.07,1.07,0,0,0,.28-.8V96.81h1.13v3.81a2.58,2.58,0,0,1-.26,1.19,1.67,1.67,0,0,1-.75.76,2.39,2.39,0,0,1-1.18.26A2.35,2.35,0,0,1,168.71,102.57Z"/><path class="cls-8" d="M173.21,96.81h1.13v6h-1.13Zm.5,4.88h1.9a.86.86,0,0,0,.6-.19.66.66,0,0,0,.21-.52h0a.71.71,0,0,0-.1-.39.58.58,0,0,0-.27-.24,1,1,0,0,0-.44-.09h-1.9V99.17h1.9a.81.81,0,0,0,.54-.17.65.65,0,0,0,.19-.5.55.55,0,0,0-.19-.45.81.81,0,0,0-.54-.16h-1.9V96.81h1.94a2.26,2.26,0,0,1,1,.19,1.36,1.36,0,0,1,.63.55,1.75,1.75,0,0,1,.21.87,1.23,1.23,0,0,1-.14.62,1.06,1.06,0,0,1-.4.44,1.48,1.48,0,0,1-.63.24,1.49,1.49,0,0,1,.68.24,1.15,1.15,0,0,1,.42.48,1.54,1.54,0,0,1,.15.7h0a1.67,1.67,0,0,1-.22.88,1.39,1.39,0,0,1-.62.55,2.33,2.33,0,0,1-1,.19h-2Z"/><path class="cls-8" d="M177.82,96.81h4.37v1.08h-4.37Zm1.62.49h1.12v5.47h-1.12Z"/><path class="cls-8" d="M183.93,102.77h-1.17v-6h1.17Z"/><path class="cls-8" d="M184.67,96.81H189v1.08h-4.37Zm1.62.49h1.12v5.47h-1.12Z"/><path class="cls-8" d="M189.69,96.81h1.13v6h-1.13Zm.5,4.88h3.5v1.08h-3.5Z"/><path class="cls-8" d="M194.51,96.81h1.12v6h-1.12Zm.41,0h3.58v1.08h-3.58Zm0,2.46h3.13v1.08h-3.13Zm0,2.42h3.58v1.08h-3.58Z"/><path class="cls-8" d="M204,102.77v1.55h-5.11v-1.55Z"/><path class="cls-8" d="M204.76,96.81h1.12v6h-1.12Zm.56,4.88h1.43a1.25,1.25,0,0,0,.86-.27.94.94,0,0,0,.3-.75V98.91a1,1,0,0,0-.3-.75,1.25,1.25,0,0,0-.86-.27h-1.43V96.81h1.41a2.88,2.88,0,0,1,1.27.25,1.78,1.78,0,0,1,.8.73,2.22,2.22,0,0,1,.28,1.16v1.69a2.26,2.26,0,0,1-.27,1.12,1.8,1.8,0,0,1-.79.75,3,3,0,0,1-1.3.26h-1.4Z"/><path class="cls-8" d="M210.19,96.81h1.12v6h-1.12Zm.4,0h3.59v1.08h-3.59Zm0,2.46h3.14v1.08h-3.14Zm0,2.42h3.59v1.08h-3.59Z"/><path class="cls-8" d="M216.25,102.75a3.2,3.2,0,0,1-1.41-.65l.52-.93a2.64,2.64,0,0,0,.79.44,3,3,0,0,0,.93.15,1.55,1.55,0,0,0,.85-.19.57.57,0,0,0,.31-.52h0a.54.54,0,0,0-.14-.38.75.75,0,0,0-.35-.2l-.56-.12h-.13a5.07,5.07,0,0,1-1-.24,1.44,1.44,0,0,1-.66-.49,1.58,1.58,0,0,1-.28-1h0a1.82,1.82,0,0,1,.26-1,1.62,1.62,0,0,1,.75-.63,3,3,0,0,1,1.19-.21,2.94,2.94,0,0,1,.65.07,3.89,3.89,0,0,1,.66.21,4.42,4.42,0,0,1,.6.34l-.47.95A3.07,3.07,0,0,0,218,98a2.38,2.38,0,0,0-.72-.13,1.59,1.59,0,0,0-.8.17.53.53,0,0,0-.28.48h0a.58.58,0,0,0,.14.41.81.81,0,0,0,.37.22,4.51,4.51,0,0,0,.61.15h.16a6.21,6.21,0,0,1,.95.27,1.55,1.55,0,0,1,.63.51,1.59,1.59,0,0,1,.25,1h0a1.78,1.78,0,0,1-.26,1,1.68,1.68,0,0,1-.78.62,3.23,3.23,0,0,1-1.23.21A3.83,3.83,0,0,1,216.25,102.75Z"/><path class="cls-8" d="M221.08,102.57a1.68,1.68,0,0,1-.73-.76,2.59,2.59,0,0,1-.26-1.2V99a2.59,2.59,0,0,1,.26-1.2,1.73,1.73,0,0,1,.73-.76,2.41,2.41,0,0,1,1.17-.26,2,2,0,0,1,1.74.94,3.22,3.22,0,0,1,.4,1.12h-1.17a1.47,1.47,0,0,0-.2-.51,1,1,0,0,0-.33-.32.93.93,0,0,0-.44-.11,1,1,0,0,0-.54.13.84.84,0,0,0-.34.38,1.48,1.48,0,0,0-.11.59v1.64a1.57,1.57,0,0,0,.11.6.87.87,0,0,0,.34.37,1,1,0,0,0,.54.13.93.93,0,0,0,.44-.11.92.92,0,0,0,.33-.32,1.47,1.47,0,0,0,.2-.51h1.17a3.22,3.22,0,0,1-.41,1.12,1.88,1.88,0,0,1-.73.7,2.05,2.05,0,0,1-1,.24A2.41,2.41,0,0,1,221.08,102.57Z"/><path class="cls-8" d="M225.33,96.8h1.12v6h-1.12Zm.45,2.49h2.07a.54.54,0,0,0,.31-.09.6.6,0,0,0,.2-.24,1,1,0,0,0,0-.74.56.56,0,0,0-.2-.25.62.62,0,0,0-.31-.08h-2.07V96.8h2.16a1.66,1.66,0,0,1,.87.23,1.45,1.45,0,0,1,.58.62,2.13,2.13,0,0,1,.2.94,2.16,2.16,0,0,1-.2.94,1.51,1.51,0,0,1-.58.62,1.66,1.66,0,0,1-.87.22h-2.16Zm1.25.9,1.2-.19,1.61,2.77h-1.36Z"/><path class="cls-8" d="M231.89,102.77h-1.17v-6h1.17Z"/><path class="cls-8" d="M233.12,96.81h1.12v6h-1.12Zm.51,2.57h1.91a.6.6,0,0,0,.35-.1.51.51,0,0,0,.24-.26.79.79,0,0,0,.09-.38.8.8,0,0,0-.09-.39.61.61,0,0,0-.23-.27.74.74,0,0,0-.36-.09h-1.91V96.81h1.88a2,2,0,0,1,1,.23,1.63,1.63,0,0,1,.66.64,1.85,1.85,0,0,1,.23,1,1.9,1.9,0,0,1-.23,1,1.67,1.67,0,0,1-.66.63,2.06,2.06,0,0,1-1,.23h-1.88Z"/><path class="cls-8" d="M238,96.81h4.37v1.08H238Zm1.62.49h1.13v5.47h-1.13Z"/><path class="cls-8" d="M244.13,102.77H243v-6h1.16Z"/><path class="cls-8" d="M246.27,102.56a1.88,1.88,0,0,1-.76-.77,2.38,2.38,0,0,1-.27-1.15V99a2.39,2.39,0,0,1,.27-1.16,1.88,1.88,0,0,1,.76-.77,2.56,2.56,0,0,1,2.29,0,1.88,1.88,0,0,1,.76.77,2.39,2.39,0,0,1,.27,1.16v1.69a2.38,2.38,0,0,1-.27,1.15,1.88,1.88,0,0,1-.76.77,2.56,2.56,0,0,1-2.29,0Zm1.68-1a.89.89,0,0,0,.35-.37,1.07,1.07,0,0,0,.13-.55V98.92a1.09,1.09,0,0,0-.13-.55A.89.89,0,0,0,248,98a1,1,0,0,0-.53-.13,1.05,1.05,0,0,0-.54.13.89.89,0,0,0-.35.37,1.09,1.09,0,0,0-.13.55v1.74a1.07,1.07,0,0,0,.13.55.89.89,0,0,0,.35.37,1.05,1.05,0,0,0,.54.13A1,1,0,0,0,248,101.58Z"/><path class="cls-8" d="M250.7,96.81h1.38l2.21,4.57-.09.1V96.81h1.07v6h-1.38l-2.21-4.5.1-.11v4.61H250.7Z"/><rect class="cls-9" x="149.58" y="116.78" width="38.67" height="15.06" rx="3.37"/><path class="cls-1" d="M158.22,125.81a.45.45,0,0,0,.12.34.52.52,0,0,0,.36.12H159v1.55h-.82a1.51,1.51,0,0,1-1.14-.42,1.65,1.65,0,0,1-.4-1.19V119.3h1.61Z"/><path class="cls-1" d="M160.22,127.44a1.84,1.84,0,0,1-.49-1.41,1.66,1.66,0,0,1,.54-1.36,2.53,2.53,0,0,1,1.63-.45h1.52l.09,1.23h-1.6a.84.84,0,0,0-.55.14.53.53,0,0,0-.18.44.49.49,0,0,0,.23.44,1.37,1.37,0,0,0,.69.14,2.56,2.56,0,0,0,1-.14.48.48,0,0,0,.31-.46l.12.88a.81.81,0,0,1-.3.56,1.63,1.63,0,0,1-.67.34,2.84,2.84,0,0,1-.84.12A2,2,0,0,1,160.22,127.44Zm3.15-3.48a.79.79,0,0,0-.28-.65,1.25,1.25,0,0,0-.8-.23,2,2,0,0,0-.67.12,1.75,1.75,0,0,0-.59.31l-1-1a2.3,2.3,0,0,1,1-.65,3.75,3.75,0,0,1,1.33-.23,3.14,3.14,0,0,1,1.36.27,1.82,1.82,0,0,1,.85.77,2.35,2.35,0,0,1,.3,1.22v3.91h-1.46Z"/><path class="cls-1" d="M166.41,119.3H168v8.52h-1.61Zm2.1,8.33a1.51,1.51,0,0,1-.57-.77l.08-1.38a1.12,1.12,0,0,0,.1.5.76.76,0,0,0,.31.33,1.07,1.07,0,0,0,.49.11.87.87,0,0,0,.7-.3,1.26,1.26,0,0,0,.25-.84v-1a1.35,1.35,0,0,0-.25-.87.87.87,0,0,0-.7-.3,1.07,1.07,0,0,0-.49.11.82.82,0,0,0-.31.33,1.22,1.22,0,0,0-.1.53l-.12-1.35a2,2,0,0,1,.64-.82,1.53,1.53,0,0,1,.89-.29,1.87,1.87,0,0,1,1.1.31,1.91,1.91,0,0,1,.7.91,3.62,3.62,0,0,1,.25,1.43v1a3.61,3.61,0,0,1-.25,1.42,1.83,1.83,0,0,1-1.8,1.21A1.5,1.5,0,0,1,168.51,127.63Z"/><path class="cls-1" d="M174,127.59a2.3,2.3,0,0,1-.95-.93,3.08,3.08,0,0,1-.33-1.48v-.68a3.44,3.44,0,0,1,.32-1.54,2.22,2.22,0,0,1,.91-1,3,3,0,0,1,1.45-.33,2.31,2.31,0,0,1,1.37.4,2.44,2.44,0,0,1,.86,1.15A5,5,0,0,1,178,125v.39h-4.16v-1.08h2.69l0-.14a1.37,1.37,0,0,0-.33-.81.88.88,0,0,0-.71-.29,1.18,1.18,0,0,0-.9.34,1.41,1.41,0,0,0-.32,1v.78a1.3,1.3,0,0,0,.35,1,1.37,1.37,0,0,0,1,.34,1.81,1.81,0,0,0,.64-.12,1.78,1.78,0,0,0,.57-.32l1.05.93a3.51,3.51,0,0,1-1.07.67,3.12,3.12,0,0,1-1.19.24A3.33,3.33,0,0,1,174,127.59Z"/><path class="cls-1" d="M181,125.81a.45.45,0,0,0,.12.34.53.53,0,0,0,.37.12h.26v1.55h-.82a1.5,1.5,0,0,1-1.13-.42,1.65,1.65,0,0,1-.41-1.19V119.3H181Z"/><rect class="cls-10" x="193.28" y="116.78" width="38.67" height="15.06" rx="3.37"/><path class="cls-1" d="M201.92,125.81a.42.42,0,0,0,.13.34.49.49,0,0,0,.36.12h.27v1.55h-.82a1.51,1.51,0,0,1-1.14-.42,1.65,1.65,0,0,1-.41-1.19V119.3h1.61Z"/><path class="cls-1" d="M203.92,127.44a1.88,1.88,0,0,1-.48-1.41,1.66,1.66,0,0,1,.54-1.36,2.5,2.5,0,0,1,1.63-.45h1.52l.08,1.23h-1.6a.83.83,0,0,0-.54.14.53.53,0,0,0-.18.44.48.48,0,0,0,.22.44,1.44,1.44,0,0,0,.7.14,2.53,2.53,0,0,0,.95-.14.49.49,0,0,0,.32-.46l.12.88a.81.81,0,0,1-.3.56,1.7,1.7,0,0,1-.67.34,3,3,0,0,1-.85.12A2,2,0,0,1,203.92,127.44Zm3.16-3.48a.82.82,0,0,0-.28-.65,1.27,1.27,0,0,0-.8-.23,2,2,0,0,0-.68.12,1.75,1.75,0,0,0-.59.31l-1-1a2.3,2.3,0,0,1,1-.65,3.73,3.73,0,0,1,1.32-.23,3.11,3.11,0,0,1,1.36.27,1.85,1.85,0,0,1,.86.77,2.35,2.35,0,0,1,.3,1.22v3.91h-1.46Z"/><path class="cls-1" d="M210.12,119.3h1.6v8.52h-1.6Zm2.1,8.33a1.58,1.58,0,0,1-.58-.77l.08-1.38a1.12,1.12,0,0,0,.11.5.71.71,0,0,0,.31.33,1,1,0,0,0,.49.11.87.87,0,0,0,.7-.3,1.31,1.31,0,0,0,.24-.84v-1a1.41,1.41,0,0,0-.24-.87.87.87,0,0,0-.7-.3,1,1,0,0,0-.49.11.76.76,0,0,0-.31.33,1.22,1.22,0,0,0-.11.53l-.12-1.35a2,2,0,0,1,.65-.82,1.5,1.5,0,0,1,.89-.29,1.82,1.82,0,0,1,1.8,1.22,3.82,3.82,0,0,1,.24,1.43v1a3.8,3.8,0,0,1-.24,1.42,1.93,1.93,0,0,1-.7.9,2,2,0,0,1-1.1.31A1.48,1.48,0,0,1,212.22,127.63Z"/><path class="cls-1" d="M217.75,127.59a2.24,2.24,0,0,1-.95-.93,3.08,3.08,0,0,1-.33-1.48v-.68a3.44,3.44,0,0,1,.31-1.54,2.24,2.24,0,0,1,.92-1,3,3,0,0,1,1.45-.33,2.28,2.28,0,0,1,1.36.4,2.45,2.45,0,0,1,.87,1.15,5.26,5.26,0,0,1,.29,1.84v.39h-4.16v-1.08h2.7l0-.14a1.37,1.37,0,0,0-.33-.81.91.91,0,0,0-.71-.29,1.15,1.15,0,0,0-.9.34,1.36,1.36,0,0,0-.32,1v.78a1.26,1.26,0,0,0,.35,1,1.35,1.35,0,0,0,1,.34,1.77,1.77,0,0,0,.64-.12,1.94,1.94,0,0,0,.58-.32l1,.93a3.46,3.46,0,0,1-1.06.67,3.21,3.21,0,0,1-1.2.24A3.32,3.32,0,0,1,217.75,127.59Z"/><path class="cls-1" d="M224.68,125.81a.46.46,0,0,0,.13.34.49.49,0,0,0,.36.12h.27v1.55h-.82a1.51,1.51,0,0,1-1.14-.42,1.65,1.65,0,0,1-.4-1.19V119.3h1.6Z"/><rect class="cls-11" x="236.87" y="116.78" width="38.67" height="15.06" rx="3.37"/><path class="cls-1" d="M245.51,125.81a.46.46,0,0,0,.13.34.49.49,0,0,0,.36.12h.27v1.55h-.82a1.51,1.51,0,0,1-1.14-.42,1.65,1.65,0,0,1-.4-1.19V119.3h1.6Z"/><path class="cls-1" d="M247.51,127.44A1.88,1.88,0,0,1,247,126a1.66,1.66,0,0,1,.54-1.36,2.52,2.52,0,0,1,1.63-.45h1.52l.08,1.23h-1.59a.84.84,0,0,0-.55.14.53.53,0,0,0-.18.44.47.47,0,0,0,.23.44,1.37,1.37,0,0,0,.69.14,2.56,2.56,0,0,0,1-.14.48.48,0,0,0,.31-.46l.12.88a.81.81,0,0,1-.3.56,1.7,1.7,0,0,1-.67.34,2.89,2.89,0,0,1-.84.12A2.06,2.06,0,0,1,247.51,127.44Zm3.16-3.48a.79.79,0,0,0-.28-.65,1.25,1.25,0,0,0-.8-.23,2,2,0,0,0-.67.12,1.75,1.75,0,0,0-.59.31l-1-1a2.3,2.3,0,0,1,1-.65,3.75,3.75,0,0,1,1.33-.23,3.07,3.07,0,0,1,1.35.27,1.8,1.8,0,0,1,.86.77,2.35,2.35,0,0,1,.3,1.22v3.91h-1.46Z"/><path class="cls-1" d="M253.71,119.3h1.61v8.52h-1.61Zm2.1,8.33a1.58,1.58,0,0,1-.58-.77l.09-1.38a1.12,1.12,0,0,0,.1.5.71.71,0,0,0,.31.33,1,1,0,0,0,.49.11.87.87,0,0,0,.7-.3,1.31,1.31,0,0,0,.25-.84v-1a1.41,1.41,0,0,0-.25-.87.87.87,0,0,0-.7-.3,1,1,0,0,0-.49.11.76.76,0,0,0-.31.33,1.22,1.22,0,0,0-.1.53l-.13-1.35a2.08,2.08,0,0,1,.65-.82,1.5,1.5,0,0,1,.89-.29,1.87,1.87,0,0,1,1.1.31,1.91,1.91,0,0,1,.7.91,3.82,3.82,0,0,1,.24,1.43v1a3.8,3.8,0,0,1-.24,1.42,1.83,1.83,0,0,1-1.8,1.21A1.5,1.5,0,0,1,255.81,127.63Z"/><path class="cls-1" d="M261.34,127.59a2.3,2.3,0,0,1-.95-.93,3.08,3.08,0,0,1-.33-1.48v-.68a3.44,3.44,0,0,1,.32-1.54,2.16,2.16,0,0,1,.91-1,3,3,0,0,1,1.45-.33,2.31,2.31,0,0,1,1.37.4,2.5,2.5,0,0,1,.86,1.15,5,5,0,0,1,.3,1.84v.39h-4.16v-1.08h2.69l0-.14a1.37,1.37,0,0,0-.33-.81.89.89,0,0,0-.71-.29,1.15,1.15,0,0,0-.9.34,1.41,1.41,0,0,0-.32,1v.78a1.3,1.3,0,0,0,.35,1,1.37,1.37,0,0,0,1,.34,1.76,1.76,0,0,0,.63-.12,1.73,1.73,0,0,0,.58-.32l1.05.93a3.51,3.51,0,0,1-1.07.67,3.12,3.12,0,0,1-1.19.24A3.33,3.33,0,0,1,261.34,127.59Z"/><path class="cls-1" d="M268.28,125.81a.45.45,0,0,0,.12.34.52.52,0,0,0,.36.12H269v1.55h-.82a1.49,1.49,0,0,1-1.13-.42,1.65,1.65,0,0,1-.41-1.19V119.3h1.61Z"/><rect class="cls-11" x="242.04" y="153.51" width="38.67" height="15.06" rx="3.37"/><path class="cls-1" d="M250.68,162.53a.48.48,0,0,0,.12.35.52.52,0,0,0,.36.12h.27v1.54h-.82a1.49,1.49,0,0,1-1.13-.42,1.65,1.65,0,0,1-.41-1.19V156h1.61Z"/><path class="cls-1" d="M252.68,164.17a1.92,1.92,0,0,1-.48-1.42,1.66,1.66,0,0,1,.54-1.35,2.48,2.48,0,0,1,1.62-.45h1.53l.08,1.22h-1.6a1,1,0,0,0-.55.14.54.54,0,0,0-.18.44.48.48,0,0,0,.23.44,1.26,1.26,0,0,0,.69.15,2.34,2.34,0,0,0,1-.15.48.48,0,0,0,.31-.46l.13.89a.87.87,0,0,1-.3.55,1.78,1.78,0,0,1-.67.35,3.35,3.35,0,0,1-.85.11A2,2,0,0,1,252.68,164.17Zm3.15-3.48a.78.78,0,0,0-.28-.65,1.22,1.22,0,0,0-.79-.23,2.25,2.25,0,0,0-.68.11,2,2,0,0,0-.59.31l-1-1a2.63,2.63,0,0,1,1-.65,3.65,3.65,0,0,1,1.32-.23,3.14,3.14,0,0,1,1.36.27,2,2,0,0,1,.86.77,2.49,2.49,0,0,1,.29,1.23v3.9h-1.46Z"/><path class="cls-1" d="M258.88,156h1.6v8.52h-1.6Zm2.09,8.34a1.55,1.55,0,0,1-.57-.77l.08-1.39a1.13,1.13,0,0,0,.11.51.72.72,0,0,0,.3.32,1,1,0,0,0,.49.11.85.85,0,0,0,.7-.3,1.24,1.24,0,0,0,.25-.84v-1a1.3,1.3,0,0,0-.25-.86.83.83,0,0,0-.7-.31,1,1,0,0,0-.49.12.69.69,0,0,0-.3.33,1.17,1.17,0,0,0-.11.52l-.12-1.34a2.1,2.1,0,0,1,.64-.83,1.53,1.53,0,0,1,.89-.29,2,2,0,0,1,1.11.31,2,2,0,0,1,.7.91,3.88,3.88,0,0,1,.24,1.44v1a3.73,3.73,0,0,1-.24,1.42,2,2,0,0,1-.7.9,1.93,1.93,0,0,1-1.11.31A1.58,1.58,0,0,1,261,164.36Z"/><path class="cls-1" d="M266.51,164.31a2.16,2.16,0,0,1-1-.93,3.19,3.19,0,0,1-.32-1.47v-.69a3.47,3.47,0,0,1,.31-1.54,2.14,2.14,0,0,1,.91-1,2.88,2.88,0,0,1,1.45-.34,2.36,2.36,0,0,1,1.37.4,2.4,2.4,0,0,1,.86,1.16,5,5,0,0,1,.3,1.83v.4h-4.16v-1.09H269v-.14a1.51,1.51,0,0,0-.33-.81,1,1,0,0,0-.72-.29,1.19,1.19,0,0,0-.9.35,1.39,1.39,0,0,0-.31,1v.77a1.3,1.3,0,0,0,.34,1,1.34,1.34,0,0,0,1,.34,2.05,2.05,0,0,0,.64-.11,2,2,0,0,0,.57-.33l1,.93a3.28,3.28,0,0,1-1.06.67,3.21,3.21,0,0,1-1.2.24A3.26,3.26,0,0,1,266.51,164.31Z"/><path class="cls-1" d="M273.44,162.53a.45.45,0,0,0,.13.35.49.49,0,0,0,.36.12h.27v1.54h-.82a1.51,1.51,0,0,1-1.14-.42,1.65,1.65,0,0,1-.4-1.19V156h1.6Z"/><path class="cls-8" d="M353.21,96.8h1.59v8.44h-1.59Zm.8,6.91h2a1.77,1.77,0,0,0,1.21-.38,1.34,1.34,0,0,0,.43-1.07V99.78a1.34,1.34,0,0,0-.43-1.07,1.77,1.77,0,0,0-1.21-.38h-2V96.8h2a4.13,4.13,0,0,1,1.8.35,2.51,2.51,0,0,1,1.14,1,3.2,3.2,0,0,1,.38,1.63v2.4a3.22,3.22,0,0,1-.37,1.59,2.56,2.56,0,0,1-1.12,1.06,4.11,4.11,0,0,1-1.84.37h-2Z"/><path class="cls-8" d="M360.9,96.8h1.6v8.44h-1.6Zm.58,0h5.08v1.53h-5.08Zm0,3.48h4.44v1.54h-4.44Zm0,3.43h5.08v1.53h-5.08Z"/><path class="cls-8" d="M369.49,105.21a4.81,4.81,0,0,1-1.09-.36,4,4,0,0,1-.91-.56l.74-1.32a3.45,3.45,0,0,0,1.13.62,3.88,3.88,0,0,0,1.31.22,2.28,2.28,0,0,0,1.21-.27.81.81,0,0,0,.43-.74h0a.72.72,0,0,0-.19-.53,1.18,1.18,0,0,0-.5-.29,6.56,6.56,0,0,0-.79-.17h-.07l-.12,0a8.21,8.21,0,0,1-1.41-.33,2.12,2.12,0,0,1-1-.71,2.26,2.26,0,0,1-.39-1.42h0a2.61,2.61,0,0,1,.37-1.4,2.34,2.34,0,0,1,1.06-.89,4.71,4.71,0,0,1,2.62-.2,4.53,4.53,0,0,1,.92.31,5.51,5.51,0,0,1,.86.47l-.67,1.35a4.47,4.47,0,0,0-1-.52,3,3,0,0,0-1-.19,2.18,2.18,0,0,0-1.13.24.76.76,0,0,0-.41.68h0a.77.77,0,0,0,.21.57,1.15,1.15,0,0,0,.52.31,6.57,6.57,0,0,0,.87.21h.09l.07,0h.06a6.62,6.62,0,0,1,1.34.38,2.09,2.09,0,0,1,.9.72,2.26,2.26,0,0,1,.36,1.36h0a2.46,2.46,0,0,1-.38,1.38,2.32,2.32,0,0,1-1.1.88,4.52,4.52,0,0,1-1.74.3A5.76,5.76,0,0,1,369.49,105.21Z"/><path class="cls-8" d="M376.34,105a2.45,2.45,0,0,1-1-1.07,3.72,3.72,0,0,1-.36-1.71V99.86a3.71,3.71,0,0,1,.36-1.7,2.52,2.52,0,0,1,1-1.08,3.41,3.41,0,0,1,1.65-.37,2.93,2.93,0,0,1,1.43.34,2.81,2.81,0,0,1,1,1,4.06,4.06,0,0,1,.57,1.58h-1.65a2.13,2.13,0,0,0-.29-.72,1.34,1.34,0,0,0-.47-.45,1.17,1.17,0,0,0-.62-.16,1.5,1.5,0,0,0-.76.18,1.2,1.2,0,0,0-.48.54,1.94,1.94,0,0,0-.16.84v2.32a1.94,1.94,0,0,0,.16.84,1.2,1.2,0,0,0,.48.54,1.5,1.5,0,0,0,.76.18,1.33,1.33,0,0,0,.63-.15,1.44,1.44,0,0,0,.47-.45,2.12,2.12,0,0,0,.28-.72H381a4.42,4.42,0,0,1-.57,1.57,2.84,2.84,0,0,1-1,1,2.87,2.87,0,0,1-1.42.34A3.41,3.41,0,0,1,376.34,105Z"/><path class="cls-8" d="M382.36,96.79H384v8.45h-1.59Zm.63,3.52h2.94a.77.77,0,0,0,.43-.12.84.84,0,0,0,.29-.35,1.38,1.38,0,0,0,.1-.52,1.29,1.29,0,0,0-.1-.53.79.79,0,0,0-.28-.34.74.74,0,0,0-.44-.13H383V96.79h3.07a2.43,2.43,0,0,1,1.22.31,2.08,2.08,0,0,1,.82.89,2.8,2.8,0,0,1,.29,1.33,2.86,2.86,0,0,1-.29,1.33,2.11,2.11,0,0,1-.82.88,2.34,2.34,0,0,1-1.22.32H383Zm1.78,1.27,1.7-.26,2.28,3.92h-1.93Z"/><path class="cls-8" d="M391.65,105.24H390V96.8h1.65Z"/><path class="cls-8" d="M393.39,96.8H395v8.44h-1.59Zm.73,3.63h2.7a.91.91,0,0,0,.5-.13.82.82,0,0,0,.34-.37,1.19,1.19,0,0,0,.12-.54,1.25,1.25,0,0,0-.12-.56.91.91,0,0,0-.33-.37,1,1,0,0,0-.51-.13h-2.7V96.8h2.66a2.85,2.85,0,0,1,1.39.32,2.26,2.26,0,0,1,.93.91,2.95,2.95,0,0,1,0,2.71,2.26,2.26,0,0,1-.93.91,3,3,0,0,1-1.39.32h-2.66Z"/><path class="cls-8" d="M400.33,96.8h6.2v1.53h-6.2Zm2.3.69h1.6v7.75h-1.6Z"/><path class="cls-8" d="M409,105.24h-1.65V96.8H409Z"/><path class="cls-8" d="M412,105a2.75,2.75,0,0,1-1.09-1.1,3.41,3.41,0,0,1-.38-1.63v-2.4a3.41,3.41,0,0,1,.38-1.63A2.66,2.66,0,0,1,412,97.1a3.26,3.26,0,0,1,1.62-.39,3.23,3.23,0,0,1,1.61.39,2.66,2.66,0,0,1,1.09,1.09,3.41,3.41,0,0,1,.38,1.63v2.4a3.41,3.41,0,0,1-.38,1.63,2.75,2.75,0,0,1-1.09,1.1,3.33,3.33,0,0,1-1.61.38A3.37,3.37,0,0,1,412,105Zm2.37-1.39a1.25,1.25,0,0,0,.5-.52,1.66,1.66,0,0,0,.18-.78V99.78a1.66,1.66,0,0,0-.18-.78,1.25,1.25,0,0,0-.5-.52,1.67,1.67,0,0,0-1.51,0,1.32,1.32,0,0,0-.5.52,1.66,1.66,0,0,0-.18.78v2.48a1.66,1.66,0,0,0,.18.78,1.32,1.32,0,0,0,.5.52,1.67,1.67,0,0,0,1.51,0Z"/><path class="cls-8" d="M418.3,96.8h1.95l3.14,6.47-.14.15V96.8h1.52v8.44h-1.95l-3.14-6.38.14-.15v6.53H418.3Z"/><rect class="cls-1" x="141.57" y="150.6" width="335.05" height="245.33" rx="16.72"/><path class="cls-8" d="M297.44,170.87a7.06,7.06,0,0,1-1.55-.52,5.81,5.81,0,0,1-1.3-.8l1.05-1.88a5,5,0,0,0,1.61.88,5.76,5.76,0,0,0,1.88.32,3.34,3.34,0,0,0,1.73-.38,1.2,1.2,0,0,0,.61-1.07h0a1.05,1.05,0,0,0-.27-.76,1.66,1.66,0,0,0-.72-.42,9.76,9.76,0,0,0-1.13-.24h-.09l-.18,0a10.63,10.63,0,0,1-2-.48,2.93,2.93,0,0,1-1.35-1,3.28,3.28,0,0,1-.56-2h0a3.68,3.68,0,0,1,.52-2,3.34,3.34,0,0,1,1.52-1.26,6.46,6.46,0,0,1,3.73-.29,7.11,7.11,0,0,1,1.33.43,8.18,8.18,0,0,1,1.23.68l-1,1.93a6.25,6.25,0,0,0-1.45-.75,4.33,4.33,0,0,0-1.46-.26,3.15,3.15,0,0,0-1.62.34,1.07,1.07,0,0,0-.57,1h0a1.12,1.12,0,0,0,.3.82,1.84,1.84,0,0,0,.74.45q.44.13,1.23.3h.14l.09,0,.1,0a9.61,9.61,0,0,1,1.91.55,2.94,2.94,0,0,1,1.28,1,3.21,3.21,0,0,1,.52,1.94v0a3.48,3.48,0,0,1-.54,2,3.4,3.4,0,0,1-1.58,1.26,6.33,6.33,0,0,1-2.48.43A8.57,8.57,0,0,1,297.44,170.87Z"/><path class="cls-8" d="M305.51,158.85h2.28v2.27h-2.28Zm0,3.45h2.28v8.62h-2.28Z"/><path class="cls-8" d="M309.24,162.3h4.22v1.94h-4.22Zm1.41,8.08a2.45,2.45,0,0,1-.52-1.71v-8.88h2.27v8.32a.79.79,0,0,0,.13.49.42.42,0,0,0,.36.17h.57V171h-1.15A2.19,2.19,0,0,1,310.65,170.38Z"/><path class="cls-8" d="M317,170.59a3.08,3.08,0,0,1-1.35-1.32,4.39,4.39,0,0,1-.46-2.09v-1a5,5,0,0,1,.44-2.18,3.05,3.05,0,0,1,1.3-1.38,4.09,4.09,0,0,1,2.05-.48,3.27,3.27,0,0,1,1.94.57,3.52,3.52,0,0,1,1.22,1.64,7.14,7.14,0,0,1,.42,2.59v.57h-5.89V166h3.82l0-.2a2,2,0,0,0-.47-1.15,1.32,1.32,0,0,0-1-.41,1.62,1.62,0,0,0-1.27.49,2,2,0,0,0-.45,1.39v1.09a1.8,1.8,0,0,0,.49,1.36,1.86,1.86,0,0,0,1.38.49,2.62,2.62,0,0,0,.91-.17,2.5,2.5,0,0,0,.81-.46l1.49,1.32a4.92,4.92,0,0,1-1.52.95,4.36,4.36,0,0,1-1.69.34A4.65,4.65,0,0,1,317,170.59Z"/><rect class="cls-12" x="153.6" y="177.39" width="310.2" height="181.91" rx="5.67"/><path class="cls-1" d="M277.41,261.2h2.27v12.07h-2.27Zm1,5.19h3.86a1.43,1.43,0,0,0,.72-.18,1.3,1.3,0,0,0,.48-.53,1.66,1.66,0,0,0,.18-.78,1.8,1.8,0,0,0-.17-.79,1.35,1.35,0,0,0-.49-.54,1.4,1.4,0,0,0-.72-.18h-3.86V261.2h3.8a4.12,4.12,0,0,1,2,.46,3.26,3.26,0,0,1,1.33,1.3,4.24,4.24,0,0,1,0,3.88,3.37,3.37,0,0,1-1.33,1.29,4.23,4.23,0,0,1-2,.45h-3.8Z"/><path class="cls-1" d="M290,273.27h-2.36V261.2H290Z"/><path class="cls-1" d="M294.27,272.86a3.5,3.5,0,0,1-1.49-1.53,5.23,5.23,0,0,1-.52-2.44v-3.31a5.26,5.26,0,0,1,.52-2.44,3.57,3.57,0,0,1,1.49-1.54,4.93,4.93,0,0,1,2.36-.53,4.26,4.26,0,0,1,2,.49,4,4,0,0,1,1.48,1.43,6.12,6.12,0,0,1,.81,2.25h-2.36a2.77,2.77,0,0,0-.41-1,2,2,0,0,0-.67-.65,1.74,1.74,0,0,0-.88-.22,2.07,2.07,0,0,0-1.09.26,1.7,1.7,0,0,0-.69.76,3,3,0,0,0-.23,1.21v3.31a2.89,2.89,0,0,0,.23,1.2,1.65,1.65,0,0,0,.69.76,2.07,2.07,0,0,0,1.09.27,1.86,1.86,0,0,0,.89-.22,1.91,1.91,0,0,0,.68-.65,2.91,2.91,0,0,0,.39-1H301a6.24,6.24,0,0,1-.82,2.26,4.07,4.07,0,0,1-1.47,1.42,4.15,4.15,0,0,1-2,.49A4.93,4.93,0,0,1,294.27,272.86Z"/><path class="cls-1" d="M301.37,261.2h8.84v2.19h-8.84Zm3.28,1h2.28v11.09h-2.28Z"/><path class="cls-1" d="M313.06,272.86a3.47,3.47,0,0,1-1.5-1.53,5.32,5.32,0,0,1-.52-2.43v-7.7h2.28V269a2.18,2.18,0,0,0,.56,1.61,2.08,2.08,0,0,0,1.56.57,2.15,2.15,0,0,0,1.59-.57,2.22,2.22,0,0,0,.56-1.61V261.2h2.27v7.7a5.19,5.19,0,0,1-.52,2.43,3.49,3.49,0,0,1-1.51,1.53,5.63,5.63,0,0,1-4.77,0Z"/><path class="cls-1" d="M322.18,261.19h2.28v12.08h-2.28Zm.91,5h4.2a1.1,1.1,0,0,0,1-.67,2,2,0,0,0,.16-.75,1.79,1.79,0,0,0-.15-.75,1.06,1.06,0,0,0-1-.67h-4.2v-2.19h4.38a3.33,3.33,0,0,1,1.75.45,3,3,0,0,1,1.17,1.26,4.51,4.51,0,0,1,0,3.8,3,3,0,0,1-1.17,1.26,3.38,3.38,0,0,1-1.75.45h-4.38Zm2.54,1.82,2.43-.39,3.26,5.62h-2.76Z"/><path class="cls-1" d="M333.27,261.2h2.27v12.07h-2.27Zm.82,0h7.26v2.19h-7.26Zm0,5h6.35v2.19h-6.35Zm0,4.89h7.26v2.2h-7.26Z"/><rect class="cls-12" x="153.6" y="364.22" width="70.87" height="19.84" rx="5.67"/><path class="cls-1" d="M168.2,369.17h1.59v8.45H168.2Zm.7,6.92h2.69a1.22,1.22,0,0,0,.85-.27.92.92,0,0,0,.3-.74v0a1,1,0,0,0-.14-.54.89.89,0,0,0-.39-.35,1.46,1.46,0,0,0-.62-.12H168.9v-1.53h2.69a1.08,1.08,0,0,0,.77-.25.91.91,0,0,0,.27-.7.78.78,0,0,0-.27-.64,1.18,1.18,0,0,0-.77-.22H168.9v-1.54h2.75a3.33,3.33,0,0,1,1.4.27,1.94,1.94,0,0,1,.88.79,2.39,2.39,0,0,1,.3,1.23,1.93,1.93,0,0,1-.19.88,1.61,1.61,0,0,1-.57.62,2.41,2.41,0,0,1-.9.33,2.28,2.28,0,0,1,1,.34,1.66,1.66,0,0,1,.6.69,2.17,2.17,0,0,1,.21,1v0a2.42,2.42,0,0,1-.3,1.24,2,2,0,0,1-.89.79,3.35,3.35,0,0,1-1.41.27H168.9Z"/><path class="cls-1" d="M177,377.34a2.49,2.49,0,0,1-1.05-1.08,3.68,3.68,0,0,1-.36-1.7v-5.39h1.59v5.43a1.55,1.55,0,0,0,.39,1.13,1.73,1.73,0,0,0,2.21,0,1.55,1.55,0,0,0,.39-1.13v-5.43h1.59v5.39a3.68,3.68,0,0,1-.36,1.7,2.51,2.51,0,0,1-1.06,1.08,4,4,0,0,1-3.34,0Z"/><path class="cls-1" d="M182.34,369.17h6.2v1.54h-6.2Zm2.3.69h1.6v7.76h-1.6Z"/><path class="cls-1" d="M188.94,369.17h6.2v1.54h-6.2Zm2.3.69h1.6v7.76h-1.6Z"/><path class="cls-1" d="M197.13,377.32a2.72,2.72,0,0,1-1.09-1.09,3.45,3.45,0,0,1-.38-1.64V372.2a3.45,3.45,0,0,1,.38-1.64,2.72,2.72,0,0,1,1.09-1.09,3.54,3.54,0,0,1,3.23,0,2.72,2.72,0,0,1,1.09,1.09,3.45,3.45,0,0,1,.38,1.64v2.39a3.45,3.45,0,0,1-.38,1.64,2.72,2.72,0,0,1-1.09,1.09,3.54,3.54,0,0,1-3.23,0Zm2.37-1.39a1.2,1.2,0,0,0,.5-.52,1.61,1.61,0,0,0,.18-.78v-2.47a1.61,1.61,0,0,0-.18-.78,1.25,1.25,0,0,0-.5-.52,1.67,1.67,0,0,0-1.51,0,1.2,1.2,0,0,0-.5.52,1.61,1.61,0,0,0-.18.78v2.47a1.61,1.61,0,0,0,.18.78,1.14,1.14,0,0,0,.5.52,1.6,1.6,0,0,0,1.51,0Z"/><path class="cls-1" d="M203.4,369.17h1.95l3.14,6.47-.14.16v-6.63h1.52v8.44h-2l-3.13-6.37.14-.15v6.52H203.4Z"/><rect class="cls-12" x="233.38" y="364.22" width="70.87" height="19.84" rx="5.67"/><path class="cls-1" d="M248,369.17h1.59v8.45H248Zm.69,6.92h2.7a1.24,1.24,0,0,0,.85-.27.92.92,0,0,0,.3-.74v0a1,1,0,0,0-.14-.54.89.89,0,0,0-.39-.35,1.46,1.46,0,0,0-.62-.12h-2.7v-1.53h2.7a1,1,0,0,0,.76-.25.92.92,0,0,0,.28-.7.79.79,0,0,0-.28-.64,1.13,1.13,0,0,0-.76-.22h-2.7v-1.54h2.75a3.27,3.27,0,0,1,1.4.27,1.91,1.91,0,0,1,.89.79,2.39,2.39,0,0,1,.3,1.23,1.93,1.93,0,0,1-.2.88,1.59,1.59,0,0,1-.56.62,2.41,2.41,0,0,1-.9.33,2.38,2.38,0,0,1,1,.34,1.73,1.73,0,0,1,.6.69,2.17,2.17,0,0,1,.21,1v0a2.33,2.33,0,0,1-.31,1.24,1.94,1.94,0,0,1-.88.79,3.35,3.35,0,0,1-1.41.27h-2.85Z"/><path class="cls-1" d="M256.78,377.34a2.49,2.49,0,0,1-1-1.08,3.68,3.68,0,0,1-.36-1.7v-5.39H257v5.43a1.55,1.55,0,0,0,.39,1.13,1.46,1.46,0,0,0,1.1.4,1.5,1.5,0,0,0,1.11-.4,1.55,1.55,0,0,0,.39-1.13v-5.43h1.59v5.39a3.68,3.68,0,0,1-.36,1.7,2.57,2.57,0,0,1-1.06,1.08,4,4,0,0,1-3.34,0Z"/><path class="cls-1" d="M262.12,369.17h6.19v1.54h-6.19Zm2.3.69H266v7.76h-1.59Z"/><path class="cls-1" d="M268.72,369.17h6.2v1.54h-6.2Zm2.3.69h1.59v7.76H271Z"/><path class="cls-1" d="M276.91,377.32a2.72,2.72,0,0,1-1.09-1.09,3.45,3.45,0,0,1-.38-1.64V372.2a3.45,3.45,0,0,1,.38-1.64,2.72,2.72,0,0,1,1.09-1.09,3.23,3.23,0,0,1,1.61-.39,3.26,3.26,0,0,1,1.62.39,2.72,2.72,0,0,1,1.09,1.09,3.45,3.45,0,0,1,.38,1.64v2.39a3.45,3.45,0,0,1-.38,1.64,2.72,2.72,0,0,1-1.09,1.09,3.26,3.26,0,0,1-1.62.39A3.23,3.23,0,0,1,276.91,377.32Zm2.37-1.39a1.2,1.2,0,0,0,.5-.52,1.61,1.61,0,0,0,.18-.78v-2.47a1.61,1.61,0,0,0-.18-.78,1.25,1.25,0,0,0-.5-.52,1.67,1.67,0,0,0-1.51,0,1.2,1.2,0,0,0-.5.52,1.61,1.61,0,0,0-.18.78v2.47a1.61,1.61,0,0,0,.18.78,1.14,1.14,0,0,0,.5.52,1.6,1.6,0,0,0,1.51,0Z"/><path class="cls-1" d="M283.18,369.17h1.94l3.15,6.47-.14.16v-6.63h1.52v8.44h-2l-3.13-6.37.14-.15v6.52h-1.52Z"/><rect class="cls-12" x="313.16" y="364.22" width="70.87" height="19.84" rx="5.67"/><path class="cls-1" d="M327.76,369.17h1.59v8.45h-1.59Zm.69,6.92h2.7a1.26,1.26,0,0,0,.85-.27,1,1,0,0,0,.29-.74v0a1,1,0,0,0-.13-.54.89.89,0,0,0-.39-.35,1.46,1.46,0,0,0-.62-.12h-2.7v-1.53h2.7a1.06,1.06,0,0,0,.76-.25.91.91,0,0,0,.27-.7.78.78,0,0,0-.27-.64,1.15,1.15,0,0,0-.76-.22h-2.7v-1.54h2.75a3.3,3.3,0,0,1,1.4.27,2,2,0,0,1,.89.79,2.39,2.39,0,0,1,.3,1.23,1.93,1.93,0,0,1-.2.88,1.67,1.67,0,0,1-.56.62,2.41,2.41,0,0,1-.9.33,2.38,2.38,0,0,1,1,.34,1.81,1.81,0,0,1,.6.69,2.17,2.17,0,0,1,.21,1v0a2.33,2.33,0,0,1-.31,1.24,1.91,1.91,0,0,1-.89.79,3.3,3.3,0,0,1-1.4.27h-2.85Z"/><path class="cls-1" d="M336.56,377.34a2.49,2.49,0,0,1-1.05-1.08,3.68,3.68,0,0,1-.36-1.7v-5.39h1.59v5.43a1.55,1.55,0,0,0,.39,1.13,1.44,1.44,0,0,0,1.1.4,1.46,1.46,0,0,0,1.1-.4,1.56,1.56,0,0,0,.4-1.13v-5.43h1.59v5.39a3.68,3.68,0,0,1-.36,1.7,2.57,2.57,0,0,1-1.06,1.08,4,4,0,0,1-3.34,0Z"/><path class="cls-1" d="M341.9,369.17h6.19v1.54H341.9Zm2.3.69h1.59v7.76H344.2Z"/><path class="cls-1" d="M348.5,369.17h6.19v1.54H348.5Zm2.3.69h1.59v7.76H350.8Z"/><path class="cls-1" d="M356.68,377.32a2.76,2.76,0,0,1-1.08-1.09,3.34,3.34,0,0,1-.38-1.64V372.2a3.34,3.34,0,0,1,.38-1.64,2.76,2.76,0,0,1,1.08-1.09,3.56,3.56,0,0,1,3.24,0,2.64,2.64,0,0,1,1.08,1.09,3.34,3.34,0,0,1,.39,1.64v2.39a3.34,3.34,0,0,1-.39,1.64,2.64,2.64,0,0,1-1.08,1.09,3.56,3.56,0,0,1-3.24,0Zm2.38-1.39a1.26,1.26,0,0,0,.5-.52,1.61,1.61,0,0,0,.18-.78v-2.47a1.61,1.61,0,0,0-.18-.78,1.32,1.32,0,0,0-.5-.52,1.55,1.55,0,0,0-.76-.18,1.51,1.51,0,0,0-.75.18,1.28,1.28,0,0,0-.51.52,1.73,1.73,0,0,0-.17.78v2.47a1.73,1.73,0,0,0,.17.78,1.22,1.22,0,0,0,.51.52,1.52,1.52,0,0,0,.75.19A1.56,1.56,0,0,0,359.06,375.93Z"/><path class="cls-1" d="M363,369.17h1.94l3.15,6.47-.14.16v-6.63h1.52v8.44h-2l-3.13-6.37.14-.15v6.52H363Z"/><rect class="cls-13" x="392.94" y="364.22" width="70.87" height="19.84" rx="5.67"/><path class="cls-1" d="M412.21,377.34a2.52,2.52,0,0,1-1-1.08,3.71,3.71,0,0,1-.36-1.7v-2.32a3.72,3.72,0,0,1,.36-1.71,2.45,2.45,0,0,1,1-1.07,3.41,3.41,0,0,1,1.65-.38,2.94,2.94,0,0,1,1.43.35,2.79,2.79,0,0,1,1,1,4.18,4.18,0,0,1,.57,1.58h-1.65a2,2,0,0,0-.29-.71,1.38,1.38,0,0,0-.47-.46,1.26,1.26,0,0,0-.62-.15,1.5,1.5,0,0,0-.76.18,1.18,1.18,0,0,0-.48.53,2,2,0,0,0-.16.85v2.32a1.94,1.94,0,0,0,.16.84,1.18,1.18,0,0,0,.48.53,1.5,1.5,0,0,0,.76.19,1.34,1.34,0,0,0,.63-.16,1.26,1.26,0,0,0,.47-.45,2.12,2.12,0,0,0,.28-.72h1.65a4.47,4.47,0,0,1-.57,1.58,2.81,2.81,0,0,1-1,1,2.87,2.87,0,0,1-1.42.35A3.53,3.53,0,0,1,412.21,377.34Z"/><path class="cls-1" d="M418.23,369.17h1.59v8.45h-1.59Zm.71,6.92h4.95v1.53h-4.95Z"/><path class="cls-1" d="M425.05,369.17h1.59v8.45h-1.59Zm.57,0h5.09v1.54h-5.09Zm0,3.49h4.45v1.53h-4.45Zm0,3.43h5.09v1.53h-5.09Z"/><path class="cls-1" d="M434.58,369.17h1l3.23,8.45H437.1l-2-5.77-2,5.77h-1.71Zm-1.68,5.56h4.44v1.54H432.9Z"/><path class="cls-1" d="M439.87,369.17h1.59v8.45h-1.59Zm.63,3.52h2.94a.8.8,0,0,0,.43-.12.91.91,0,0,0,.29-.35,1.43,1.43,0,0,0,.1-.53,1.24,1.24,0,0,0-.1-.52.77.77,0,0,0-.29-.35.75.75,0,0,0-.43-.12H440.5v-1.53h3.07a2.33,2.33,0,0,1,1.22.31,2.08,2.08,0,0,1,.82.89,3.17,3.17,0,0,1,0,2.65,2.14,2.14,0,0,1-.82.89,2.36,2.36,0,0,1-1.22.31H440.5Zm1.78,1.27,1.7-.27,2.28,3.93h-1.93Z"/><rect class="cls-1" x="24.13" y="57.33" width="8.58" height="27.9"/></svg>