<svg id="Layer_1" data-name="Layer 1" xmlns="http://www.w3.org/2000/svg" viewBox="0 0 510.24 510.24"><defs><style>.cls-1{fill:#bc794b;}.cls-2{fill:#9fc9eb;}.cls-3{fill:#fdcc9a;}.cls-4{fill:#ffcd34;}.cls-5{fill:#c9992c;}.cls-6{fill:#ca9a2c;}.cls-7{fill:#ffce35;}.cls-11,.cls-8{fill:#fff;}.cls-9{fill:#231f20;}.cls-10{fill:#ed1c24;}.cls-11,.cls-12{stroke:#231f20;stroke-linecap:round;stroke-miterlimit:10;}.cls-11{stroke-width:1.06px;}.cls-12{fill:none;stroke-width:3.03px;}</style></defs><rect class="cls-1" x="68.04" y="289.26" width="103" height="8"/><ellipse class="cls-2" cx="255.54" cy="378.38" rx="248.74" ry="30.76"/><path class="cls-3" d="M158.32,172.79V164a25.51,25.51,0,0,1,2.08-10.27,26.58,26.58,0,0,1,13.94-13.94,25.5,25.5,0,0,1,10.27-2.07h28.85a19.33,19.33,0,0,1,6.48-6.36,16.45,16.45,0,0,1,8.68-2.45v15.65a25.85,25.85,0,0,1,6.48,8.8A25.54,25.54,0,0,1,237.42,164V216.8a4,4,0,0,0,1.35,3,4.31,4.31,0,0,0,3,1.28,5,5,0,0,0,1.9-.37,2.61,2.61,0,0,0,1.4-1.34l21-43.28a21.09,21.09,0,0,1,8-8.8,21.47,21.47,0,0,1,11.55-3.3,20.33,20.33,0,0,1,6.23,1,23.4,23.4,0,0,1,5.69,2.69,23.09,23.09,0,0,1,4.77,4.15,19.9,19.9,0,0,1,3.36,5.38l7.33,17.36a3.83,3.83,0,0,1,.68,1c.2.41.4.8.61,1.16a3.37,3.37,0,0,0,.73.92,2,2,0,0,0,1.28.37,2.43,2.43,0,0,0,2.14-1.23,23.57,23.57,0,0,0,1.29-2.2l7.33-17.36A21.95,21.95,0,0,1,347.2,164a20.44,20.44,0,0,1,6.24,1,24.66,24.66,0,0,1,5.74,2.69,21.2,21.2,0,0,1,4.77,4.15,20.72,20.72,0,0,1,3.3,5.38l17.11,41a24.15,24.15,0,0,1,2,6.9,62.71,62.71,0,0,1,.37,7.16l15.77,11.73a4.41,4.41,0,0,1,1.83,3.55,4.39,4.39,0,0,1-4.4,4.4h-13.2V366.07l-8.68,8.8H351.6A16.65,16.65,0,0,1,353,368a18.09,18.09,0,0,1,3.79-5.57,17.31,17.31,0,0,1,12.41-5.07v-44L342.8,269.49a42.44,42.44,0,0,1-15.46,13,43.53,43.53,0,0,1-19.63,4.59H254.9v79l-8.8,8.8H219.82a16.64,16.64,0,0,1,1.4-6.84,18.26,18.26,0,0,1,3.79-5.57,17.31,17.31,0,0,1,12.41-5.07V295.78l-26.28-29.47a34.77,34.77,0,0,1-8.93-23.22V190.4a16.85,16.85,0,0,0-1.4-6.85,18.06,18.06,0,0,0-9.36-9.35,16.65,16.65,0,0,0-6.84-1.41H171.89"/><path class="cls-4" d="M229,325.75h29.7l-.17,2.41c-.17,2.32-.31,5.23-.43,8.45-.41,11.19-.44,26.28.42,34.6l.25,2.41-38.48,1.25h-.19a5.51,5.51,0,0,1-4.14-1.63c-2.06-2.14-1.92-5.55-1.81-8.29a19.47,19.47,0,0,0,0-2v-.15c-.11-8.19,7.62-9.38,12.74-10.17,1.18-.18,2.31-.35,3.3-.58,1.77-1.05,1.83-1.2,1.83-2.49"/><rect class="cls-5" x="212.86" y="367.77" width="46.33" height="7.1"/><rect class="cls-6" x="228.16" y="324.91" width="31.03" height="7.1"/><path class="cls-7" d="M363,326.17h29.7l-.17,2.41c-.17,2.32-.32,5.22-.44,8.45-.4,11.19-.43,26.28.43,34.6l.25,2.41-38.49,1.25h-.19a5.52,5.52,0,0,1-4.13-1.63c-2.06-2.14-1.93-5.55-1.82-8.29,0-.78.06-1.51,0-2v-.15c-.11-8.19,7.62-9.38,12.73-10.17,1.19-.18,2.32-.35,3.31-.58,1.77-1.05,1.83-1.2,1.83-2.49"/><rect class="cls-5" x="346.78" y="368.19" width="46.33" height="7.1"/><rect class="cls-5" x="362.08" y="325.33" width="31.03" height="7.1"/><rect class="cls-8" x="67.78" y="191.67" width="103.69" height="73.62"/><path class="cls-9" d="M167.57,187H71.67a9.59,9.59,0,0,0-9.59,9.59v63.94a9.59,9.59,0,0,0,9.59,9.59H110l-3.2,9.59H92.45a4.8,4.8,0,1,0,0,9.59h54.34a4.8,4.8,0,1,0,0-9.59H132.41l-3.2-9.59h38.36a9.59,9.59,0,0,0,9.59-9.59V196.55A9.59,9.59,0,0,0,167.57,187Zm3.35,75.63H68.43V193.41H170.92Z"/><rect class="cls-10" x="79.57" y="209.44" width="79.94" height="36.7" rx="11.5"/><path class="cls-8" d="M90.05,219.69H93v15.62H90.05Zm1.07,0h9.19v2.83H91.12Zm0,6.58h8v2.84h-8Z"/><path class="cls-8" d="M105.08,231.62a.82.82,0,0,0,.23.63.89.89,0,0,0,.66.22h.49v2.84H105a2.75,2.75,0,0,1-2.09-.78,3,3,0,0,1-.74-2.18V219.69h3Z"/><path class="cls-8" d="M110.39,234.9a3.89,3.89,0,0,1-1.65-1.66,5.74,5.74,0,0,1-.56-2.63V228.8a5.64,5.64,0,0,1,.56-2.6,3.79,3.79,0,0,1,1.65-1.64,6.24,6.24,0,0,1,5.21,0,3.72,3.72,0,0,1,1.64,1.64,5.51,5.51,0,0,1,.57,2.6v1.84a5.53,5.53,0,0,1-.57,2.61,3.79,3.79,0,0,1-1.64,1.65,6.24,6.24,0,0,1-5.21,0Zm4-2.79a2.06,2.06,0,0,0,.49-1.47V228.8a2,2,0,0,0-.49-1.45,1.81,1.81,0,0,0-1.39-.52,1.78,1.78,0,0,0-1.37.52,2,2,0,0,0-.49,1.45v1.84a2.06,2.06,0,0,0,.49,1.47,1.76,1.76,0,0,0,1.37.52A1.81,1.81,0,0,0,114.37,232.11Z"/><path class="cls-8" d="M122.38,234.9a3.89,3.89,0,0,1-1.65-1.66,5.74,5.74,0,0,1-.56-2.63V228.8a5.64,5.64,0,0,1,.56-2.6,3.79,3.79,0,0,1,1.65-1.64,6.24,6.24,0,0,1,5.21,0,3.77,3.77,0,0,1,1.64,1.64,5.51,5.51,0,0,1,.56,2.6v1.84a5.53,5.53,0,0,1-.56,2.61,3.84,3.84,0,0,1-1.64,1.65,6.24,6.24,0,0,1-5.21,0Zm4-2.79a2.06,2.06,0,0,0,.49-1.47V228.8a2,2,0,0,0-.49-1.45,1.83,1.83,0,0,0-1.39-.52,1.78,1.78,0,0,0-1.37.52,2,2,0,0,0-.49,1.45v1.84a2.06,2.06,0,0,0,.49,1.47,1.76,1.76,0,0,0,1.37.52A1.83,1.83,0,0,0,126.36,232.11Z"/><path class="cls-8" d="M133.88,234.9a3.52,3.52,0,0,1-1.28-1.65,6.79,6.79,0,0,1-.44-2.61v-1.78a6.93,6.93,0,0,1,.44-2.63,3.33,3.33,0,0,1,3.31-2.24,2.67,2.67,0,0,1,1.62.54,3.7,3.7,0,0,1,1.19,1.5l-.23,2.48a2.18,2.18,0,0,0-.19-1,1.38,1.38,0,0,0-.56-.61,1.81,1.81,0,0,0-.9-.21,1.54,1.54,0,0,0-1.28.57,2.4,2.4,0,0,0-.46,1.58v1.77a2.33,2.33,0,0,0,.46,1.55,1.55,1.55,0,0,0,1.28.55,1.81,1.81,0,0,0,.9-.21,1.33,1.33,0,0,0,.56-.59,2,2,0,0,0,.19-.93l.16,2.54a3,3,0,0,1-1.06,1.42,2.85,2.85,0,0,1-1.68.5A3.54,3.54,0,0,1,133.88,234.9Zm4.61-15.21h2.95v15.62h-2.95Z"/><path class="cls-8" d="M144.34,219.69h2.94v11h-2.94Zm0,12.67h2.94v2.95h-2.94Z"/><rect class="cls-1" x="78.04" y="297.26" width="5.57" height="77.61"/><rect class="cls-1" x="155.36" y="297.26" width="5.57" height="77.61"/><ellipse class="cls-11" cx="205.16" cy="155.16" rx="5.67" ry="7.51"/><circle class="cls-12" cx="202.68" cy="159" r="0.74"/></svg>