<svg id="Layer_1" data-name="Layer 1" xmlns="http://www.w3.org/2000/svg" viewBox="0 0 510.24 425.2"><defs><style>.cls-1{fill:#fff;}.cls-2{fill:#808285;}.cls-3{fill:#a7a9ac;}.cls-4{fill:#00a659;}.cls-5{fill:#787979;}.cls-6{fill:#ed1c24;}</style></defs><rect class="cls-1" x="85.85" y="171.09" width="94.72" height="67.26"/><rect class="cls-2" x="120.65" y="8.7" width="272.7" height="389.51" rx="41" transform="translate(460.46 -53.55) rotate(90)"/><rect class="cls-1" x="81" y="82.71" width="352.01" height="241.48" rx="25.53"/><polygon class="cls-2" points="278.56 332.99 281.63 383.26 232.37 383.26 235.45 332.99 278.56 332.99"/><rect class="cls-2" x="165.67" y="383.26" width="182.67" height="16.56" rx="5.18"/><path class="cls-3" d="M101.63,189.9h7v41.88h-7a7,7,0,0,1-7-7V196.88a7,7,0,0,1,7-7ZM213.3,179.43v59.33a14,14,0,0,1-14,14H129.55a14,14,0,0,1-14-14V179.43A17.43,17.43,0,0,1,133,162h24.44V148a7,7,0,0,1,14,0v14h24.43a17.44,17.44,0,0,1,17.45,17.43Zm-61.07,17.45a8.73,8.73,0,1,0-8.73,8.73,8.72,8.72,0,0,0,8.73-8.73Zm-1.75,27.92H136.53v7h13.95Zm20.94,0h-14v7h14Zm22.68-27.92a8.72,8.72,0,1,0-8.72,8.73,8.71,8.71,0,0,0,8.72-8.73Zm-1.74,27.92h-14v7h14Zm41.88-27.92V224.8a7,7,0,0,1-7,7h-7V189.9h7a7,7,0,0,1,7,7Z"/><polygon class="cls-4" points="283.84 204.75 240.93 204.75 283.84 187.65 283.84 204.75"/><polygon class="cls-4" points="283.84 204.75 240.93 204.75 283.84 221.84 283.84 204.75"/><rect class="cls-4" x="267.08" y="178.43" width="149.46" height="49.55" rx="10.36"/><path class="cls-1" d="M284.87,192.26h4.85l7.85,16.15-.35.38V192.26H301v21.07h-4.89l-7.81-15.91.35-.37v16.28h-3.8Z"/><path class="cls-1" d="M307.92,212.79a5.06,5.06,0,0,1-2.22-2.24,7.58,7.58,0,0,1-.77-3.54v-2.45a7.41,7.41,0,0,1,.77-3.5,5,5,0,0,1,2.22-2.22,8.51,8.51,0,0,1,7,0,5.07,5.07,0,0,1,2.22,2.22,7.54,7.54,0,0,1,.76,3.5v2.49a7.62,7.62,0,0,1-.76,3.52,5.17,5.17,0,0,1-2.22,2.22,8.41,8.41,0,0,1-7,0Zm5.37-3.76a2.79,2.79,0,0,0,.66-2v-2.49a2.73,2.73,0,0,0-.66-2,2.5,2.5,0,0,0-1.87-.7,2.43,2.43,0,0,0-1.85.7,2.73,2.73,0,0,0-.66,2v2.49a2.78,2.78,0,0,0,.65,2,2.41,2.41,0,0,0,1.86.7A2.46,2.46,0,0,0,313.29,209Z"/><path class="cls-1" d="M329.82,192.26h4v21.08h-4Zm1.45,0h12.4v3.83h-12.4Zm0,8.89h10.8V205h-10.8Z"/><path class="cls-1" d="M350.1,208.37a1.12,1.12,0,0,0,.32.85,1.21,1.21,0,0,0,.89.3H352v3.82h-2a3.71,3.71,0,0,1-2.81-1,4.08,4.08,0,0,1-1-2.94v-17.1h4Z"/><path class="cls-1" d="M357.27,212.79a5.17,5.17,0,0,1-2.22-2.24,7.71,7.71,0,0,1-.76-3.54v-2.45a7.54,7.54,0,0,1,.76-3.5,5.07,5.07,0,0,1,2.22-2.22,8.53,8.53,0,0,1,7,0,5,5,0,0,1,2.21,2.22,7.41,7.41,0,0,1,.77,3.5v2.49a7.5,7.5,0,0,1-.77,3.52,5.1,5.1,0,0,1-2.21,2.22,8.43,8.43,0,0,1-7,0Zm5.38-3.76a2.79,2.79,0,0,0,.66-2v-2.49a2.73,2.73,0,0,0-.66-2,2.5,2.5,0,0,0-1.88-.7,2.43,2.43,0,0,0-1.84.7,2.73,2.73,0,0,0-.66,2v2.49a2.78,2.78,0,0,0,.65,2,2.38,2.38,0,0,0,1.85.7A2.47,2.47,0,0,0,362.65,209Z"/><path class="cls-1" d="M373.46,212.79a5.11,5.11,0,0,1-2.22-2.24,7.58,7.58,0,0,1-.76-3.54v-2.45a7.42,7.42,0,0,1,.76-3.5,5,5,0,0,1,2.22-2.22,8.51,8.51,0,0,1,7,0,5.07,5.07,0,0,1,2.22,2.22,7.54,7.54,0,0,1,.76,3.5v2.49a7.62,7.62,0,0,1-.76,3.52,5.17,5.17,0,0,1-2.22,2.22,8.41,8.41,0,0,1-7,0Zm5.37-3.76a2.79,2.79,0,0,0,.67-2v-2.49a2.74,2.74,0,0,0-.67-2,2.5,2.5,0,0,0-1.87-.7,2.45,2.45,0,0,0-1.85.7,2.73,2.73,0,0,0-.66,2v2.49a2.83,2.83,0,0,0,.65,2,2.42,2.42,0,0,0,1.86.7A2.46,2.46,0,0,0,378.83,209Z"/><path class="cls-1" d="M389,212.79a4.78,4.78,0,0,1-1.74-2.22,9.46,9.46,0,0,1-.59-3.52v-2.41a9.66,9.66,0,0,1,.59-3.55,4.86,4.86,0,0,1,1.74-2.25,4.76,4.76,0,0,1,2.73-.76,3.68,3.68,0,0,1,2.2.71,5.12,5.12,0,0,1,1.6,2l-.31,3.34a2.89,2.89,0,0,0-.26-1.31,1.83,1.83,0,0,0-.76-.82,2.41,2.41,0,0,0-1.21-.28,2.09,2.09,0,0,0-1.73.76,3.33,3.33,0,0,0-.62,2.14v2.39a3.18,3.18,0,0,0,.62,2.09,2.14,2.14,0,0,0,1.73.74,2.41,2.41,0,0,0,1.21-.28,1.81,1.81,0,0,0,.76-.79,2.74,2.74,0,0,0,.26-1.27l.21,3.44a4,4,0,0,1-1.42,1.91,3.86,3.86,0,0,1-2.28.67A4.69,4.69,0,0,1,389,212.79Zm6.22-20.53h4v21.08h-4Z"/><polygon class="cls-5" points="303.56 250.31 281.79 250.31 240.93 250.31 283.84 284.34 303.56 250.31"/><rect class="cls-5" x="267.08" y="250.31" width="158" height="49.55" rx="10.36"/><path class="cls-1" d="M278.25,262.68h4v21.09h-4ZM280,279.94h6.72a3.07,3.07,0,0,0,2.11-.66,2.34,2.34,0,0,0,.75-1.85v0a2.67,2.67,0,0,0-.33-1.37,2.23,2.23,0,0,0-1-.86,3.66,3.66,0,0,0-1.55-.3H280V271h6.72a2.68,2.68,0,0,0,1.91-.62,2.27,2.27,0,0,0,.67-1.75,1.93,1.93,0,0,0-.67-1.58,2.87,2.87,0,0,0-1.91-.57H280v-3.83h6.85a8.24,8.24,0,0,1,3.5.68,4.83,4.83,0,0,1,2.2,1.95,6,6,0,0,1,.76,3.09,4.79,4.79,0,0,1-.49,2.18,4.05,4.05,0,0,1-1.41,1.56,5.8,5.8,0,0,1-2.24.82,5.67,5.67,0,0,1,2.39.85,4.32,4.32,0,0,1,1.51,1.72,5.59,5.59,0,0,1,.51,2.45v0a6,6,0,0,1-.76,3.11,4.89,4.89,0,0,1-2.22,2,8.28,8.28,0,0,1-3.5.68H280Z"/><path class="cls-1" d="M297.6,282.83a4.65,4.65,0,0,1-1.2-3.5,4.11,4.11,0,0,1,1.34-3.35,6.14,6.14,0,0,1,4-1.12h3.78l.2,3h-4a2.13,2.13,0,0,0-1.35.36,1.3,1.3,0,0,0-.45,1.08,1.19,1.19,0,0,0,.57,1.09,3.2,3.2,0,0,0,1.71.36,5.93,5.93,0,0,0,2.37-.36,1.19,1.19,0,0,0,.77-1.13l.31,2.18a2,2,0,0,1-.75,1.38,4.3,4.3,0,0,1-1.65.85,7.56,7.56,0,0,1-2.1.28A5,5,0,0,1,297.6,282.83Zm7.8-8.61a1.94,1.94,0,0,0-.69-1.6,3,3,0,0,0-2-.57,5.09,5.09,0,0,0-1.67.28,4.88,4.88,0,0,0-1.47.76l-2.46-2.42a6,6,0,0,1,2.38-1.6,9,9,0,0,1,3.27-.57,7.82,7.82,0,0,1,3.37.66,4.7,4.7,0,0,1,2.12,1.91,5.87,5.87,0,0,1,.73,3v9.68H305.4Z"/><path class="cls-1" d="M314.82,283.21a4.76,4.76,0,0,1-1.73-2.22,9.23,9.23,0,0,1-.59-3.52v-2.4a9.48,9.48,0,0,1,.59-3.56,4.52,4.52,0,0,1,4.47-3,3.7,3.7,0,0,1,2.19.71,5.06,5.06,0,0,1,1.61,2l-.31,3.34a3.06,3.06,0,0,0-.26-1.31,1.83,1.83,0,0,0-.76-.82,2.43,2.43,0,0,0-1.21-.28,2.11,2.11,0,0,0-1.74.76,3.32,3.32,0,0,0-.61,2.14v2.39a3.18,3.18,0,0,0,.61,2.09,2.16,2.16,0,0,0,1.74.74A2.43,2.43,0,0,0,320,280a1.76,1.76,0,0,0,.76-.79,2.86,2.86,0,0,0,.26-1.26l.2,3.43a4,4,0,0,1-1.42,1.91,3.83,3.83,0,0,1-2.27.67A4.72,4.72,0,0,1,314.82,283.21Zm6.23-20.53h4v21.09h-4Z"/><path class="cls-1" d="M341,283.77h-4.12V262.68H341Z"/><path class="cls-1" d="M345.09,268.71h4v15.06h-4Zm8.77,6.37a2.91,2.91,0,0,0-.65-2,2.35,2.35,0,0,0-1.84-.71,2.27,2.27,0,0,0-1.7.61,2.34,2.34,0,0,0-.61,1.73l-.3-3.33a5.45,5.45,0,0,1,1.67-2.12,3.9,3.9,0,0,1,2.35-.72,4.52,4.52,0,0,1,4.46,3,9.47,9.47,0,0,1,.6,3.56v8.7h-4Zm8.78,0a3,3,0,0,0-.63-2,2.26,2.26,0,0,0-1.8-.71,2.23,2.23,0,0,0-1.76.68,2.83,2.83,0,0,0-.61,1.95l-.74-3.48a5.64,5.64,0,0,1,1.85-2.21,4.44,4.44,0,0,1,2.53-.77,4.59,4.59,0,0,1,4.53,3,9.47,9.47,0,0,1,.6,3.56v8.7h-4Z"/><path class="cls-1" d="M371,282.83a4.65,4.65,0,0,1-1.2-3.5,4.11,4.11,0,0,1,1.34-3.35,6.17,6.17,0,0,1,4-1.12h3.77l.2,3h-4a2.13,2.13,0,0,0-1.35.36,1.3,1.3,0,0,0-.45,1.08,1.19,1.19,0,0,0,.57,1.09,3.2,3.2,0,0,0,1.71.36,5.93,5.93,0,0,0,2.37-.36,1.19,1.19,0,0,0,.77-1.13l.31,2.18a2,2,0,0,1-.75,1.38,4.3,4.3,0,0,1-1.65.85,7.56,7.56,0,0,1-2.1.28A5,5,0,0,1,371,282.83Zm7.8-8.61a1.94,1.94,0,0,0-.69-1.6,3,3,0,0,0-2-.57,5.09,5.09,0,0,0-1.67.28,4.88,4.88,0,0,0-1.47.76l-2.46-2.42a6,6,0,0,1,2.38-1.6,9,9,0,0,1,3.27-.57,7.82,7.82,0,0,1,3.37.66,4.7,4.7,0,0,1,2.12,1.91,5.88,5.88,0,0,1,.74,3v9.68H378.8Z"/><path class="cls-1" d="M388.22,283.21a4.76,4.76,0,0,1-1.73-2.22,9.22,9.22,0,0,1-.6-3.52v-2.4a9.47,9.47,0,0,1,.6-3.56,4.52,4.52,0,0,1,4.47-3,3.7,3.7,0,0,1,2.19.71,5,5,0,0,1,1.6,2l-.3,3.34a3.06,3.06,0,0,0-.26-1.31,1.89,1.89,0,0,0-.76-.82,2.43,2.43,0,0,0-1.21-.28,2.1,2.1,0,0,0-1.74.76,3.32,3.32,0,0,0-.61,2.14v2.39a3.18,3.18,0,0,0,.61,2.09,2.15,2.15,0,0,0,1.74.74,2.43,2.43,0,0,0,1.21-.28,1.81,1.81,0,0,0,.76-.79,2.86,2.86,0,0,0,.26-1.26l.2,3.43a4,4,0,0,1-1.42,1.91A3.85,3.85,0,0,1,391,284,4.72,4.72,0,0,1,388.22,283.21Zm.23,6a5.1,5.1,0,0,1-2.19-1.77l2.67-2.45a3.34,3.34,0,0,0,1.21.84,3.8,3.8,0,0,0,1.48.3,3,3,0,0,0,2-.68,2.33,2.33,0,0,0,.79-1.88v-14.9h4v14.61a7.41,7.41,0,0,1-.79,3.55,5.26,5.26,0,0,1-2.3,2.25,8,8,0,0,1-3.66.76A7.87,7.87,0,0,1,388.45,289.25Z"/><path class="cls-1" d="M405.07,283.19a5.33,5.33,0,0,1-2.35-2.3,7.54,7.54,0,0,1-.82-3.65v-1.7a8.54,8.54,0,0,1,.78-3.81,5.44,5.44,0,0,1,2.26-2.41,7.3,7.3,0,0,1,3.59-.82,5.8,5.8,0,0,1,3.38,1,6.06,6.06,0,0,1,2.14,2.87,12.43,12.43,0,0,1,.73,4.53v1h-10.3v-2.68h6.67l0-.35a3.5,3.5,0,0,0-.82-2,2.27,2.27,0,0,0-1.76-.71,2.89,2.89,0,0,0-2.23.85,3.47,3.47,0,0,0-.79,2.42v1.92a3.16,3.16,0,0,0,.87,2.38,3.3,3.3,0,0,0,2.41.84,4.59,4.59,0,0,0,1.58-.29,4.53,4.53,0,0,0,1.42-.8l2.6,2.31a8.86,8.86,0,0,1-2.64,1.66,7.92,7.92,0,0,1-3,.58A8,8,0,0,1,405.07,283.19Z"/><rect class="cls-6" x="267.08" y="106.54" width="107.91" height="49.55" rx="10.36"/><path class="cls-1" d="M286.57,120.37h4v21.09h-4Zm1.45,0h12.4v3.83H288Zm0,8.89h10.8v3.83H288Z"/><path class="cls-1" d="M306.86,136.48a1.11,1.11,0,0,0,.31.85,1.23,1.23,0,0,0,.89.3h.67v3.83h-2a3.72,3.72,0,0,1-2.82-1.05,4.09,4.09,0,0,1-1-2.94v-17.1h4Z"/><path class="cls-1" d="M314,140.91a5.16,5.16,0,0,1-2.22-2.24,7.66,7.66,0,0,1-.76-3.55v-2.45a7.44,7.44,0,0,1,.76-3.5A5.12,5.12,0,0,1,314,127a8.51,8.51,0,0,1,7,0,5.17,5.17,0,0,1,2.22,2.22,7.57,7.57,0,0,1,.76,3.5v2.49a7.59,7.59,0,0,1-.76,3.52,5.25,5.25,0,0,1-2.22,2.23,8.51,8.51,0,0,1-7,0Zm5.37-3.77a2.79,2.79,0,0,0,.67-2v-2.49a2.75,2.75,0,0,0-.67-2,2.49,2.49,0,0,0-1.87-.69,2.44,2.44,0,0,0-1.85.69,2.75,2.75,0,0,0-.66,2v2.49a2.83,2.83,0,0,0,.65,2,2.43,2.43,0,0,0,1.86.71A2.46,2.46,0,0,0,319.4,137.14Z"/><path class="cls-1" d="M330.21,140.91a5.22,5.22,0,0,1-2.22-2.24,7.66,7.66,0,0,1-.76-3.55v-2.45a7.44,7.44,0,0,1,.76-3.5,5.17,5.17,0,0,1,2.22-2.22,8.51,8.51,0,0,1,7,0,5.17,5.17,0,0,1,2.22,2.22,7.44,7.44,0,0,1,.76,3.5v2.49a7.47,7.47,0,0,1-.76,3.52,5.25,5.25,0,0,1-2.22,2.23,8.51,8.51,0,0,1-7,0Zm5.37-3.77a2.75,2.75,0,0,0,.67-2v-2.49a2.71,2.71,0,0,0-.67-2,2.48,2.48,0,0,0-1.87-.69,2.44,2.44,0,0,0-1.85.69,2.75,2.75,0,0,0-.66,2v2.49a2.83,2.83,0,0,0,.65,2,2.8,2.8,0,0,0,3.73,0Z"/><path class="cls-1" d="M345.74,140.91a4.86,4.86,0,0,1-1.74-2.23,9.42,9.42,0,0,1-.59-3.52v-2.4a9.68,9.68,0,0,1,.59-3.56,4.54,4.54,0,0,1,4.47-3,3.67,3.67,0,0,1,2.2.72,5.09,5.09,0,0,1,1.6,2l-.3,3.34a2.91,2.91,0,0,0-.27-1.31,1.83,1.83,0,0,0-.76-.82,2.49,2.49,0,0,0-1.21-.28,2.12,2.12,0,0,0-1.73.76,3.33,3.33,0,0,0-.62,2.14v2.39a3.18,3.18,0,0,0,.62,2.09,2.11,2.11,0,0,0,1.73.74,2.49,2.49,0,0,0,1.21-.27,1.78,1.78,0,0,0,.76-.8,2.73,2.73,0,0,0,.27-1.26l.2,3.43a3.93,3.93,0,0,1-1.42,1.91,3.86,3.86,0,0,1-2.28.67A4.78,4.78,0,0,1,345.74,140.91ZM352,120.37h4v21.09h-4Z"/><polygon class="cls-6" points="283.84 156.09 240.93 156.09 283.84 122.06 283.84 156.09"/></svg>